<mxfile host="app.diagrams.net" modified="2021-12-12T19:39:52.120Z" agent="5.0 (Windows NT 10.0; Win64; x64) AppleWebKit/537.36 (KHTML, like Gecko) Chrome/96.0.4664.45 Safari/537.36" etag="zLSK0zGz7ceTgT6V3ZVj" version="15.9.4" type="github">
  <diagram id="GJK99qKiG53gX0k3GKg5" name="Page-1">
    <mxGraphModel dx="702" dy="803" grid="1" gridSize="10" guides="1" tooltips="1" connect="1" arrows="1" fold="1" page="1" pageScale="1" pageWidth="827" pageHeight="1169" math="0" shadow="0">
      <root>
        <mxCell id="0" />
        <mxCell id="1" parent="0" />
        <mxCell id="-XtP8Va-9KeHgSvp5jP7-1" value="COMPONENT DIAGRAM" style="text;whiteSpace=wrap;html=1;" parent="1" vertex="1">
          <mxGeometry x="824" y="140" width="150" height="30" as="geometry" />
        </mxCell>
        <mxCell id="-XtP8Va-9KeHgSvp5jP7-2" value="" style="html=1;dropTarget=0;strokeColor=#6c8ebf;fillColor=#dae8fc;" parent="1" vertex="1">
          <mxGeometry y="286.25" width="260" height="130" as="geometry" />
        </mxCell>
        <mxCell id="-XtP8Va-9KeHgSvp5jP7-3" value="" style="shape=module;jettyWidth=8;jettyHeight=4;fillColor=#bac8d3;strokeColor=#23445d;" parent="-XtP8Va-9KeHgSvp5jP7-2" vertex="1">
          <mxGeometry x="1" width="20" height="20" relative="1" as="geometry">
            <mxPoint x="-27" y="7" as="offset" />
          </mxGeometry>
        </mxCell>
        <mxCell id="-XtP8Va-9KeHgSvp5jP7-4" value="«COMPONENT»&lt;br&gt;&lt;b&gt;Browser&lt;/b&gt;" style="text;html=1;align=center;verticalAlign=middle;resizable=0;points=[];autosize=1;strokeColor=none;" parent="1" vertex="1">
          <mxGeometry x="60" y="296.25" width="110" height="30" as="geometry" />
        </mxCell>
        <mxCell id="-XtP8Va-9KeHgSvp5jP7-5" value="«COMPONENT»&lt;br&gt;&lt;b&gt;UI&lt;/b&gt;" style="html=1;dropTarget=0;fillColor=#dae8fc;strokeColor=#6c8ebf;" parent="1" vertex="1">
          <mxGeometry x="52.5" y="336.25" width="155" height="60" as="geometry" />
        </mxCell>
        <mxCell id="-XtP8Va-9KeHgSvp5jP7-6" value="" style="shape=module;jettyWidth=8;jettyHeight=4;fillColor=#bac8d3;strokeColor=#23445d;" parent="-XtP8Va-9KeHgSvp5jP7-5" vertex="1">
          <mxGeometry x="1" width="20" height="20" relative="1" as="geometry">
            <mxPoint x="-27" y="7" as="offset" />
          </mxGeometry>
        </mxCell>
        <mxCell id="-XtP8Va-9KeHgSvp5jP7-7" value="«COMPONENT»&lt;br&gt;&lt;b&gt;Get/Post&lt;br&gt;Requests&lt;br&gt;&lt;/b&gt;" style="html=1;dropTarget=0;strokeColor=#6c8ebf;fillColor=#dae8fc;" parent="1" vertex="1">
          <mxGeometry x="369" y="196.25" width="180" height="90" as="geometry" />
        </mxCell>
        <mxCell id="-XtP8Va-9KeHgSvp5jP7-8" value="" style="shape=module;jettyWidth=8;jettyHeight=4;fillColor=#bac8d3;strokeColor=#23445d;" parent="-XtP8Va-9KeHgSvp5jP7-7" vertex="1">
          <mxGeometry x="1" width="20" height="20" relative="1" as="geometry">
            <mxPoint x="-27" y="7" as="offset" />
          </mxGeometry>
        </mxCell>
        <mxCell id="-XtP8Va-9KeHgSvp5jP7-9" value="«COMPONENT»&lt;br&gt;&lt;b&gt;User Directory&lt;br&gt;&lt;/b&gt;" style="html=1;dropTarget=0;strokeColor=#6c8ebf;fillColor=#dae8fc;" parent="1" vertex="1">
          <mxGeometry x="249" y="666.25" width="180" height="90" as="geometry" />
        </mxCell>
        <mxCell id="-XtP8Va-9KeHgSvp5jP7-10" value="" style="shape=module;jettyWidth=8;jettyHeight=4;fillColor=#bac8d3;strokeColor=#23445d;" parent="-XtP8Va-9KeHgSvp5jP7-9" vertex="1">
          <mxGeometry x="1" width="20" height="20" relative="1" as="geometry">
            <mxPoint x="-27" y="7" as="offset" />
          </mxGeometry>
        </mxCell>
        <mxCell id="-XtP8Va-9KeHgSvp5jP7-11" value="«COMPONENT»&lt;br&gt;&lt;b&gt;Administrator Directory&lt;br&gt;&lt;/b&gt;" style="html=1;dropTarget=0;strokeColor=#6c8ebf;fillColor=#dae8fc;" parent="1" vertex="1">
          <mxGeometry x="1269" y="226.25" width="180" height="90" as="geometry" />
        </mxCell>
        <mxCell id="-XtP8Va-9KeHgSvp5jP7-12" value="" style="shape=module;jettyWidth=8;jettyHeight=4;fillColor=#bac8d3;strokeColor=#23445d;" parent="-XtP8Va-9KeHgSvp5jP7-11" vertex="1">
          <mxGeometry x="1" width="20" height="20" relative="1" as="geometry">
            <mxPoint x="-27" y="7" as="offset" />
          </mxGeometry>
        </mxCell>
        <mxCell id="-XtP8Va-9KeHgSvp5jP7-13" value="«COMPONENT»&lt;br&gt;&lt;b&gt;DBMS&lt;br&gt;&lt;/b&gt;" style="html=1;dropTarget=0;strokeColor=#6c8ebf;fillColor=#dae8fc;" parent="1" vertex="1">
          <mxGeometry x="974" y="766.25" width="180" height="90" as="geometry" />
        </mxCell>
        <mxCell id="-XtP8Va-9KeHgSvp5jP7-14" value="" style="shape=module;jettyWidth=8;jettyHeight=4;fillColor=#bac8d3;strokeColor=#23445d;" parent="-XtP8Va-9KeHgSvp5jP7-13" vertex="1">
          <mxGeometry x="1" width="20" height="20" relative="1" as="geometry">
            <mxPoint x="-27" y="7" as="offset" />
          </mxGeometry>
        </mxCell>
        <mxCell id="-XtP8Va-9KeHgSvp5jP7-15" value="" style="endArrow=none;html=1;exitX=1;exitY=0.5;exitDx=0;exitDy=0;entryX=0.5;entryY=1;entryDx=0;entryDy=0;" parent="1" source="-XtP8Va-9KeHgSvp5jP7-2" target="-XtP8Va-9KeHgSvp5jP7-7" edge="1">
          <mxGeometry width="50" height="50" relative="1" as="geometry">
            <mxPoint x="462" y="406.25" as="sourcePoint" />
            <mxPoint x="512" y="356.25" as="targetPoint" />
          </mxGeometry>
        </mxCell>
        <mxCell id="-XtP8Va-9KeHgSvp5jP7-16" value="" style="endArrow=none;html=1;entryX=0.5;entryY=0;entryDx=0;entryDy=0;exitX=0.5;exitY=1;exitDx=0;exitDy=0;" parent="1" source="-XtP8Va-9KeHgSvp5jP7-7" target="-XtP8Va-9KeHgSvp5jP7-18" edge="1">
          <mxGeometry width="50" height="50" relative="1" as="geometry">
            <mxPoint x="234" y="486.25" as="sourcePoint" />
            <mxPoint x="453.0000000000002" y="611.25" as="targetPoint" />
          </mxGeometry>
        </mxCell>
        <mxCell id="-XtP8Va-9KeHgSvp5jP7-17" value="Application/Business Logic" style="swimlane;strokeColor=#6c8ebf;fillColor=#dae8fc;html=1;" parent="1" vertex="1">
          <mxGeometry x="514" y="346.25" width="780" height="290" as="geometry" />
        </mxCell>
        <mxCell id="-XtP8Va-9KeHgSvp5jP7-18" value="«COMPONENT»&lt;br&gt;&lt;b&gt;Authentication&lt;br&gt;&lt;/b&gt;" style="html=1;dropTarget=0;strokeColor=#6c8ebf;fillColor=#dae8fc;" parent="-XtP8Va-9KeHgSvp5jP7-17" vertex="1">
          <mxGeometry x="140" y="180" width="180" height="90" as="geometry" />
        </mxCell>
        <mxCell id="-XtP8Va-9KeHgSvp5jP7-19" value="" style="shape=module;jettyWidth=8;jettyHeight=4;fillColor=#bac8d3;strokeColor=#23445d;" parent="-XtP8Va-9KeHgSvp5jP7-18" vertex="1">
          <mxGeometry x="1" width="20" height="20" relative="1" as="geometry">
            <mxPoint x="-27" y="7" as="offset" />
          </mxGeometry>
        </mxCell>
        <mxCell id="-XtP8Va-9KeHgSvp5jP7-20" value="«COMPONENT»&lt;br&gt;&lt;b&gt;Selection or Creation&lt;br&gt;Data&amp;nbsp;&lt;br&gt;&lt;/b&gt;" style="html=1;dropTarget=0;strokeColor=#6c8ebf;fillColor=#dae8fc;" parent="-XtP8Va-9KeHgSvp5jP7-17" vertex="1">
          <mxGeometry x="480" y="180" width="180" height="90" as="geometry" />
        </mxCell>
        <mxCell id="-XtP8Va-9KeHgSvp5jP7-21" value="" style="shape=module;jettyWidth=8;jettyHeight=4;fillColor=#bac8d3;strokeColor=#23445d;" parent="-XtP8Va-9KeHgSvp5jP7-20" vertex="1">
          <mxGeometry x="1" width="20" height="20" relative="1" as="geometry">
            <mxPoint x="-27" y="7" as="offset" />
          </mxGeometry>
        </mxCell>
        <mxCell id="-XtP8Va-9KeHgSvp5jP7-22" value="«COMPONENT»&lt;br&gt;&lt;b&gt;More Functionalities&lt;br&gt;&lt;/b&gt;" style="html=1;dropTarget=0;strokeColor=#6c8ebf;fillColor=#dae8fc;" parent="-XtP8Va-9KeHgSvp5jP7-17" vertex="1">
          <mxGeometry x="300" y="40" width="180" height="90" as="geometry" />
        </mxCell>
        <mxCell id="-XtP8Va-9KeHgSvp5jP7-23" value="" style="shape=module;jettyWidth=8;jettyHeight=4;fillColor=#bac8d3;strokeColor=#23445d;" parent="-XtP8Va-9KeHgSvp5jP7-22" vertex="1">
          <mxGeometry x="1" width="20" height="20" relative="1" as="geometry">
            <mxPoint x="-27" y="7" as="offset" />
          </mxGeometry>
        </mxCell>
        <mxCell id="-XtP8Va-9KeHgSvp5jP7-24" value="" style="endArrow=none;html=1;exitX=0.5;exitY=1;exitDx=0;exitDy=0;entryX=0.5;entryY=0;entryDx=0;entryDy=0;" parent="-XtP8Va-9KeHgSvp5jP7-17" source="-XtP8Va-9KeHgSvp5jP7-22" target="-XtP8Va-9KeHgSvp5jP7-20" edge="1">
          <mxGeometry width="50" height="50" relative="1" as="geometry">
            <mxPoint x="310" y="440" as="sourcePoint" />
            <mxPoint x="529.0000000000002" y="565" as="targetPoint" />
          </mxGeometry>
        </mxCell>
        <mxCell id="-XtP8Va-9KeHgSvp5jP7-25" value="" style="endArrow=none;html=1;exitX=0.5;exitY=1;exitDx=0;exitDy=0;entryX=0.5;entryY=0;entryDx=0;entryDy=0;" parent="1" source="-XtP8Va-9KeHgSvp5jP7-7" target="-XtP8Va-9KeHgSvp5jP7-9" edge="1">
          <mxGeometry width="50" height="50" relative="1" as="geometry">
            <mxPoint x="414" y="376.25" as="sourcePoint" />
            <mxPoint x="374" y="536.25" as="targetPoint" />
          </mxGeometry>
        </mxCell>
        <mxCell id="-XtP8Va-9KeHgSvp5jP7-26" value="" style="endArrow=none;html=1;exitX=1;exitY=0.5;exitDx=0;exitDy=0;entryX=0;entryY=0.5;entryDx=0;entryDy=0;" parent="1" source="-XtP8Va-9KeHgSvp5jP7-9" target="-XtP8Va-9KeHgSvp5jP7-18" edge="1">
          <mxGeometry width="50" height="50" relative="1" as="geometry">
            <mxPoint x="444" y="766.25" as="sourcePoint" />
            <mxPoint x="663.0000000000002" y="891.25" as="targetPoint" />
          </mxGeometry>
        </mxCell>
        <mxCell id="-XtP8Va-9KeHgSvp5jP7-27" value="" style="endArrow=none;html=1;exitX=1;exitY=0.5;exitDx=0;exitDy=0;entryX=0.5;entryY=1;entryDx=0;entryDy=0;" parent="1" source="-XtP8Va-9KeHgSvp5jP7-18" target="-XtP8Va-9KeHgSvp5jP7-11" edge="1">
          <mxGeometry width="50" height="50" relative="1" as="geometry">
            <mxPoint x="644" y="786.25" as="sourcePoint" />
            <mxPoint x="664" y="736.25" as="targetPoint" />
          </mxGeometry>
        </mxCell>
        <mxCell id="-XtP8Va-9KeHgSvp5jP7-28" value="" style="endArrow=none;html=1;exitX=0.5;exitY=0;exitDx=0;exitDy=0;entryX=0;entryY=0.5;entryDx=0;entryDy=0;" parent="1" source="-XtP8Va-9KeHgSvp5jP7-9" target="-XtP8Va-9KeHgSvp5jP7-22" edge="1">
          <mxGeometry width="50" height="50" relative="1" as="geometry">
            <mxPoint x="274" y="466.25" as="sourcePoint" />
            <mxPoint x="493.0000000000002" y="591.25" as="targetPoint" />
          </mxGeometry>
        </mxCell>
        <mxCell id="-XtP8Va-9KeHgSvp5jP7-29" value="" style="endArrow=none;html=1;exitX=0.5;exitY=1;exitDx=0;exitDy=0;entryX=1;entryY=0.5;entryDx=0;entryDy=0;" parent="1" source="-XtP8Va-9KeHgSvp5jP7-11" target="-XtP8Va-9KeHgSvp5jP7-22" edge="1">
          <mxGeometry width="50" height="50" relative="1" as="geometry">
            <mxPoint x="874" y="726.25" as="sourcePoint" />
            <mxPoint x="1093.0000000000002" y="851.25" as="targetPoint" />
          </mxGeometry>
        </mxCell>
        <mxCell id="-XtP8Va-9KeHgSvp5jP7-30" value="" style="endArrow=none;html=1;exitX=0.5;exitY=1;exitDx=0;exitDy=0;entryX=0;entryY=0.5;entryDx=0;entryDy=0;" parent="1" source="-XtP8Va-9KeHgSvp5jP7-7" target="-XtP8Va-9KeHgSvp5jP7-22" edge="1">
          <mxGeometry width="50" height="50" relative="1" as="geometry">
            <mxPoint x="684" y="236.25" as="sourcePoint" />
            <mxPoint x="903.0000000000002" y="361.25" as="targetPoint" />
          </mxGeometry>
        </mxCell>
        <mxCell id="-XtP8Va-9KeHgSvp5jP7-31" value="" style="endArrow=none;html=1;exitX=1;exitY=0.5;exitDx=0;exitDy=0;entryX=0.5;entryY=1;entryDx=0;entryDy=0;" parent="1" source="-XtP8Va-9KeHgSvp5jP7-9" target="-XtP8Va-9KeHgSvp5jP7-20" edge="1">
          <mxGeometry width="50" height="50" relative="1" as="geometry">
            <mxPoint x="594" y="806.25" as="sourcePoint" />
            <mxPoint x="813.0000000000002" y="931.25" as="targetPoint" />
          </mxGeometry>
        </mxCell>
        <mxCell id="-XtP8Va-9KeHgSvp5jP7-32" value="" style="endArrow=none;html=1;exitX=0.5;exitY=1;exitDx=0;exitDy=0;entryX=0.5;entryY=0;entryDx=0;entryDy=0;" parent="1" source="-XtP8Va-9KeHgSvp5jP7-11" target="-XtP8Va-9KeHgSvp5jP7-20" edge="1">
          <mxGeometry width="50" height="50" relative="1" as="geometry">
            <mxPoint x="1064" y="226.25" as="sourcePoint" />
            <mxPoint x="1283.0000000000002" y="351.25" as="targetPoint" />
          </mxGeometry>
        </mxCell>
        <mxCell id="-XtP8Va-9KeHgSvp5jP7-33" value="" style="endArrow=none;html=1;exitX=0.5;exitY=1;exitDx=0;exitDy=0;entryX=0.5;entryY=0;entryDx=0;entryDy=0;" parent="1" source="-XtP8Va-9KeHgSvp5jP7-20" target="-XtP8Va-9KeHgSvp5jP7-13" edge="1">
          <mxGeometry width="50" height="50" relative="1" as="geometry">
            <mxPoint x="1174" y="726.25" as="sourcePoint" />
            <mxPoint x="1393.0000000000002" y="851.25" as="targetPoint" />
          </mxGeometry>
        </mxCell>
        <mxCell id="-XtP8Va-9KeHgSvp5jP7-36" value="" style="image;html=1;image=img/lib/clip_art/people/Worker_Woman_128x128.png" parent="1" vertex="1">
          <mxGeometry x="1470" y="256.25" width="80" height="80" as="geometry" />
        </mxCell>
        <mxCell id="ux6ES7SmQOuETatRvcEZ-3" value="" style="shape=image;verticalLabelPosition=bottom;labelBackgroundColor=#ffffff;verticalAlign=top;aspect=fixed;imageAspect=0;image=data:image/png,iVBORw0KGgoAAAANSUhEUgAAAOEAAADhCAYAAAA+s9J6AABkWElEQVR4Xu19B2Ac1bX2bNeq92pb7r33SrEx3YAJCRBCIOEREkIg/0slL3npLyEEEkggQAgt1IDp3QVsgwvuvVu25CLJstW12v5/3+wesdgr7a52V15JMzBeSTtz586597vn3FMVRTs0CmgU0CigUUCjgEYBjQIaBTQKaBTQKKBRQKOARgGNAhoFNApoFNAooFFAo4BGAY0CGgU0CmgU0CigUUCjgEYBjQIaBcKnwMaNG/XhX61dmYgU0CVip7Q+Kcru3bsNBw8ezK2trU1pbGxMOnnyZAp+zqmvr89ramrKbW5uzmxtbU3BaTGbzba0tLSazMzM41lZWZU4G1JTU+0Wi8VWWlrakJube2ratGl2ja6JSQENhAk0LmvXrs0DZyvcsWPH4PLy8ml1dXX9W1pasl0uV7rT6UzX6XRJJhxGo9GEn01er1dnt9vJCT04nfidpwM/2/HZhM8GghMgPNSnT591ffv2PYSzbsCAATVz5sypS6BX79Vd0UB4lof/qaee6g/wTfnkk0/mV1dXD0tJSUnLyMjINhgM6QBfMn43AYB6/Kz2FH9X9Hq9ApApHo9H/QQg1e/4GXjiT15wTAKzBfc3ArCN+PkEOGZlSUnJ3ry8vHUXX3zxpuuuu+7IWSZDr368BsKzMPxLlixJB8cbsHPnznn4vATAGZiUlJSVnJxsBViSAByFoAPTU9xut3oScAQfuKAKRIKPf4coqv7c3sl7eI20BSB6AWobntmM7+pw7h47duzrONcMGzas/LLLLiMH1Y4upIAGwi4k9rvvvpuzcuXKkZ999tk3jh07NgGPLgH4sgEwg3A5cjIBGD8hTqqA5MnfCSoCkr8DTArub+N+bIPfB3JFiLPq34SDynf8G08A3o72TqDtI+CO62bOnPnC5MmT911++eU1XUiaXv0oDYRdMPwff/xx8jPPPDNt9erVN+Bx06Ew6QculkZgEHTkUgQYQcVP+d3hcCi4to0T8lrew4NckEAkCIULingqn7wO3FUFbeDfArmmgJHPBJeF7qf2aENDw9bZs2c/+1//9V8rL7jgAo0zxnmOaCCMM4HvvffeEuz5vg5ly5cwyQeBs2USbAQQxUT+nIBHA/p0GOeHl1xyyeO///3vdydgH3tMlzQQxmkoN23aZH7wwQfnHDhw4A6YGCaDq/UhV+OejgAkZ+LP/Ezgoxoccgs0q08uWLDgvZtvvrkugfvabbumgTAOQ/fKK69kPfbYYzcdPXr0q1CEjIBImEquJ0oWgo8nD9F6xqEbMWkSe0qy6n1FRUVvXnXVVX+/6667jsakYa2RNgpoIIzxZID4mfvee+/deerUqWup9QT3M3IfR7DZbDZ1D2i1WtW9Hfd8BGYiHzD8K7BXUmwux17yrdtuu+0Pd9xxhwbEGA6a5vIUQ2I+99xzfV588cX/BQf8OjjfUADNyD0fwQeOqAKPihR+8u/8W6If1K6y//DAoTJpAeyad73wwguFid7v7tQ/DYQxGi1wwH6/+c1v/hcTdmFOTk5pTU1NG9i47yMHpCaSHBGuZuqnaDpj1IW4NEMuSDMJtKZKdnZ2CVzmLn/yyScXbtmyRZOiYkRxDYQxIOR9991XtHjx4p8BZJcCWH0ILigzVG5HZQzFT37SNEDwJboIGkgS9hteOyrXxuJhKCgoGHD48OGr/vOf/wyLAem0JkABDYRRToMPPvigCOePKysrL09PTy8BF1RgZ1M5BwHHySugE5sgRVIe4CpRPj3+t9N+eOjQIaW4uFjl5BBPk7CojF23bt0COB1Y4t+Dnv8En4pOOzpFgTVr1qTcfvvt38PNV0LbWULOx5OcMFDUDNSAkhtSIcODYl6iH+wvfE0VmFnanAgAxEIsIPOffvrpD9H/LYn+DoneP40TRjFCb731Fl3PLsJZGkUzCX2raHDF7U2USxBNhyDcakZCd76bdE4DYScHCob4AcuWLftv3D4SZ4+mI7khDyqYKFpznwjunrVv377Jr776akYnSajd5qdAj5488RrlvXv36l966aXboAmdhmf4Nng99KCTAQ9RKolZBeK3FYAs3L59e24PffUuey0NhJ0g9RtvvDESQbez4AnT4+1lEqtIMkmEBjkiwGnGXjEPEf8aCDsxhwJv0UAYIQHhjJ3+0Ucf3Qib2QgG20Z4e7e7nEolid6gppSaXQkqhpa0BCFZE+kn2+1eLIE63OMnUaxpjX3gIJgj5mJflCNazlg/I5Ha83M9tUuBml/+jPfPh3fQgrfffpsKKu3oJAU0EEZAuK1btybDNnYjQ5LgG6qq7Hv6QW0oFTEEI13YxPuHIISG1IRz+qJFi+74xS9+Maqn0yJe76eBMALKIiq+GG5ck2Ezy6LtLMHDkCJ4s44vJfh4MECY2lEqZ7gAwZ+UP2fh5/lvvvnm9/76178OiNlDe1FDGggjGGx4icyET2hfcgaJfo/g9h55qT/fTQFe7oIVK1Zc/M477yT3yBeN40tpIIyAuJs3bz4f+6A8TjxyhEDNYQTN9KhLacLgCWXNAJgrvgof2rE96gW74GU0EIZJZEyuwbALDoJ/aAoByEgIUdmH2USPvIwLkT+HDcihHw1XvhuhqNHMFhGMtgbCMIm1YcOGvlDPF0l2Mw2AnxOOzur+PWPmiRMnZsKhfUSYZNUuAwU0EIY5DeAlMxWXZlNJwf0gw5N6i2KmIxJxf0ypgEoaHvjsu2rVqsvDJKt2mQbC8ObAtm3bMpAdeyLT0YumMDDzdXit9MyraMyn1pT7ZC5KzCCOXKbDEX3ft2e+cezfSuOEYdAU8XS5AF8xRFAj90CceMySrYmkikJ7KUHIGEouTDBZmMENB8Ke2icM0mqXaJwwvDlw5MiRFHDCNIJOkulKVuvwWui5VzHqnsHJgTGUENfzkeqR4rt2hEEBjROGQSRoRZOxyluYplAKsYj/ZBi39+hLpM6FSAXUHMOMkwbJYdinn36a1aNfPkYvp4EwDEJC1GLMnApCHlKcRVPMKKqSikAUm6kfhFZ4FfVDLpr0MMjb6y/RQBjGFAAIczDJzJKyIrAwSxi39+hLZCEi+AJrXGBvmF1RUZH4+TsSYHS0HDNhDAKUMFn+opxtqQvFSN3bvWboR3p67UR/5agMRJtoIAxjfmmcMAwiYaJRKWPiZAtUyEjahzCa6LGXSCY5ia6gtOAX21OhzCrusS8ewxfTQBiCmHv27NFhglEUNTB+UEAo5cZiOBbdsikBndBFEkKx2Cmc3TUzRRijqoEwBJEAPAYNmiF2qiWrJcpc44I+wlExw1NMFFLkFLQyYy+dD3c/bY6FmGPanjAEgQg2aPoycZmRLlqS6CiwYGcYi12PvYTBvVKAlD8HpL4w1NfXZ1VVVTH1RWuPJUAMXkxbpcIjIsvjarUXwqOVXMW5ZcSeUVvoQ9BNA2HoicWkm6STBsLQtAq8gjQzQCzV5pgGwshmTpCrNRB2joRctEy9ISNd58jz+V3aKhUeBTmhNE4YHq2+II5iv6jNMY0TRjZzglwt4NNAGBkpSS9tLx0GzbRVKgwi+bmgBsLwaBV4lU4L9wpNNA2EoWnkq4aiiaOhKXXmFV6YcjydubE33aOBMMRoU7sH31ELjPY65pehTYwxhTzoQcO0DlztGUlAg7UkyOW1NO6LMZvXSIIohEa5YW90QGmBP6mhP6oTANsKTJvB+oWSYFgcpWmLY7sS0cH7OzrZHk/aO1l7XrLEibMB+uVG2zb0oRFnC3528d2kAAzfiwHMtJHymUxlwU+ekvZRSoHzHrbPvoIWXtDAgXdS29OO9img2XBCzA6AyhhYc54/c1JysnESEnScqKztTqAVFRWpBTUZcc7qtgx4BWiacd9RTMgjhYWFx/Ly8g7hXhuAmIIkSfn4Lgd+lkWIOijEhC7B9ya2hb8pyO72hRhGPosgJHA56QWM7b0GDOZq/Qg5AWIXnncK7RzG38rRx6MIzK3E7y14pySmdET/Bxw/frwEZz6eVZKRkWHme9NRAX1TgYiETkq/fv3U1PgdHC4sWG4NgB1TQANhiBkye/bsliuvvBLzz64Cjod4hfijBVQOw0lOUBB8BAY5x8GDBxvx9y2jRo1aNWXKlPdHjBhR0bdv39qsrKx6NOPBfWYCGUDMxLVZKKwybMuWLdegyMp0tD0IRWfaOJdEa7Bt/kwQ8hmh3OekRDevQwWlY2h37cSJE5fgvT4rLS2tBqgaUOK7afDgwa79+/cbsWhY8Q7pSGyVh/qDw/B5Bc4ZANsAcma+K9viz+I91A4JKWXpcZ0GwhBzTANhCAKhDuHgJ554YjAvI/cj8MRXkr9TBCW346Tkz5jo6vfgHkdxywdf+9rXHsek3ztv3ryTQR4l7lyV+I7nLpRd24hzFgB5MxygzwEnSZL4ReF+fA7BRRCGqnsPwKscFf3eMW7cuGfnzp37+pw5c/aPGTPmDDGRQEQfGv3nUeQQ3YnFYfPLL7985Y4dO64GECfinU0Ubyk6E5AdHJxb/ZC1fCDfS+OG7VNA0/h1MDuee+65/k899dSPkWPmOky8LE4+imICAomkkPoMFB0JDHC2g0OGDHnqK1/5ytPXXXddeWcm4KOPPjoW9R3uBoAWoP0U7kP5bAKSXJdiIIEQCoT+8KvPpk2b9tebbrrp/alTp/qShEZwrF69OhWL0fxPPvnke7htNk4a4dW9ZojKVCdAjyfvuOOOP99www0nInhkr7pUU8y0M9xIYJsJDnAdRLJLWRpaRE8J2RFFiygiRGmB/eKxAQMGPHPFFVf8q7MAZJduu+22reCiv0HhmcVo0yH7UIqA5EDMbsakuwRBRydEy00XXXTR77773e8u6gwA2ZcZM2Y0oS/vgIv+BXvHdVwMRPEUAi15KJ02/z//+c981HSkzVA7glBAA2E70+Ldd9+dhD3S1bm5uaWswESwcfJLxAA/JaKcTZArQESsh1j6/qWXXvrszTfffCzaGXf99dfvOvfcc/8ILrgSQKsBB25hWCO4oQP9oehox8k9F3/mSS0J/9aMsxrnp+edd94Dl1122YqRI0c6ounP5MmTHQsXLlyKdp7AArSP0kCIPaH6OOw3R5aVlV2DRW1INM/vyfdq4miQ0V2yZEnab37zmz/iqxug9cwQswGBJyYFCV6leEixkFpIXPfpNddc8+Of/vSnq2I5ae68887zwVFmYDGgScOIZ5rBjSz4vR4ckqmvacvkSZscgUgNUgPOirvuumsFlEIdbt4i6evrr7/e9/777/8VUhpeC01vSijFELkmjirsTR/41a9+9df58+fHrC+R9DuRr9UUM0FGZ9euXcUQ48ZBxMygmBmohqcYSlEs8OD32Ps0gQtuuuCCC7bFesAffPDBj6Dg+BRg6pCbIVO4HtzYO3r0aHEwUJ599tmYdueqq66q+OMf//js448/PgUcegzF5I4O0g+LVwEWjzkoNf4fXHsgph3qAY1pIAwyiMi4PRSTudhfe6/DYRZtKcwXlWPHjl0CsY3axZgfoQDIB0Lj2SXeKYMGDdoDG+FGcP/heGyH5Ypp1/Q7GAxAgG+JBsIzp4a2JwzOCacDhLmhDOG8lSD0R9kfnzVrVtxV8bAjnjFmSDlvRBoJE8wIup07d+ph3ojruH75y18+hr3hEiw8NaFWG5prSEfsn3OxNxwd6vre+L3GCYOMenl5+SBMHGuo/Q5v5TXY93hg9D4KO1vISRnNJIOqf/4vf/nL2TB9WNE/N5Q1rPvQ+sADD6jyMRYEByZ7E0S/XY888sjSb3/723QKiMvRv3///WiYXL+oowcIDfGZjH3t0Lh0pps3qoEwyABihc+A0oNR4SGHl8oauHk1Yx+2DfvCuCkdPv74YxP2YuOgELkBe7ECgJApGPVwOXNjEWAaCXJkuqSdwIR/debMmZ+h83EDIfa/Ldgbh8wdQxr63f6MoFNOSIL2wgviKrZ0V3qKQ3IIv0j19bjS4zo7OFI1Jlxo1EZBFAAtFRrYbAAvFYDnYcLzk/BYI080nYTv8ylKQwyMq+abjt94foeOo3xV0Sjjej1TR0bx+j32Vg2EQYYWChm3ZNgOZ+Qx4Y3QEqaEs4cMp71g18De50T7jEwwE/jUSvIUJ26pCYFPEyZ7Et4hrmPrj+po08K2916BkRa4Jq4LQ2dpe7bvi+tAne2Xi+L5BKEnnD0hwQruY4H3ShE4Q9wmGcRRA5wFMvx2QlUZJFEcEp5Ezxm4senhTcNCLPHmOhTXQ3rBSCgWaMkjbvSJYqzP+q0aCIMMAfd22Gd5pQR0KMUDJC0zgJCL6Ie47XlgNsnDM/IYWiWO3BLzRw0tPFNUn1YCEkqiPuvXry+N5+xCKBPLn/lqZHdw0InBL7Z7YbCvC3V9b/xeA2GQUcckPgZxyx4OJ6TDNk4Dog0GQ2kSNxAC4NmM7UN3DeSCElQrAbv0TOGWlH0GSHPADVktNy7jC6O7AU7d5+O980KBRuyouM6Zn59/JNT1vfH7uAxSdyfkwIEDN2OiN4azx5NICkz80uXLl4+N17tv3rx5Ap7Rn6AntyPgxHWOfZAIC7+HSiaiL6aBG/aLR3/gU9sXHkXTALCQ9QfZH/YT/W0EXXfHoz/dvU0NhEFGEJNlLyZYnexnQomjdOyGH2Xhxo0bL0fIT0GsJ8VDDz3UB650lwF8xQxpEjFU/Fj5u0T/+43jZsQ1Tlm5cuWEWPeF7S1btmwyQDUMombI+eNfFKhBrkN0icYJgwxISCLGYxATvU3gqRard63f+bjD7gZ4zCRhjzRq1apV42L9fosXL74Ak3gGuLNFfFcphkpuGQKPIqqEVfF3XD8QFaUueeaZZ2JangwxjkUI9l0IEPZh/GSog/0i14b7Wk2fPn3i6swQqi+J+r0GwiAjg71LHSLjy2FcDqmCp5mAgGBaC3wOhaP1N++5554xsRrw73//++N37979VfSnlACUtBaM5OchiaQkyZKYKsGBUsChz1+0aNHF4M4psejP0qVLk1588cXL0NYULFLW0x3Zgz2DCwP65kTund0lJSUaCDVOGN5UvPzyy6vggvY+VvGQ0eCMqRMuhNU+CWLgfIT7fB+RD3Rujur4wx/+MATR7D8C0GaIep8g5DMlQ5s4mROEkhGNoinBid8HIyj5lrfffnseAmt9KeI6eaxYscICMF8GkfsWOAsMIdi58IQ62E8sCFVDhw798JxzzgmW4iNUEz3+e40TtjPEiBTYhMnGPDEdHtyjERQUzQhGaFazYau7AiFEP/773/8+ItT97X3/ox/9aAJy2/wWbV2KNlOZzY1chQdTWjCqnocEF/PZ6K/KleUgEGEWmApt5k/Rn2uef/75TmlvEeCci/jKO6Ft/QnMNpMlvw2DnUMd9DpCP44gwdWeUNf21u8142k7I49I8Fxwovsx2b9KEwQnPsUvSXNBcZCpDTs4iJIPERn/OBIs7UGkfUWoSQa1vw7nQIi0MxFxcDPan4ZnRyVKkjsyFQbAuhPZ1Z5DpMc7yLS25/zzzw/p98n+Anzj0J+rkHHterQ1jIsNgcWFJ3Avyv0zaUO6UBkjSbCgvLEja9zTP//5z+9GsqvQrDMUkXrg9xoIOxjU22+/fQFA8XdMtn4Uq8hlGB9HQErmtRBzgrlF92FSbsaeaCWyrn2KfC1VCxYsaJuMUOQYYV9kRdt+CMq9ADF3M9D2aAC+HwEUIpFSyClJrsU+k2MCENXYJ27Dnnf9hAkT3kUqxsOIvD8sjUCbqpYzQ2KrPHjoDPv000+vAXcdiX3vCPSpgFyfwGOf/AmkVO4vC5M/6a+YJCSO8DDE0B8+9thjr4TsbC+9QANhBwOPbGulSMnwGCbZhRT1pCQ0JyHNEvybZMZurxm/ir4Vk7gG+7YDaKsc7dTh705MYB1+tmCS90V7AzHBi9FmVkDSqDOi+COdp5IjVRwP/A7V9QDRUfRpP0VFiJUNeC69hJLANTPxXSH6MBBnKfZ9mXxPsU/K4iPtsj2xBUp2cAG9X1JY8v/+3//7HhJNaTbCdgZPC2XqYFYjTd9hiG5rEAc3AWJWHicy92LCEUMBkE37FSeM9+vjP91oh7li6Juqg1mDPpjqOLA9Ubj4PXHaEg5HCj65Xlzc/IHHKicDSDLwLJ4jASYnrnEzNT9AqAeQ0GWDmpSY4CooKFA/CTBpS8RQiqR8PzmEK4p9Fe1VIwJ/OSSANm7b2ffoyfdpipkQo/ulL33pBfhlbqP4RfCRA/CQtA2hJgc5Jk9OWH/Eg4G+pvidXMeCvxnZLpP0wgzRlkyYSYSZaj7ag2BmXyVrN00qkjuVvrEAogkLQRL6mIJ+WJEW30zg8T1FGST959/YnvioEphsV8wj4k4nyiI8dxfSLb4FETxucZbR0icR7tdAGGIUIErthqfHIkzeI5xc4tQtHiqhBpETlQodOlhTaeH37VQ5Ev8mRWZE48lPXkNgEpTRHgQgD7bJZzG1vqRwRIbvtkzeIm5TicO/s9+ihBGtrJhiuKDw/UVEFS4u3NafI/U47IIfQhG0N9p36On3a+JoGCOMtPHvozjKPOxx8iWejxNTYuU6aoLKDHJRRhOQg/AeqeokfqfCYcT4LZxEKiCF0cV2LyGo+FwRKVlPg88jyLkI8Bnid0ogcpGh2EkQyjsK5yP4ROvJ92A7IpLyHQlCHrimFcqfVRdffPHryPytccEQA6hxwjBmOPJ+HoQ28VFMtL0SbU/OIpOuoyYk6JZcgwdBQGDIxKeoxzZFpBMAcOIH2vzC6GbQS8gJCUAChj8TaFwEAr1v+Bz5m2T3lsIvgdEZfADBJ2I530XiGkUs9f++H9LD06Dbzs72uzfdp4EwzNFGWvu1mMCLwaVO+fdSbfYyAoyTT2xnItpJdL74eIq5QEREgo8/i4qfQOTP4gUTTnqNUN0X527hupJugpyL7RNI/JmniJlS05Bti81POKDsLf3+oGp/ZW/IawHeaty/GPT6NFTftO99FNBAGOZMQOboetj3HsGkXo3YPhqg1TsFgGIC4OQU7hYOpwzz8Ql7GUEo3BJAbcL7r7r11lsfQykAzTAf5qhpIAyTULzsF7/4xd7p06ffD+61Eb96yDECEwQTdOJNEuecTxH0Or6XkrP6RV0vFp8d8BB6BCDUbIIRkF0DYQTE4qVf/epXV0Lj9w8Ezarp3CnCEXgiRqriBbiDiHERNt8tL/e78JUNGzbseVRvimkdjm5JkAg7rYEwQoJhpXciyuI9qPnfxspfJYoUAZ8oVKjpFNV+hI/oVpf7A4yPw5zx9o033rgIC1RcygB0K6JE2FkNhBESjJdfffXVNSih/TcEqb4CJcwpUcAINxQ3rnBy1HTi8Yl2C/d+76Ge4l9RLCZk1EmidT4R+qOBsJOjgPJnZaj79yDcslaKU7M0RRFVcsB0svnucpsT3jUfXXLJJX+95ZZbyrpLpxOtnxoIoxgRRFnshZvXIoDwaKD9kNpCfzBrFK13i1sPI1j336iPEfNycN3i7WPUSQ2EURISmbHXQEmzV+LoaIin+ULcz6JsPiFu5z6Xphjuc+UTorcX77gPDu4aAKMcJQ2EURIQ+8Jy+HjuQzOsiKS6fRGA9PvsCYoZSWTFd6NPKEVtfmKxaYKXzQH4h1ZGScJef7sGwiinACIE7KzVR02pRBEQfOQaPUUxE5BbtS3cCmQ7gqBgOmizNLd2REEBDYRREE9uhUi6DhN1u7iuEYB0B+sJhyQaFh9Rv5udHQ7an6E0OJ0WtCNKCmggjJKAvB2awUMomrkEotpJEd/outYT3NbE91SyufF98V7HoRV+6xvf+IZmkojB/NFAGAMisglwww8wOffTlY0ApDKjJ4BQbJ+yv4XW14u94GZoRTfFiHS9vhkNhDGaAog53A9uuBimimYJoJVoiRg94qw0QxD6M3qriiYsLDUIU3oTe2GNC8ZoRDQQxoiQKE9th+/k+wjeLeeekF4zEkMYo0ectWbED9Yvku5HTtb1SFthP2sd6mEP1kAYwwFduHDhavhQLgMHZEiPGk3PQ/LLSIIoCYCNRbxgDLsftCkuJDS5MOgXyqaTyC7w2bXXXqsF68aQ8BoIY0hMiGieb37zm48DfDslNQSbp+2Qk5l7RWpNJdq+O4irdD6gIwKzw+EdViF14aNIZuxLBa4dMaGABsKYkPHzRjBJNyPl++vkGtxLSd2IwORIkrMlxo+OS3NcMLh4gLPvGzFixAtw1dsVlwf14kY1EMZh8L/+9a//G9xjKUQ3t6TCIAi5t6JYR3G0uzh40/MHSa5q4Rn0Et5raRzI1eub1EAYhymAPdMRpHf4E4C2lUoa7gUlkxrFUe4FJdwpDo+PdZMu9H8tFDEvI2qkOtaNa+3B7qoRIX4UQNzhd1Fh96cQS/tIUU+CkHtB7hHJHSWZcPx6EV3L2BPuQkqP/0FVp9eia0m7uz0KaJwwjnMDHHERPEuegUtbDQFH8HE/SF9M7rX4twQ/qmCOeOrLX/7y8gTvZ7fungbCKIfv/fffL/if//mfiahi6yudG3AAhJU4/4GKTC8CcC3+wp3qfpDa0wS3I9bhVd646aabnkUWgTMyp3300UeWH/7wh0NRgLQwShL2+ts1cbQTU2D9+vXpy5cvH4+qtbO2bNkyE4oW69ixY19EFafHgzX317/+dTC+ewB7wQshfhrJBamwoR1R0uQTkOSQkj4wELCd6GLbLQS7JP+VaAhxpzu9hgSv494VdTCaYe98GQD8NdJWHAr2/G9/+9sXL168+Dt4D+fo0aM/hLPCWhR+2Q8zTXM0/e2N92ogDHPUt2/fbtq5c+eINWvWTMHP81GvYRQ4WglEzExMdBfOLdgD3o1SakuCNYls1LNRsvq3EE9n43sj7W+IxVOLrsi+UNLf834CQlLXh9nFoJdRBA6sJyg+rVJBif0oLCxUzRAITubi0ILvlgJU//uPf/xjc7BG77nnnmn//ve/70N+nQm4z4yF5BT6Wob3WYvF6MOpU6fuuuaaaw5G0+/edK8GwhCjDbErH3XjJ0PsvP7gwYPDwbFKEDmfh0ln5OSW1PIon0bx8sOf/OQn30fav6C2tHvvvXfyCy+88FuYLi6ELVHPqktSWkxAId40Er0QreKG90tBT/aV7Qq3ldoYBCCBCJG5Dj9/CM3uPb/73e+Chim9+OKLA+6+++6HIWLPA4BNNGGwzzzRbjO4eyWeuRdVgTcPHjx4LTLTbUYOGq00WgfzTANhEOJAo2lC5dyBqJw78fXXX78BItpwnCWYaEmSMp63CYCkKCZAZR8yZMhLAOEfkP4vaALc3//+9+PeeOON30NLegFshhapcSgBwPyUk8+IFoT+mvGqmMn+cuGQOhjktPSGoYIIXPAUyrO9iT3sPT/+8Y+D9h2cvP/DDz/8K3Dva9C1FClmKun72VeJP8SzGkCXKvy+E9rVV5EG4zMY+w9MmTLF2Zu4XDjvqoEwgEoAXiFKRA9HjfZ54HrnYrINxN6oCBNZL2WruVcTDaeE9zDdA43wnNAAYhM4wIvXX3/9vSgyGrQs2F/+8pdRmNB3Y/JfhImbK10I3LOJOBoLDaqIoAJ0goWnaGjxrAMAzOvgWo+Ay+0PNnGWLFmSDk7+2/Ly8psQLZKBEt8q95RiNlLbIjDxMcEO+rnge3ocC9ge7B3fv/DCC1eOHz9+Dwrs+BxrtUOzE3IOgNuNeuutty787LPPLoKINQCAYn32DKmzIKXFhCsJp5JIenJCinRUtvhFvSbsjxZBefFr7BODpgJ8+eWX+77yyitX7tix4zZ0YRjaNhF4UnJMABltnhoRR6Wstb98t8oRcbbg961QqNwHDegKFEQNaoyHIkr/ne9852Fcfw3eMYcO3SxqilLaar4Z/swiOASiVBombQJLa/uLz9Tg+3K0sQf7xiVz585dDRPIQfyc8LaaeK4VvZYTYmUvqKqqGgiOdB2ANwkTaxAmaj4mrV7KVnPiUGspZdAEjDLBxN7HCUiORSUHgcjv0V4jAl+fweS9t6M90fe+9705lZWVXz5y5MhCTOg+BKHE7xHY4mnT2UnAvrAdgpH9JDAgCrOOxsHc3Ny3wJVegKJlXXvtY0+c9cADD9y+e/fuu7Aw5RFkdDwQLkoJQLKQ81mkF/svVZ7kmVJUlN+BTq3oQzWu3YX6ha9CRF03ZsyY/RBbe2X27l4HQpgWCjdt2jRs1apVN+/fv38SOEEpJlE6J4kUd+FEJXfjBJMJLMCT8KNArgXfSgU5V9RrpTy13/G5CYqLdwG0X4LLtFskBZrGEuwTz4O548tofxImbgn6ouOzoq1RyPcg5yII8T5uAL0C7a5HJMS/kQ3gMywS7WZLA7fu/69//esuLBDXQdQulCKh/CRtSDN6ALGPXHxIP3JGnqQDKwKTWxJ4smDxZ9KX9EEbLihyqvB5CL6pK5Cz5q1JkybtBhhrO7vodMf7egUIsYrrt27dOgQazvOx77sIIuMITPRSTNAk2evFa/AATDpxf0yN469//evFHT1n0aJFBQDjrM2bN18NTjIB9/UDeFI5qTnBCSgx9HMRkFqBwqFFUST2P058/6RvRj+OAhgbsRd7Bj6g6yEmn+ioL3/7298mP/jgg78H+GZRCRMv+ggoMSa1WBwOYdHagD6+A0BuhadOrzBz9HgQYiUfDqP6OeAyX8GqPQyrdj4mr5krOPdv0Yp7oSYngeFPCLwRnOceKD8WI01ghyv9hx9+mAkxcCD2qBeAi1FBNAJgLICSIwmTVk9OQmDC1KEgDX2bNjWwECh+ZpnqOly3nan6wWGW4LkHEHjcoRM29qgGcMAL0Ie7YQudg4Ugrl5VXFQIRFlQwGWb8XsVSnnvAiddBoeBRVgwerSJo0eCENwuGWLnkLVr1y6A6v0CTKYh4ATFUuZZwopo46IIGc+DIJeEueC++6AE+RdW+XdhCggrczU4UiG4+CA4CszAewxDW4XgaLkQ4VIBTKt//+rG35l8uBmgr8V3x8HB9uPZhyBuLoEW8wRy4HhDvScURSMee+yxb2GvvACAH4TnRS0Oh3qmVCsWG6bsL8HNXQBmJd5hHTjjs1hAtiC/axn2j55QbXa373sUCFeuXJmCcwhA+BWo0udR2YIJmyPqeE5YSdDLgRIjdjwHjZOKQOSnH/DNWOU3ARSPQET96Pzzzz8WyfNh7M/Du6UCKNba2lor2vZQNAXHcqBdG2pjtMARoAHth534FGaZXBjhz8M++Q5M/smgUQrBIdreSPoX6bXiridcXO4PyPxthyRxFN/vhQ32Y4RUvfHf//3fPaoIaY8AISaRCV4tIyC+fR32q/MAvoHgellYzVWxTfZSEsngT9eguozF24k60IAt5geKp+hTJbKWvQWj/oNQ01dAXOxyuxkUUwbQbOxTTz31vT179lwKEBdIkl8CG0BXbZ/xPDg2FK9FcSMeQwJKscviGifGsgaLxG7YYd+AxvmdO+64I6hNM579jUfb3R6Ef/rTnwZCkbEA3i1fAWcbAZtVFoFF8FErKJNKNHRiXOY1kvclHoSVNkW7Sa4rfZG69pho9DndASP2Moiob5xzzjmrkbHNEc/+SNsQO6e/8847C6G0ugia3RHoh5n0Iigk8p/0ibfiiv0JdCKQYOdAMIqt1J8WBJd7K7E4bMJQvwZJgtrniKSJrqBvJM/otiCEwqUPJtHFcDH7EgZuDEBWQq4T6HUiVXPJecgFCQiegdEK8U62RMDxGZxcFEfFjCEqfoqq8Dv1QFF0BJxxExynX8S5FSaNmGc0e++99wYh9GgyFFXXwDQwGhN9AJQfFvqw0p5HrkfpgAelCE7+WHjsdDQhCTaOB58VCDYumkIz8cIJNBMBiB78fgSL7RpEbjwOzrge7oLd0rTR7UC4evVqHQA4A1q8WzFh5mCC98WKbeZAcdUWzxBZzcVDJNDgzp95rdi7Ilm1Ir1W/CtlUgWmtiDn4d/ZHwEqNLan8C4HwRGXICLhUxRd2YuFoxHeJccjfTZolQaAZYNWAyB2nn/o0KG5WBToB5srYrI4Bgg3EjCQfl2RRdyfUFh9tUBPpEB6idcPtdnsl/jB8l4o15oqKirKsH9dDho9ev/992+PlE5n+/puBULY0XJfe+21i2BsvxUgGgfCZ3JQeuhBLWANvFrKAULWhN+Kn3fm5eWdxN6tDpOvAZPRAU5Wj8lpAWdLhzYzFaBLRzxgLn4vxd/7Yd83Bu30x1mM09jTaOVPSExzTS3mBG2Mj8IFbxn8ds8IRE7Ud+82MxjVYAfB1exOTLALMQEHMziWYma8FStne+BO25PRrYtp9hk4S9sK948OLES05Zlx0qiegt9T8ZlM0JGj9ORDth/kjlyUMCf2gz7vXnHFFQ//9re/7RYlvLsFCFEffgyiuH8JAM4G9ysgwYX40Yb6dKcJGhjiJOKjhEKJRMDPQOmgp9OHZhTuY0kH2n25aME2fBwO9EsRPvUHKO5ivreO9ZxJaBDChSsFDtbzDx8+/G2IGzNB5DTuU0h07ufEOTjWREmk9gKjEggusZ8J0LjnDIxBlGDgQI1jIr1PrPtC8IlGV+jDvSP23rVYrD+B5vm+J598MqETVSUsCN999930++6771tY1a6FyDkakyqJxJVoAIJRslrHemATqT1R3LBPpwNMlE3C/QI/eb24giXS+8S6LwShKJn4KfOCz4G2twn75K2wKz4Iz6FXFyxYkJABxXH1C+wswRHflwZ3rRthLL4BE2kiASgG3UATRE/f75B+XHj8sX+qh4+In/xORE1R8VPzKpHzvK+nVAvuaB5RJ0DgkTaSMYDmH/4df0uF4mrS3r1774JSb96yZcsMnZ2T8bwv4bRlIJT1oYce+jLU6rfAk2QktHx6SdEA7aDKDWiIF3eweBInEdoWn0r2RbxK5FP6JxwwUFSVv3Fy9uSDWxM6sXNvSEVdoMmDdML7W7CNmYRsCf+LeZMMz6rXsFcM6UfblTRLKHEU2k8jEgzdjCDXb8EbYjzsaCZJmCu5S7gHEjc02tmijbfrSmJ35lmBSpZQ5hjZBwY+J9jfOtOPRL1HssmRC0rOHC48IgXw/TlH8L0Li9Q6JKC6980330yobOIJJY7CiXjysWPHboQIMRrcT9Wtk4gkKj8l6FaCS0lc8UiRaG5ySHIEiVNjG7xPDM/ifcH2OHD+1bJtBeWgCveJt7dIOBM7UOlyWqhSm4ZY/n66giYRAEgaBo6fZA6QXKhilA8cZ/mOEpBEvIgCSuaEiOhiwpHCrPRIEsmJbVN5R0Di0wgRdTwcFuByesfEcGjfVdckDCdEgqESeHjcA2BcAQ6XRqKKm1KoPQHj6ngIl5S9FH8X/0cRy4SbyCY+MMJCIr7FW4TA7Q6FPLtqsnTmORxH0lDyzQiYCC4BWKDWVyJdOG68F5Ei6rjy4O8S+SKLbeAeOVj/eK9UwOK1EF8bIJ6+jYDhX2DOJUTQcEJwQuwBc6ANvQua0LmY+GkCkHBWcg4wiUyuKNxQwES7UeAE4CBycMU5mJ/cX0pBT34n/qcSwd6Ziafd8zkFuGUQ+hIQ/JkSSGC9RtKdHIv+qhxHjhn3eoxnFA4nijneJ5EV4SyQvIbjTG7IMcUz0uFVdN4HH3zwLTix5yXCWCUECBEjdx0G63JotYpIfDoSkwuFE3DLFZGDQo2YiC+8V/wN/SswN+J2DD4TDDlFrc1rOOh+7/y2hEUCwJ6u1OiKCRgIIuF+BAXHmIo28fGlUgVcz4bxrMc9dRjPZoyPh5xQQMxx8tsAv+Dw3dF7cE5I2g8pOYDtTjHyAl2J7c/VXUGDUM846+IoiqmMAAgfwAJ1LpQxZsawcUUk4VirIVSUAwEoMYMkMoHFlZWDip9PAHS7EOR6ABq0QxhwN4BlxUBnA+yMHC8BgXhm8j7ZDwbmFQ2HG4cicm/+XkTJ00VOvwRjB8gqAcYKZDXfi3ErAwBrQH8XEkQVAShDcV8p2uiP8elLbsk5wba4kIpOoCP6ynUcR+HK/pQmDizyyyGWfh/ubWfVq+asgvCJJ57IffTRR+8GMb+KwSikmpnEYoYuipKyWe+IyAQMRQ0x4kvqQax2GwC+F+BD+AG8Jo4gt2WdtIPEvkZ43heUlZUVwCQyHs8eD1F4OvaWA/HMHMmYJpEZvRlE0b67BFITjBK5gjGrxPjswRh/jCxry5F2sQJnJUK4mk5/HtItDkF+oMmIGb0Ni+0M3GcWZQ/nS6h4Ry6svF5SV4pGnb9j3KsB7CcQqf8nJGs+a2FQZ9VO+PHHH08FIeYynZ4oU7jacaWj2BGO+cGv+VLl/QCuuAFBsj+fN2/ep8j4fEYuy4EDB9J4dtR/bkRZs2SkxOiP6IyZ0J5RMTQMg1uC9uKWZSzayd1d7hcHe9CzEVypHNLOFth/me90HTxZjlx11VUdJv6966679mGeHMC8qEI85M/x3nMAaCMXSG5XRNRsjx5cyCXEjVsWSlk8/MqafMy/S9Auy4AHLeTTFXQ+a5wQKRVKoZD5EwB3GQiRgvCcL9Tt496QYkMoB2QSmDk/GZjq14RVwBb0l5///Of/QP7K1kiJ+Mwzz5Qg9o51KC6BOMS0gwPRBsOAGJmgHZFRoIEFYrCY7UMBmTVI4fExct/sRahRxGW3UQ1L97Of/exWcMPvYszHcm5IPGZHXSLYAmNKRTnEhZ4LPsTiFmxdXkPVrJ/Cte1IZK8Xm6vPGgiRcfkneIXvYIBKo3kVh22g4jHZwD1rFY/zhLdPduar//frP35ryrx5UceTffDy+wUffbR8aHn5obnlx47Mb3a09HPpXPlunceiN+oUszUJ8UJQFkDccbjglmjAvpLaVyMKr+D3VodvkVdtnIg2sphggzRA+PDbKB22ViU56ewy29qUVAX5CBSDG33EaXb7fjZ68LsXP6Pfbo9TcbodikuHpL0mg6IzIeepGZ943zoXSq/hPXROt2I1WHCf0mB2K1UZyakHcjPS106aMP6DqdMm7bvgywtqohln3vvp+x9Z//enP/iH3em9zmOwWlw6uKYZokvNQ04KUFdgjB5CVrt7ou1jZ+4/KyBE3bv+OB8BAM/Dy1s603G5x+sdonj0zYpXX6sk6ZuOzpk08af3Pfzks9G0efq9ny5bZd28dUvJzp3bBuwv239xdU3VHCRkGJacYk2vt9nbnAF4n8fp8+9UbY3+smRGTGTVHokJDs2Q+j0H36RH6WycZ/No8icRNnrRX5QmQQ0ARedCPDEXFSwWOo8bHMOqWJKRFkRBvtNWm9KCE9klVBAaId45HcxNodRZTdZd2ekZHw4oHfDx9EnTDo0dPeb4xJnjYuo39/1vfuMrWzZv/1OjUylFrWMsCGEnlQtKZnJU6AKoMV/y/e9//45bb721y22HZ2VPiBClKwC+0ZiYlmgLnrgY26qD54vOppiS9EcmTZ2wQXn4yZjO61lzZzKAlpm99q9eteKjT1YsH/HBe+8uxMp5bu7I4UW2Vnuey9acrYdDvxXczmpEThnW2gFHcWMuGw06xaiD1w44CDQEmK/eNj/QVndMuxpxY8kOXwIqMesQWOToisVXtUn1LPKifkVTg7rAeD0Q73C9UWd06b36E67GU4fcra1Vubn5n5173sw3Lrn0sr2zZpzjekT5W8R9CeeG8ZNHb1u/bWMlEpuXuvVuNXI5msPv/G4CDUbBdjgDbfV8EGLPVfznP/95Hl62gPu5UBvrUAR2ehoxueGR4bUrXoP+VP9B/doVezb9/vbLXMcqpxWX9N9ZPH7SJ7pLb4h4DzBj5jlc2Zm4d9uuDev0f3n+6Wk11ScGVh05dn5zfcMEiGOlVq8+ywBA6gBCa0q6ute1OR1Kk82hOMlBzBBbIcqasAorDRFvW0ORJKLvM3UwoGNRcIPzucEFnSq/wyJBAGIdEa0zRWl7c4vSUFdfp/d4yzOzczbBtLDiygXnrBg0fGj1jLkLG1au3KD87redk+gaX/rNxOoDe6Y31Dflp/UbuWTwd//wSbAXKRlYfMqtdzXqzehzDOQ4CY+DFrUQ6TIXQFex9Oabb263PkdExA3z4i7nhPCMmQrgsRSYkarjaEFoMLkUPTYhPvFIZ0tJTQ6aUvvEW48UHn7vtTv0FRVTW04dbz5QsXfzzh9evzJr3LS3swryjiddeENdmDRru2zEJDUb9GqeL/37uXc2rvms/57tO8+pPVFzgdfjHWkwGvOaGprTDRazYkqGy5ViUuxOOziLS2nibx44C0T60Bhf7/U4wAnB/BgwbEQ8nhciMn73EJg44UGvNNY32SubmyuTzJZ9gwYNfh9ZsD+aPnXawYsWXFb38nvvdLpHtR8t1Vv2L59ae6xs7tEl7y5srD4yuNmtc7fUNQ2tee3x/bkL/+sMMKRmpTabkk31SSaj2+uCLA9OHs0hQcEAoRna1gnghlPR3pvRtBnpvV0Kwueeey4X6QauBgCL/fFekfb3zOvBAT1YxT1enB6dobGpOeg76ZvrC61NtQNz9M7sbKUlu+5kc99T1a4Z5RV7LmoqLtxb+5fvbEkuLtltLul7QDf7pog55LU3qiDezPPff374dWQCH7F7754LWj2eES2NDf0dTd5iQ0pSljkjVbFajEor+lyPvZX1LJeItKt6Ioqd3At+zlrwk92kM5xqPFl/ICMrc+3E8ZMWz5g1c8/02bMqJowZ3Wkh2rb0hdTGo0cLasorBux+48nBaeVbb9LbG4blJeuz+qZByQNFVW2SbozV20KN9BkgbHXYvAaT3uF20vTQisQ60U3hQAdyaE5LYKZaiCpZq5GUucOCOdFP3M9biO4NIuwJCnGOhWg2GvaatEB3ogib+cLlJuj24I8GMQoreopF19DQFPSdXM1N6SZ7szUNdVJMLreSDhDoPN7cHO+pefbDR+dVHdp0stWSfMxYULjvyIO3LM0aMmqVpah0t3H8lyKWF2/84e3l6GT54rcXL12zYV1hWXl5we69e+ccr6me11JTP9ySklpoMJtSMw3Mbn2GfToackR8r9MKDaMd6R8hKnudLmeS0VSdmZJ2KDM9ax1U+Ktmzp61fvCwoccvvuLS1meefTri9uUG+/sPltSXHZhU9u4zFzQdOzLKgJoaWWZTVrFBV6SD7J6qcylOeDm1NDcqjU2urORT1W0VjAMfCv9ro8etT0Kf9dxvQ7iI6hD3RjaCxSgF83MKuOFY/ErbYZccXQZCvFgSbDHzYXcrpX2Gdj3JDRLNm2aYsXLCaIt1UUk2p7Yq7uCvlGQyO+wWQ6uhCdKqDfX6sP9JSYYSRdcCTupVbDpdjs1py2k40jCmpvLonFO7du4yFPRbWv38b5dl9B26zzLn2qpI+zn/8vmUlchVj7y7ePmWDWvWv7l+zfqRFWWHprtOtYyBeDfBZVWy8f1Zs1M0wbTgcLlh41GOpmVmbBjQt/TVCaPHbxk/blzVlQsvr3v+jZcjfe22672fPJ9yqmznwJp9O87d/tIT81JdtjHpXvvATHuTzgQxOE1nVRwQXJL0SBqnNyoGlx3dgEZWwYBAbxzswbYWh9HgNSYZwb1TICorkISiOSiOSjQHJQK4z/WBd87FcBBYiSpaXZINvctAiBcrwv5vPJQxmRJfJqr6aIjY2mhXkkxQcmBFdNq9ZDBBm4PSphWqdWxC8TVsXtBHqMoHxYm8NTAhJGMvZMZqnIxtRpbHmWerrc5raWicfHjvvqudyRn7Nv7PjWvzhozYUDJk1EFdSZ8Tuv6TItKNXzr/XAKSmreD7z36xuKPP1zWf+PadXNrU/SDQYdZoM1giEPp+NkkaRooKtEgTU+PQB9MShGknbiCiUglztCcTBKJQq8SLnb8XUoA+HOy1OE5J2wm8wl4Ju0dO3HsS/Pnz9/yreuuPf76K50Hnmf1W2nHd28rrdy1fdrKfzw4O1NpHZXstpUWuZvzLZBCLB67YsTWAUFiiqGlQTFY+voESi6MsL1iAPFpcFqSU4LSN92aafA4dGaXzaujTRYQimb6qDQhfSXUCh5YGaDfRGT36+Mfr6jaD+fmLgMhirZMwKQZgsnWlq4iMFAznM4Gu0bnpkodURMeWLk80E16YQ8Icrj0OrtLp7c5MRmNwJ4LtzkASJM3WdHhd6jb1dMCqEBAA2tCbhe9O7kwOXVcU0vNuPqDJy+sLNty9Niq9LKMfn02Nz7/s62pRcXbdOffEbHz7yW3XcmZs4fnwz97OBemjr5ITX8+/FenAhDjICkUYSKkYoU2YGVW30byy0gKCwJNwrQkYDkwQFmClyUmk5MM19MedgLtb4df7Ztwat8wY+q5lZOmTqkaO3ao7eV/Pd6pYfCufTm7fNeugcf37B6//NH7plttzSNyjd4hA4y6PG8DnPABPBM4lgHgU2Dwx0DhxFqI04GfsSOFyQOpKPgTbadGc7OiNwVFl85jhvRq1BvgTIDxxsB1qsttNwXGjIoTP+g+AIEEdCLpEnNFl4AQat/Me++99zL47eWR9Ut+mJiECnl9r4BhxL8QZrzBU3K7dXqHE5nycWJC4AcA0AFAuo1pKggp3kDJigkDQzpPaDBRF1dpqatRMq1mJc1iTG/wutPrGw+NcNTsuLTyUEZNSmb68U3/96N7i/r221MwYuh+3eSLIvbSuf3222lS4bkJ2eWKkAtlMBzLZ2NFPh9/Gw16ZQA4yYHRHGLX43vTiVlS14tkERgFAl9NF4zRjaD5YThMb0LB0Lfg0L4JteLL4V/rQUxdp2axd/XSZIQ0FB5c+8wtexY9NsZe31BqrW/om9HamgV2rmTACSBFD1DZWyhe4hkAG2jv0qFcNmymXASphXVAIWQG7S0qKMGt6dSgMyBXhaUd5Q/yqnr1GGhoc9FgpzVE/rcm8Ch5UFog/fwKw0L6ECO6ZyMcu6NzyQmDul0CQkyqQkwchqWkS5CllMSKNlSIg8mVlAp1OllxsIMeOg45rqUblmob4yTAAEA5oudEwAB4YZRWAD4LRCW9GxMHv8OygAshGTk8ShKazzZh9wkAuxqbc11NR3MLqvr8snn7lsYDK6wVdX/6wacZ48d8rAwaeADe53W64ikR6c9/8IMfsN7EcTiUr0HGuTeQc+ccTJDxANU4TI6BoF82QIn1ApPWH4DMrAISpMy/i7cOpAw4wxirUFx0G3xp16F60Qeo1VAGh+mIFwqhp3fvByalsibfta9sfPkrT1508sjxQem6HZfCw5exYEoy60RYYNaA4ktxgmawk+pAT5Xt4X8C0AGaOwhGFWy4DF5EHDPg1XcZAIrTCdmmvWRMWGd5Ld6VHDUGh6ROkXhDiPdW+A1PR/TGADS/OQaP6LCJLgEhoxOw4gxkxIM400rsX6j0BKEI4ITXBFgXtvEwMuvhEqZzBB08g9dtgo+kwSd6slWMJLkoJo4PmBCHKNniO46xGb/r4R0Cdxco6+E3CWM777WYUVKNRVwAUjsLfx7dOigzFXoVe8r4hrUV86rXLf+aoSB/b8Go0Su9S/651pFkPWKZ/bWKUO8R+D2iP6j3o5i78+mnn07DZBi4ffv2OYh/nAfAjWUWctAzRbKLBaT4c4GuJwHQfXBq/wjG9NUokPLRueee2woOq6AGfSTdUK/1HnpfZ6s4VHh8x84RGx69/zxP9cmJ1tbW4ckepU++XmfJwj4aWmbVvQ2WO3VBU9GFZZHbBMANvyLFBOhMycMFBQx/JtfjIggY4vTLlP4tgcED71tseYN3Fi4FeKbLAPswxjvagwDknJQgcgkgRlBBKSp+TeoRIERmq6xf/epXs7iKk/UzlISBmQzEjUW9eDu2gTq9E6IOBgZA9OhhQApymDxOi8njNZtUcRMKACjf9NhTWBXf/h/TA8oC8FMMrkIwg1cSdG5o7PSw6xmTzBgogI8KDuDcgeXc6dQpWTkOxWFvUlrrwCnNluS01MzRrjr36NpPqubvW7F0X99xkzbaXvi/pUkDBq3STb+WpouIDtRsZyjWFp6PPPLI6ytWrJiOjOTnAmyTMHkGYX/H+DonaHoU+8mdCBNahmiFdTCo7weYW1DBKqLnycXere+nunZuHrn/n/86x1VbPctZe2I4tJt90wzeFJCCeQoUB+ycrfUtaghZEkR2ZFKi1V+VJrzwEnJBA4rtm7rAEXD4F5+gMxc/joP6O24B9WlqUve52Lsa3B4rnMj5lDMOjLPHbcBVGHOH0Qmu26nXa7tJkofxD6LY8oMyB9xwFvKVvoIydXEVSePOCaFwKML7DcPLJkmyXsmbGa3fKAlnB2D0RgAG4PHo9TqvLrhW2eR1AYAuKzBLT3+cGHh8JnsasFJDFKUgi08qC1xYhh2cS5gY5vRMSFWwRaJZu92tuGDh4CQyGy2KKcWitFoPKt4UnQLPOXBHimHQ+jkalAxdclqKPmli/epVE+t27JprKeqzsfmfv/oweeSoT5TSvod0faYH9ezpaEp9+9vfprnjFdRlfAuKrkEISJ6PiZIHJcsxcLvVqOtehglT9/LLndduuj94Nu/Utu3nHn7osatbj5aNLko2D9TZa1O8eCc9Jr3R4vOlcRigaDHblcz0/r4uG6D4ASd0IeKCGwMsi+B41OCSy4nICekC/1FENauSJBYyoxV7QnBROAp4yU3xdwDQqnPCeBPkgL+o1wMgugwYEEP0IJRtESUzybLHn7GgmbEVGAE690U3ujcIsb+ZjxWuVJKyMmpeUg4IGKNZyyiGenEaoHXz6LzYkQS4fQQ0DDFJjxM2JnBOSkpU0AF5SW4UOKJSAG2oSgFVeUCxCSf+boPYqaO3Ppyy4fSphim5sGOBLzPSYwN8WdT6oT0TuKsdjs2t2E/CEcDEIGNwV6slXWmsbRhYX7+3z56DR4bbV65ZYCzI33nsn7/bUjRo4K6aMfP3odwZqyyFfVx22WXUHKriKm/CnlsBh1QgeobdRuCFW3e9l1G9fXd67ZZtQ1996snLSu2emaV674h8lzfderIOKxZeFqYDBfY8r6NJaaSJBOQwYr/sasYPlDqpD4Pa2a2H4g3sze5FYiXQlz7rFFFJI3I/Lnx6LID8ndsCD+Km1QgOdcfOKA6Itm6XWeeGujvowS2H2+vFNoQcNtqDwJM0ibRfU1lIxaE/n2lfJKGejmdsj/Y5Hd0fV06IiWFAKWN6H6SLqlzsV6enIOzsS+Y6WfMcHAxyfZIZ2dQMmUGbatRZHXD1bmrBuFmxEruIREycptPsitSgUy/3eXwVZw+dZgIcZ6QQGZ9Um/PF52HqcPr4pgdF3RbFivmLZd2M9AGj8etopUxZoJS9Q1+Zlswx49Z6/3nramXw+MVK8fBtumHzTnaWFuHe5937SpJysqx/a/2xQaZnX7vH/ZtvWQe5XLTfZotihwuUO0V/mj8P3VOy1R0c1iyVJI7U07qLv1OONEMJgzgjbgm/eFArytP/Vy/GQZVOqaQBWJFbXWnQuWw2M1Ac5PBgvPWOJIsF2jGz6nEUHZPi1ogHpTRJlSF6C3xmYoE7BxLH81BqRWQXDncseF1cQYgy0Pl4Rj+crJkXSb8iulbaBsc14Az6TkzyxAVAPSkSxbE/EXQ++VDZvpn2A2VjPOu2zc/pN3qT9/V/vaYMH79WN3xSzHOeeDe9k+ndt23y0VcXXX60ct/AGtsJ6wVuz6hAiYR0CUzKFK32OhQtVL9VKnECDn8f2rM+4Ov4zaXT+psMcOZCScOVtnuCEIU4skAwArFNtAgkYCyIGQBA0k+PQQ1qvsV1XuxLdeqmG3s3bB99QDzLVQlsjbUWszXTonM251bt3THg4J7y4easj7YdeuA3K3NKS3am9iso1028vNPLvXfzcn1V5aHCqj07Jq558p9XGk8em2J2Nw5IsrSmFZsQHejPbi5a6kAA+j1rQuEoqu9VkAdgShYBfHYka3YVEPmcYoQ4MT9pRBruSIgSV06IrGbMz9LmiCuAiQX4Tn9Jf5vkhEGXSZlcqscJcNp1i2nHw5GeTN0gxGNns5Jsd+Xq7C3nuBrqx5+sLJ9/apPlSEZJzr7jf7tzS/bA/muM+X12G6Z8JSyFjnfR4wPqqo+O3P3W8yNr66rH2aurxqY21A/LV5zmVGhFvPAZbXXZDKfXixGPnHiMUTBKSOCwcNwAThx0eUT/4I4Rg81gmChBv3LATOg9szHMWyK+LG4gREp7PYq70M7yhbryp3PCWIo7XLbaSwyFv6smXqGQgDJql4uISf7FGzwtjQimtWFf4FCyzdlKcnoyQGlIb21tSm+qqRpqP3Xw/Loya3XNrox9jtw+L5x679Hnsy+5ra69x1a++0+9c+eOOQeXv/2j5pNVI5tsdTkWbJ6KjHpdvhUGdTvmtq0R5oVWxQRNskcHtz2/CCqfbFvAEeXrhbw92HMINJ7BboY0w+9ULsl74y2Ycl8IF7YReNxrIV+mkxfEDYQobZ0N5+MRGNi2DATx4ISBKygHThydT6cHv+O1aop8eseQIyYAOzQ44eKVmqSkWtMVHbSrrfUnFE+rQ0mHWjELUR4na6t1elNGwalaW8Gx6hMWfUpmGd7tvfbGu2LHhmLXls23ZTfXz83SOaz08GGODXMzHKfxLBBA3RyYEZluhkoS5s02EMoCJp434knSybkV1m3tccL2xgbjCzW33iV9jHeGHmhJrdCe9of3Uhrc/M5InxnWS4a4KEr31/ZbR6hSKjxkuB9Uj3hN+CAgDLqC8vlSXk3sk/HqUyQDk4v0FybgwlHfqDgba6HCRwUh2MAMHuhOm08oOSaHkoXfS1LNSr7VMMTd2DDFe3hDu1F0upaGIVZn04RMxWYthNhZANteJnQKqTjN9DChqpZ3tzaj1oMvaXLgPpB99+ddUdX18T5O54ShxFGAkOKoqrSJ1tsqnHeDzdAAEPbFfM4M5/rOXBM3Toi8oUl0PhYP/2BgJMFjIY5KG6L9DEYIeZZaWITOxFQIJMChgwOAQQ9/EUQPeGG8dMM9zgNPE9oY9fAuUbIzID3WKDZI08nW/GS7Xoc/OGhBCVr6Od1sKjGbDalG5INphahrSkbUCDieBXZM1a7ggl2BZgE4xSanQTKgI7QfiEIj4TKxcKboDInRDwIt6K3+vraJo/GWR/3Z3XPgMkgQxkU5EzdOCE+OFKxaZ5gmAsWPWKxkkiXML2pC8cnYpjMP/J37RZ2kuOcgh1PVpzOTKJJ7zB7gyU0HALhscVFKgmscuJ43FaAEgGggh/FTzfnZYGtGDCQ8CUzBs0R6y1bpkVYx397aYtJhsVEN5arLGFy8CGhugOncAFA2IX9oI9zxBHjC/UQEJZ3okxrvQyI+JAKEIAMH1uFsT9Lk1r8tXjLe/WPRGvQlC+Y2X0xZHI64cUIYQemudjayVre3V4/3Hr5Tw6NjHCRwpfqk0nWOvqv4HR6rCLnC3g2eITYAx8EiKDrsa5mnVMeIyKD8nrCzqhlEkbZQx2gR+tTSAwi/exC4zEluhytZoxll4SCWpkQXE9updw7zpoQYR7/zQgbmMwsHxeWIGydEyeth6HGXpm2geaIDMfML2tG4ULMTjdJcQh9KRhXQVc4BsNjbThS7geBlhzsJ3dIRguVCsmCkxm5v7aTtBfHpBqhCeY0RQq0au0dOClc7/M2OyAY7xN9W/NxKV7zEPNpdMMUO3FXbCe6LwXlTOZ9hL4yLHihuIESU+CCMb9xH+TTtWkcbvYQEITFAyyZP1XlcDatiPAdTD4J7MRs2g9GBL6QPhkANWZLJeYMyQjgr4FvEvAKMmC/cZ8L4waggRAcx3hJ38WfeD5AG92tIFFh2BET1u64Aon9fnMT5DB1HXDJUxgWEiJywwDyR6Rvprjtog+iKgYnlG9EBndEbEqDK2aU6hAMgZhdCqBAyZYYKxoytrgkh5yhHBFefdtQROrg0Q6dB32gCzZdtwJe2A39Qw7eMaMeMwElqZNuLXY/l+8W6LUo7XQVAPsfv0qfDfM6BlpQh3jE/4gISRHszHQM7HPd92Gmgo9asPW6YkJwQ8Y9M56CuV1wRGd3BHR8BYgVrZIy5kZ8AUBJQhbArQJDZyIIcauJQDw2iPmO7GrOHvaTari9/jhoqBEfp4H5FMZ9f0TQYHieM8wwT0xb20lZoSuOiqYoLCBGwC79XBLJ3AQhlVfSDMTHsDhFMPS+0lqpUiMmkg+85AchYOyu4FXU00Kwg3IoxdgARtDeINGCwVfAnkKsiIAsRtXovU0xAjtVjGGgWRMilyv0o2rJ9lfPGeQJHQIZILu3SXhOE/tA7I+ILoype1N5LxkUc9VdnZXRttHl4IhkccbXqiBNG1F5XXAzxEY8hqBhC7Iu78wW2yp99GZEYeW5iiTXGxXrbq8IAgCIFGXLlIK0qAImTzl80D7JNdTSY0wWnxX92xTt24hkkStBx7GpxlNpkLvDwnHHDpBWXBSAunBCb2VZ4GNQg0xc4eIuFaSxoDxLjr0TYS9InDlKgg3WgsTiUVwvjvNUUTkxlaDS6LQZ1up1xmKFVNMAErHrNMHcMUlWoVZLgyBzN0W46In+joWyhNuSsMcJOaHEa1doUfBem6WhEBLsHagDa2KHWhFEdpoZWu5LiQGiiEwk6gx3Ner25yZtssHuSGa1O17RWZA60Q9q1gd0mgSuiqJ8Kd6a/t+G0MKFVNEfwyLHwW8QE5wJDOjrxfi7Qw2QxeC1mc9COIdhXx4UKKfrhhAAlU4i4XsllJHGspzuo83deI7GEYneWRcxfadgF5xMb5mVQB4nwXzb4lXHhhNdcc00D0uothm3lMCrwughCvpTULGckM0/+ThUwCUFgEnxMdssMYvy7lFru6CUDY+Ho2EsH33auV1dXcYvqLgocmQwB/eW0Cz714NKF9/d05HES7YSJx/2n+xR3pGDzcyad0CVUf5gSUjLTEWycd/SC4cmfmeuItOUc5RyU+SHJn+hzDMnuGDjhzuLi4rhUa4oLJyRhLrnkkuWQoV8AoG7AZykIkMGXFIKI8kBWIhJEfBUlslmys3VEaGlHrmnP+z7YnrE7AFFNCwL2qOo8fRKDmq0xKE0Q4kPnZr0v0iBu/rqhJn5nvg+M4OD9HUgQbdpRVdwOwUZYdl0tyIq5J5nI2b7MG4JQHNdV536/UottY842IqPdgbFjx76C5FmvTpgwIawwskjfP24gRP3vU8hU9S8kl90FcDGZ7WR8DsJL5uKlVXc2ngSlPzu0SgxZkeRvoV5IXRnp7uUbOAMIF3RYxHZx+mCHav9sf+/b1+GV/AKounC0t3q4kWmJO8gvuHVFKW52EQFkXALd6II9mu6H3BfKO4bqHjmhiKKi6aQEJlIYEiKrP0utTIAVCWy8dZirB/GsDdOnT3974cKF66+++uqIa5GE6pt8HzcQ8gHI/MUEJG+hJuFSZK0qRtKcCfA8mAOuNx6EGYKVKRMvn8SVin6K/tVHLdAhh+wf23shNWUd/Q0xOUE41nEI+k5ou00clba6AydsWzS4aPmQyHis4OTAZOJ7spKuuroz72c30Ber78j//E7bXDDbcx7nIouv8Yq+6sLtkUIIRAmLR6DIK/dS4mLiMX5i8W/AfDwGum3HFmrV5MmTPwb3O7RgwYJalEoLF0+dui6uIJQeXXrppczPsZ/nSy+9tHj9+vUFOM9DqvGpqIcwDaArAHFTQQBk8MHGnNVdcITDDUXsIqC4SrbnlO3nhG17QnU2J0gkRUcjpyoKaEGE94sqlrLP7YUYAYCyn1Kvo9YiLvq8Ts21oDep/aR5xr9wBHDCoMtHICcMpbTjAylZnd62GknjgS+Sx2NHrY8qAHUPMq2tGzdu3BKUBzg4fPjw6qlTp8ZFCROMCF0CwsAHX3vttXX4neeet99+++Vnn312KCKXR4JDToTIygpF/TAwOQBTOj0UKE50dMgg+lc7uF/C+h3kwHUU00Lo0mI3uWLVkoCQwRPMgAb6oLRDOyIm9oJ8R+EkbkZORFm/L1bvEbKd00KX/JJLO0OpLjVhLaJcpAk6JkiGpNSEdk+BRsfx9yP4rAK3ewvnntmzZx/H3s/90EMPhexqrC/ochAGvsDll19+Cr+v4YnaC4tQnSgdeWmKmU4AmtUZIBRz1PTHyTASovEMX1RVS0Y9BbdNOp0Tk7a9mnKqVrG77Qk5ibgnJAj9VlcWnAguZEI7Sg2xgNBJjbpq4+geR6Dmuj0phYonvA1y4fvsoCGOFswHFtupxOdhZH/f2r9//7VjxoypwFlXUlJyatiwYY7OZikP9fBwvz+rIAzsJAqV1ON3ngycXAs5fBFiErNQQ2EIUs6NgZZqEog+GANVjJWN+TFT1T0BFRcIzcHgtOA72iWD+vdRq0huKCIu1TfMEm0KXkktXPqFnAiieWu/wY43beqeF/oW1byDtOAGh4NjFvwmn4IB1dx9xnzey4T+iXyo78es3eDuatgQxoN7tPa03DRhYRztGEcISjarHvGWfhOYB9ITk8NyDlWhjcq0tLS9Q4cO/bCoqOjAiBEjanHWQMMZnWE4DsRMGBCe/m6oGc58HjzLcS7FapW9Z8+ebISTjK6oqJgBYCJfrSsvLaWwxAnvdqeutTk7I/koZPugeUDaNktoTOUu3Gap+u3E1lyodlAwPj9n8KV2QOR5O3NBlE+qicL3fokNwg7eI+hXGN9mAPcAvhyBVPWoTdOMujyOYwBlOcB4BBWo1owaNWovREtyuZP47JJqu9FgM2FBePpL3XLLLRRdeVLB8/r777+vYzKpTRv2TmxoPVVQ03Ak22rW7T5//lUNwQgSqB31acfgm0ntIb1nEvhQbadYu/0g9O1r9SxFFeTw6e5pKwyIPE/s9+toMQn23eVXXd/yXzd97T/FfUzb07PyXfn5yWWouVj2jW98Q009sWHDBuXVV19N4BE9s2vdBoSnd/3iiy/mqk8TyOJwKO7fyKtimkxSlVMkOKNQg0ohXTJLNQBGDufSjZrZXq+/wAlDWrLDIdzZuaZd31F25/Gnn12ND5494oiL21qCUqb7aCgCCCgKCr/Sgpywoz1N+y5tCTookXLC7vUa4fW214AQk1evulngEM1aGNq18KgY56vEzkVlRQgQqh4zVECp7xZaexjnnne6+Y7iQjvdaKLe2G3F0UgJigmsJnMR+5Ja5x1B6omuwf/cWK8WsukYhD4bIQHIf3xRK91zmeVimeAbhUhnYPvXd88h6sT7kwt2R04Y6O3hdzZoVxzVjVb3yTTFqCDsLpw+yHAy1UBiq607MQfbu6XXcEIE4+ltFnPL4VP1ymCUEk1D4cs0JN7dl1GqFqZEKDoiz5GrE6kfLIjFs6gZWtSClWpRUR6Mw/PVt2fKCN/6ZTLQI8/3sxqWqzqT+67jNT65Sta6M9c85gRlDKGvUrBv5rX9rCbkoJcMXPJQxdaOxMBGV4jAUp2p1WswtyLpWir9vpHN1Nce+6QWBPf1CTH36rOakhp8RVNxMo0GKxibGcnPQp6BQmFbH8Fh/fosX3Iq35rA+5mMinGB9OwhTdg+E3GoBVdxD2vWIzQSPyN7HPuGy4a1HGWWfqUZM7EuKV05Dro1ogK42cUE/b3j6DUgdCGEPcmapmTnFqCAJWy6LbRk2JQsX+CB6kCs+qECgGqAKT4h1DEFqHqokQwqmDgbfTUOeRCuKgB9elc/EPmzD4xfPHzzql0rX5A5pypm/IsAvWFwdmhsBrdUbRLh+FWqPUbeU76vr3KxD0QErB//n0dvqEBmtg0uMP7y4vidCankYHkWugn4/kQ/JixYoKGgiblt9ExYhT+0eVT4q/6ZkpBsGONjQSRzqx4prZBjNQg5euSfeg0Im5od7pMNrYre5lVSgYLkVnpnWJQcGzmFR81wzfLLSJOEBLysHsuCZWo2aN+E9E9UlUMwvad/wrbqfVnwOlq2fdPUV6YbXthtfDOcGUUQSoQBFTPwBOnQsZiKm3AByOebXT7nUuGGRJAq0/q5spq1AMfnaRmZGQ4c1f+9GdngfJzcxyHV+1QO6Xtn9h9pwVVwM5kxa0P6uKavXLaSl6UYGm3ghibF3ooGDGZIF6lOsyGlyxyowxmHeF7Ta0CYnlN0Mjmr6KDBaBhudzfmeBweJRnAY4E+rN8K00Eg+TqS72IyYbYwA5obLlSSjJ111gkHdXlmDlCcnHwOXWDuH19OFwLNx+14h89q0AbAtnJeAtuOt+WBJgpyQYCwQw8Q2hJ5qsAKo+qU2XVmalgVhP5uqXKCH1gEWtsS0mbw8b0HxW+5FhlufCBEN/SqpEFO61HFXDXNIvPc+AQQlBvHQucBX7SkIm1/lmI0p7aYzOkVZlNKUzwnfiK13WtAaErPq7YZU1a2tCqjsOszpCdnZ6JQg5JWi1hNdQsDLxpMJHXXhHTXDhRlITwNFk5S2fP5V3gClW5vACJ2kep4+nZaSNjL+yF2+YW3L4y1ul9S/xK5WOoHlWqs72gCUWT1AzGseWYCJ5T0h5QEZD9KrKj15GWv6gedcEZp3AVaqFtH/3Wy4DBrnCq84wsjAIhcjSonVN9dKiTjHpc+U3EhdM2utyjVzd7mykb7AWOKfpXRknkirBfoARf1GhCmXPxV7477f/5qjb3VXt9SfwlAVlLnas3OcbtGGZEAyaxHoiVMBnqyWQEiKmgQWoqKtp+LVwSYT3SlSMa9kS+TmTAFPy9QuZ+O+x9OQj/ghN/5hEs/qNu4Sfsz6TRuJvyj3RuEC4Y7NyleC4DYHZ/Y6RfLA5Qx0p5P8eL7jT/bkUtRfleTFoMestgg2416HQqVq5/kjm4SOCCZfJ05R2l1e5vq3LrqZqN1T3ph3zdKxk19JeeKr2niaLiD2J2uG/Xfv6Ob2zP1T/7hvYZjR0pqKo8OaUh1XI8MXvnIi1FkcrgLkH0sBbVrFSsnC/kaKyH5J6UDf3IgFyFFVBf0I+QAaW6UbmkTQX2z08cVqez5fKfIiS0c9YualfCd+imahjI7qCDsoLRY8PHy91NdXPzZ6/zvIGBT93B8AxVkPsUN37sJ9RP5qaZpBKBNEBGY5ZsByKqGRgdJgVpRSBqssWHDXtuJT9CyBaBsPN6gK8vILdidVdJv5cB+gz5LGTVuh276Rb1GKUP69hpOGDj5Mr5xN0UdnpsPPXrrh7b6+r62yhNjHNU1F5kbmsZmuDx9cgzGnAzUdNDBwRu7Q9WEASEUYigmKrgceKQ6Iy0eJApi47IH9ANSnufbJ/n08T6Fhc904dOccir71YPtrGZ+d7U2o5kazdrBQRC2Sb1hrJBeSLcEHhtVF4qAU4RwApBiJbWa3Bur3I69B8iaYGLhW3CPTCDSxEFfV8XDqUUAmmAkMSmNCE9qMhsaGszGapRlK28x6ffBbLFvzOzLlxUNGHRIN/+G2jC62yMv6ZUgDBzJ/rf9sx6/89y+78G7PqjesXOI7XjVJciLPUdvtpRiBhWbdU6r0eBEhgkn9jbIZQNg6mHcIhQNzOPpTzlP8ZVmDnq5GDDpEOjo81pBbk4WefHZDWl9BKxVYHIqdwxCROso9ia7+gzW7fOEqIeAHDtJZn8ipFBck3Rw4p3UNUTVbnJPSMSJhZOl2dBfur/B4Kdz4FTtFBCpATbuoNMykfsT9laPA3lRUbzGCM6H+t5ox4xqUkbFnJHXfKLVUV3Raj/SpLNsMBcWLc4eOnT3gEGl1YXz74Ty5bMeCaxIXqrXgzCQWEPufOAUfl/b8vx9W2r37X3uxLEjE1Ozsy5paagZ7mys6WdwewuSLWZ9shEaUWhSXS5U1KXKTwUUFn9oAmnS8OAkIJECVP3Oryj0X0eOqLoB4FG+7zo6/PlQVHD4FS6h5NeIRDmXmmvft9UUTujb2/r2s0bufVU/VPxNLflEeyqAhrJr+EcxNNkUM0w9XrNJVVY1wgpvR5FFp9Fc47SmHneaLJv1RaUr+/Ut/SyltH95xsLvxqXueySTPtGu1UAYZESSv/oDRmjv43n8wR984Kw5XmyvOjJL13DyUp3HMUzxOEsMHle6F1mzHakuxd6CRMZ21JnHJExJSoaCh5m91byVmKjUt4oxnw+jjZETXETSjqcEQe3zAVX3bTQ/hAoQjAiEbuxtfWZxnyjqE2Z9pha1n1hYkMcUymO8E/ZzbmyIndAeu/B+buyHkwypYJIGesO4WhRDfaPZeNxhSdnhTc/5xJmWtWb4tFkHrNf8oNeKmuEAXgNhCCoV3XlfHS6pa1103+7aPTuXNFUcntFUXzstyekaaTZ7io40VgxIT81OTstGVi+kaWi0tSieVptigRhntVoUl4OMy+dtI5Mdqg91gqsiYJickO7nNMS3l8gqoBnVYhDO4KuoJvyo5fWDTt3riZ4G4jJSkoHDQyEF9z2PF2Imsr4Z8F76NJQ2gBhgd+lO1LW0VNe0tB5ttVq2pZcOWJU/ZvTm3BGjKnSzbkZLr4bblV57nQbCMIc+6Us/4NQs4+l985+vn9q6rW/VkYrBja3G6djVTTmJ/DdWnafEkpKSZElyqn6eLic0p2CPVGj4lBu+Mp0+iPhMA6FSOqvpLfy6GH/UfKh0De1n6A7yrjQfqG4I1DOpXNrnwufrJrSYdnA9LCguVPV1Ga342YJ9pLkRVYPL4ZpT1qrLWpVeOnTzoMEDdqWNGF6lm/91vNJ7YVJVu4wU0EDYiXmgu+JWalP28Gx48d5PTlQd61N5uGz8iVNV51lcrZPSFH1fk9Oda7C5lRwrvEHgmUO7o1p1SdUs4h+/z2UoEAbEElLpEyqol29DTUsoBtv21nCE89s0AUYmzQrwd6UySTGjrDa6W+/SOZvd7jpXsuGIKT1zgzUr+y1zctruAVOuPp584VXaPq8T80hu0UAYBfF4a/p1P1K1q97NS/bU7t760cEt6wafLN93YbLOMycv09rf4WwtMnjt0GL49lnMf+bf3gVuFNvthRoGyf/bEjeFBBg55ecGyhDvh0pqfvufb5FoixhRDfVwYEhObcETq7At3atLTl2TXtL34+Lhow9kjRh1VDfxejznmSgpqN2ugTBGc0A3/gIqTI7x9C57Yot7+/qPast2X2CrrJiCqd0Pf8+HtjFDVXyonFAe3LHvKMFHzaga4eHzCQ3F5QjCsL1NWOTe50xNTS33rT4FENQ1teDbJ1ptzvLsvqUbSkaO/o8yauxe3Yxbm5FnK0ZU05ohBTQQxmEe6OZ+k9xxqbe64tOqrevz6w/tyT2wa3Nf+/EDM5NtdTMzFOegZL0j3whVY34dnHhUh2aDYjObFU+KVfFaYIFjInGPDeYBBEtlmZWqxmOKzWrUeW0NHVo1WpUaoyu1ERmwTinpbhsiFDxKDrSaOiMqPbtgGsEeT0FIYprZqqSh5MCpnFalyelSGvF3d3J2RaslY2ulXb/EmFu6YcCEGTWFw8bWKHkl9boBI0LtReNAyd7RpAbCOI6zLr8vTR3l/nOj/bnfLq85sHNAw7HDs0/UVc/0eGzD860p4+3AYCs4kRNKDx1EQD2M3iY4BDBe1oPaOMZ0nZJiYqRBksuZnMSM0u0eEC+bsc9zGWG7oy9najaGmMoVQMhNTZAVYEyB1pamE3xf3uhuMFiSj7mTk3YYswreKywe/Gn/gn6HC27+NbarL8eROlrTQgENhF04Fyw3/KIOj9vkXfPs5pay/S9UVx0t2bNj+dcMenMfnWIeCk/m/p4We7bF1qpk4MIMmAPU/McoqetGReFmTwsUM+4OQ3z0XoMN4csAYarihGKoFYoXEwFMzxsAvdGpNLe4PaecemMF2O1RV/bwjwtK++8sKB28R1/S/4Ruzk2h7JBdSLHe8SgNhGdhnHXTv8a9HTkazy1HX7y7cPfmnUNajp6cm2fJnFViVYbomuuLm+uOm1MoRoJrUWni9Oha4L1Kr54OWGFyo6K3wsHMpdicNoihVqXebXA3Or2nTrpcx5tNpq3W/OJlhQMHrM8rKTmS2n9SvW7ml8JW5JwFcvX4R2ogTIAhLrnuDyzDXHnywxfWndiyvfjUvn1z3Q7DVXk5SSNPnCgvTkkyWXQpSQ7FknxIl2St7qjLbn1SXUurrtbgsdToTZmWZrf+lF1vOmxPSfvYnF+4OHfggN2Db78f4F+RAG+udYEU0ECYQPMg58LruYc8yNP7+H0f1O7dMi2luGBuQ33NwGp7c3ON1/zivLufPt5hl60Zx+o95mXYEzZk5BfazFbrJ9nFfVfk/uTv2xLoVbWuBFAglP+wRqwEoEDdYz/JOFpZZa736k/O/OUTIUXHbb+/Mz/V4M3Mz8ltSLn1l+Sy2qFRQKOARgGNAhoFNApoFNAooFFAo4BGAY0CGgU0CmgU0CigUUCjgEYBjQIaBTQKaBTQKKBRQKOARgGNAhoFNApoFNAooFFAo4BGgQShwP8H3OvGjHhFAZcAAAAASUVORK5CYII=;" parent="1" vertex="1">
          <mxGeometry x="1325" y="820" width="225" height="225" as="geometry" />
        </mxCell>
        <mxCell id="FBepFoA94dysS3fDuO20-1" value="" style="shape=image;verticalLabelPosition=bottom;verticalAlign=top;imageAspect=0;aspect=fixed;image=data:image/png,iVBORw0KGgoAAAANSUhEUgAAAaYAAAHuCAYAAADUeqgCAAAAAXNSR0IArs4c6QAAAARnQU1BAACxjwv8YQUAAAAJcEhZcwAADsMAAA7DAcdvqGQAAPkcSURBVHhe7F0HgB5F9Z/r6Y0UAiGBkFBC76F3aYJ0pAqCDRQQ9S9gF0UUFUXFCoqgIL036UiH0DsECD0hIT25/n+/N2/q7n7l7r5r2d/d7L42s+WbmbdTdraqnaBy5MiRI0eOXoJq2efIkSNHjhy9ArljypEjR44cvQq5Y8qRI0eOHL0KuWPKkSNHjhy9CrljypEjR44cvQq5Y8qRI0eOHL0KuWPKkSNHjhy9CrljypEjR44cvQq5Y8qRI0eOHL0KuWPKkSNHjhy9CrljypEjR44cvQr5Wnk5+hUWLFig3n//fTVv3jw1f/78IHzyySe8X7hwoVq6dKlqbGxUTU1NasmSJaq9tZV1iorDosWLVRWlNWTwYGLbmTZob2/j/YD6BjVo0EDVgP3AAWrAwIFqQEODGkj7gYMGqeHDhqsRK41So0aPUSPHjFEjRoxQI0eOtPvRo0erqio/5Rw5chjkjilHnwEcxxtvvKFmzpyp3nrrLfXee++pDz/8kB3RBx98wHs4nL6AmupqNW7UKDV+7Bg1btw4NW7l8WrVSZPUuFVXVRMmTFCrr746BziyHDlWNOSOKUevwvLly9VLL72knn/+efXyyy+zE4IzQkAraEXD8CFD1BoTV1NrTF5TrTF1Ku0nq7XXXpvDxIkTxSpHjv6F3DHl6DG8+eabasaMGeyEEJ577jn1+uuvq9bWVrHIUQhDBg1S66y9llp3/Q3Uuuuuy85qo402UpPJeeXdhDn6MnLHlKNbgNbOY489FoQ5c+aItjJA5YxQXV3NwdBm79sAvgwoVDSgywpAW1sbB/CG7i4MHzZMbbzJJmoTL8Bx1dbWikWOHL0buWPKURFg/Ofuu+9W9957r3rggQfUa6+9JprOA46jpqbGBjiUmDYOqDfBd1RoFfr7WNbVxRKTMjbddFO1zTbbqG233VZtvfXWauzYsaLNkaN3IXdMOboEs2fPZkd0zz33sDN69dVXRdMxwKnU1dWxk8GTvr9H6O+AczKhpaUlQXcFpk6dyg4KjmrnnXdmPkeO3oDcMeXoEJBtMD508803q5tuukk9+eST/LRfLkzrB04IAc7HOKQc6cC9h4NCaG5utjQcVmeK86RJk9Suu+5qA2YL5sjRE8gdU46SsWzZMnXbbbexM7rlllt4ina5MI6nvr7eOqOe6nJDd585D2DAgAG8B2/Gm4rBtOwAOAm/OOEdKfDYw2lAj9ARB14KcCzjrPzQkSKO61p//fXVHnvsofbZZx+13Xbb5WNUOboNuWPKURCYvg1n9J///IdbRosXLxZNaUDFj9DQ0FBWhd9RwLkMHTpUDRo0iMdVsEcYPHgw68y5YF/JirZQsYIO9xUv+Jq9ofEeFgJe+jU0nE1ngPhwjiZ0JD28FLznnnuqfffdl/fgc+SoFHLHlCMBVF633367uuKKK9QNN9zAKyWUCjgfU/FjX4nWEJwMKsbhw4erYcOGsSPCfsiQIbb10p8Ah4UHAvwOixYt4r2hEcoFWmxoSfnOqpxqAA59++23VwcffLA66KCD8i6/HF2O3DHlsMCLrRdffLH6xz/+oT766CORFgZaQHBACGiRdGWLCM4NS/estNJK7IgQsBIC5L0VlS5OcfpwMPGSS9iX27JFOqblVo6jwu+NCRSHHHKI+uxnP5s7qRxdgtwxreDA2nKXXXaZ+vvf/87vFpUCPDHDCZmusa4A0sT05TFjxrAjQkArKEZPjUcVQ3cVo1KPg1bWxx9/zGHu3Lm8R/dgKUCLCs7JdDOWOgsQvyEmTRx99NHqwAMP5K7UHDk6gtwxraB49tln1fnnn6/+/e9/86SGYkClwwuUUgDdWaA7Do6I14mjgNZQORMOehN6m1PKAhwTWsImoHVVSppoTcFJIYAuBehmRQvq2GOPVdOnTxdpjhylIXdMKxDw5Hv99der3/3ud/yuUTEYZ4SWUWfHbtDVt/LKK6tVVlmFQ1prqBz0FufUncWns8eK48PJwEGZBXDhqIoBecg4KbSmSgFWnTjuuOPYSaFFnCNHMeSOaQUABsj//Oc/qz/84Q+8KnchoMI3s9k6002HdNAiwkrZcESjRo2qiDPpKQfV3cWmq51SGjAD0KzUjgDnUwjGSaHFja6/YsADzqGHHqpOOukkteWWW4o0R44kcsfUj4GxBXTXoYWEAfFCgBMyU6w7WtmjhTV+/Hh2Rqutthqn1R3oTufUU8WlOxyTD9hjfUMsLYXFdovNzISTgoMqdXr7FltswQ7qsMMOY4eVI4eP3DH1Q+Cp91e/+pX6y1/+UnB2Fip0OA9Ms+7ouBG66PD5BQQ4pUq/p1QIlXZQPVVUuuK4nU0DDzbvvvsut7gxYaYQ0EUIBwVHVexlYrSqv/rVr6oTTzyRJ7zkyAHkjqkfAR/N++lPf6r++te/Fuz/x3I/mHyAFlJHHAlaV2gVYQkbdNP5DqE7Wy9Z6Mpz6A3FoyfOodAxMRb1zjvv8LeyCj34IA109cFJFRuPQn48/vjj1de//nX+QGKOFRu5Y+oHQEVx7rnnqt/+9rcFpwTDoaB11JGuEziwVVddlb/1g31PtozKQUecVH8rEh25nlLiwAaTJ9DVB0dVqAsPOuTNYq0otNwxDnXGGWfwkkg5VkzkjqkPA0+iGD/6+c9/XnAMCd1tcEjYlwtM+11jjTXUmmuuWbJD6w2tpv6AriqaHUmnnDiwheN5++23+fMmhWb3wRb5Fk6qkCPDgw9e2v3+97+vpk2bJtIcKwpyx9QHgZ/sqquuUt/61re4MsgCHAkcUrmz6/DUiu4UfAahI2ui9XXHhArTLNVjVkIwT/nQZRUZVKZmVXTccwSzRFNH1gnsiqLZ0TTKiRfb4mVedPPNmjWr4Mu5uK/oCiw0+w/3DMse/fjHP1brrLOOSHP0d+SOqY/hiSeeUKeccop66KGHRJIEHBLWjyv33SO0juCM4JQ6+95Sb3VOcCyoDPHEbvboXsIeT/KoLAs9yXcGcPhmUVkEjKuYsT6814W9QVcVy46kU26cLHs4HHwq/4033ig4xoTJEvgt8DtkAQ7/yCOPVGeddRZPtMnRv5E7pj4CTGw488wzeS27rD56PKGjgiunhQQHgokMcEh4+bGrHEpPOyZka0xxRrcSZpGZgAqwt2Z5OC6zMC0C1gXE+18d6YI16Mi1lhunmD1aTZjNh26+QovOmocGOKisNPHQhQez008/ne9Pjv6J3DH1csAJ4eVYDAZnTdNF6wYtpHImNaASxNjRWmutxU/tBn3VMeHp3KwJhz3ewalUy6e7gd8HDsoETKsu5UOKHS3a5cYr1R52eC/qxRdfLPheFBwZHFghB4XFfb/73e+qr3zlK2V3Vefo/cgdUy/GCy+8oL70pS+pBx98UCQh0P8Oh+Q7lmKA80LrCLPr0gp0VzqUSjondA2ZNd/wWXc8aa8owO8O54QWLtYZBJ02ftXRol2pKsGkiz0cFFazL8VBoYs1C8jLeIkc34jK0X+QO6ZeCFS6eB8Js+0w5pEGOCM4pVIH1PEi7dprr82tpGJP272x1YSWI1pD6NIsZwHSFQH4PeGczDqEyBvddW9KPU6aHWTGQRXr4oMDKzRJYv/991fnnXde/g5UP0HumHoZMLnhmGOO4cKaBow3YBwCXXGlAAPq6K4rxSFVAp1xTsYZYSULvCdTqGLK4YCZmFgwFytxYGWFcn6DcquDUu0L2UGHMSjk+UKTJPCQBgeV9bCGhy90eWO2ajnd2jl6H3LH1EuAp0K0khDSPi2AllE8c6sQUDAxvRYOqdRWlUElu+CKAc4IC4jCEaF11F/GiXoKyAeY3IKZbKVM/S+3OijVvhQ75PtXXnmFp5pnTfABMPYEB5U1FR3de1iOa6eddhJJjr6G3DH1AuBJ8XOf+5x6/PHHRRICT4JoJZXiYNCSQgsJL8R2dMp3VzumUtLDhAW8kwWHlOaYc3Qe6PqFk0IAnYaedEwA7DCmhPFVPKBkwdjBQaWljTx31FFHqd/85jc8YSRH30LumHoYF1xwgfrmN7+Z+g4Hut4wJbaU6cJwWmgdYRzJTGroqIPpLseErjl04eBFzEJjDDm6HpjVhvEYjEmZLt5yq4Jy7Eu19e3QYn7uuecKduGi1YTZqlk2WD4Ln3v5zGc+I5IcfQG5Y+ohoDCdcMIJvIJDGtBlh1ZSKU4Clct6662X6ObrrY7JrAyAsaNCXTY5Kg+0qtHNByeFsaly0NWOKc0Gjgc9CmhNF0oDY1MoU1ldv4cffjg7qI6sZJKj+5E7ph7AjBkz+Ds0eCs+Blo+aCWVMniLMScsdImn3zT0FscEoIIxK1IXmiKco+eA6ed4jQBT0EtBOVVHKbaFbDAL89lnny3YskZ8vDaQ9RI1JoRcdNFFaq+99hJJjt6K3DF1M7DoKmYNpc0+gjOCUyo2loSnXHTZ4Sm3kBPpjIPpKueEJ1isPg0nnDWbKkfvAqabo1sYnzUplBfLqTq6oprBw82rr77K+alQehijhCNLG6tEvj711FPV2Wefnc/c68XIHVM3AWNIX/ziF9Wll14qEgcUFrR+SnlRFt0u6667bkkTG3rSMeF60TpCF0w+s65vAmObcFB4AEp7PaGrq45S0oMNJspg7CltXNYAdlj/EC2stHTR03D55ZdzF3iO3ofcMXUD8BLhgQceqB577DGROKDAo9+7mKNB//8GG2xQ1gyjnnBMmCmFNdHwtdN8/Kh/AHkTDgqh1PfnfJRaxZRiZ2zQGsLYE8YpCwEPRfgkTFrrCS0mfMMMD4w5ehdyx1RhYDmhgw8+mGcYxSil6w46PLGi665YF19XolzHhG46tJDQzZL1fkmOvg04JXTv4VWEchxUJRyTARwT1t4rlOcQBy2nrGWrjj76aPXHP/6xrKW9clQWuWOqIC688EJeZDJ+WkOlX0rXHWblbbjhhtxa6kgLpjMtplKBa8sd0ooFOKUpU6YUHYMyKLWKKcUuzQYOBxMjiq2XiHFdjD2l5VN06V155ZXcTZ6j55E7pgoAt/RHP/oRhxgoyOi6K/RuEmwwOwpPpsa59IRjKhQf3XRmUkM+hrRiAi9+42VuLH1UCKVWMaXYZdnA2aBrr9BLuQDyLZxT2ntPeADEZ2XQ7Z6jZ5E7pi4GurSOP/741EkO6KvHGFGhNevMWBJaVD56k2PCe0ioBPKXYnMAyKvoas4a/+wOx2SA8dyXX365qB0mRqStGoE8/3//9388a687u85zhMgdUxcCg6x42rr33ntF4oCnS4wnFXIW6BrBOl9pBaI3OCZ0laDQz5kzRyQ5cjjg/Seszxj3BpRaxZRiV4oNvsX1/PPPp0548IGHSJTZtK49rBRxySWXZC7dlKOyyB1TFwGTG/bYYw/u646BVlDcAvKBllShF2WBnnRMKLiYaYelg/KZdjkKAeNP6IZebbXV+AGrnOqlqxwTgKnkmFJebNwJ+RnOKe29Qow73XTTTTz5KEf3IndMXQC8q7P77rtz5R0DExgKTXLAeBOcUrH18HrCMQGm267QOyM5csTAwxi699BLUAq6qhry08EDFRaDxXtPxYBuvTQnhtUibrjhBrXFFluIJEd3IHdMnQS6tuCU8N6ODzgFOJ2st8uhNy8vluJAutsxoZsDnyBIm+aeI0epwDqO6J7uqm+BFauuYj14rBZRbFIEgIevtA9QYg3Kf//73/lCsN2I3DF1Ak8++SR/0hmtCh/owsAXRbNemkV3B1pJlX5ZtqOOCe+GoDDns+1ydAXQG4CxJ5SJLJRaDRWzy9KjGxqzSIsB41IYo4rHneBYf/3rX6uTTz5ZJDkqidwxdRBPP/202m233RLdBMjAcDhZTgmDqXBKmAzRHSjHOaFQotsun9yQoxJAtxjef0orG5V2TMDs2bO5F6BYGnBKcE5pkye+/e1vq3POOUe4HJVC7pg6gEJOCU+FWW/F4zPX6HeHXbmtmc50y5UCM5ZUbCZTjhydAb4VhtZT3FtQajVUzK6YHg4H+bzYJB6kg0kRae87ffnLX+ZPaOTTySuH3DGViSynhKdAOKWsqd4YT8JMJYPuckzF4qG7DpM2SumDz5Gjq4AP+GH2nikvpVRDXWWDcSQ4p7Rp4j6QFr7xhPUfY+CzNf/85z/tRzlzdC1yx1QGMP105513LsspoXWU1r/eGxwTXpDFrKV8xl2OngAmFaBsYAZfVzmdUm3wgi3yfinjqCgnaS+T47tO11xzTf75jAogd0wl4o033lDbb799omWBbju8f5TmlOCw8C5E2kt6Pe2Y8IY8ril/LylHTwLlBi0njD8VQ1c6JgAtoVKdExwZWk8xMCP3+uuv77Yx4xUFuWMqARg0hVPCTDUfhZwSngbhlLLeT+opx2S67nBNOXL0FqBHodi08q5yTD7gcLA6eSnOKWs6+Q477KBuvvlmbvnl6BrkjqkIMFi60047cTeej0JOCas8TJs2rWAh6wnHhBcI85dlc/RW4GEOk4OyWh9dVVXF6cA5oVyU4pwwGQKTIuI0dtllF3XjjTfyNeToPHLHVACowHfddVf18MMPi0QDDgdOKc3x4KVa9JsXcyTd7ZgwBRwtpWIDvjly9CRQprCqfjwmWypKqc7SbOCc8LJ8Z5wT6gosYZSPOXUeuWPKAMZeDjnkEB7c9IEWEpxS2pTwMWPG8HsapaC7HBN+3nfeeYdDjhx9BVgxYuLEiUG+L6Wq6owNJjjgPadSxl2xth56U+K09ttvP3XVVVdlvseYozTkjikD3/zmN9WvfvUr4TRQSOCU0jIdVlbGIG6l0BHHhAKGVlIpa4XlyNHbgHX28KBnHgI743R8FLLBGBK+MVZKOlnO6aCDDlL/+c9/Cnbl5yiM3DGlAJ9ZPvHEE4XTgGPAS4FpkxnwobT46a4YOuJoygEKDbom0t7ByJGjrwBjNvgYIcpdKVVVV9jgZfO33npLuMLIck5f+MIX1J///OeKl/P+itwxRbj11lu5OR73NWPsKG1QFi0lfEcJqKRjKsfefDcpX8UhR38AWkxoOZXybaSucEzQY0y21O5vjEVjzCnGd77zHfWTn/xEuBzlIHdMHtC/PH36dG7O+0CBSCsUcEpoKQGVdDRAqfYoIOiKyCc55OhPwNguVuIvtvBxVzkmAO/6lfpaRZZzOv/889XXvvY14XKUitwxCfDy3FZbbcXOyQe6EtK+KYOJDqalBPQGx4RChC6I/CfN0V8xYcIEfiDMQil5v5iNr8eK5Gkv1qYh7SVcjDNdffXV+SczykTumAhoXaD77pZbbhGJBtbBwrTV2CnAKZmWkkFPOyZ0O+Tr3eVYEQDHhLX20lCO0ykFqBvQA1Hqu39pyxfh4fauu+7i3pgcpSF3TIQzzjgjsZQ9nnTggOIXaPFFWsy+ix1FTzomfEE3X8khx4oEdOmlTTjqiuosTgNjtZjdWuqYLYYC4klHcKaPPvpo0MuSIxsrvGPCUiL77rtvkBmR2dOmhWOcCS//pTmJchxNObYGaXFwzuhqwKygHDlWNGCFFazaX055KqW6S7OBo8HakqXGR5nEjD0fWA0GL+vjvHMUxgrtmDAes+mmmyYGLdNm4IHHWl5pSxABlXZMgB8P7yjBKcUTNXLkWJGA9enK+XxGqY4lDShrpc7UQxqYdh63sjBkcO2112bWIzk0Vti709TUxN9UiZ0SMnrslDDW5Gf+NCAjdlcw/d65U8qxogOvRsycOZPLBB7W0spLVwV04xebFWiAh0jYxnXGDTfcoM4880zhcmRhhW0xnXLKKTyV0wccELrwfGCsCe9QFFv/qqOtoHKAY+DnQpdC2vdhcuRYUYGHSUwnT1sqzEcp1V0hG+jQ01Lqi+t4AMbKK36aKMdXXHGFOvjgg0WSI8YK6Zhuu+02tffeeweZBU82mOzgLyOCDITMXsqLfeU4po46MZwvng5zp5QjRxLGORVaCqiU6q6YDbrn0I1eyoKvQNo7TuiZwWQIjDvlSGKFc0wffvih2mijjRKz2DAtPF5uCEsNxS2oLFTaMeFnwpPawoULRZIjR44YmJqNmW9Z3e5d4ZigxztL5SyMjHKLbkcf6667LjunUh58VzSsUGNMyFDHHXdcwikhY8ROCRMg4KwQp6eDmeiQO6UcOQoDXWyzZs2q6HgTMHjw4JLHmwDMxIvrGHwD6vjjjxcuh48VyjFhTAndeD4wJTz+8iSeuvCp57RM2d0BBQzvKeXddzlylAbTmumocyoGY4felHiiVCHgYTfuZrzyyit50egcIVaYrjwsNbTJJpsEb3CjSw3jSv6AKWi8G4F9qV1u5XbNlWP//vvv5+8p5cjRAaAnJGuFiEIoViX6eow34cERTrAUwB7TyP000JJ65JFH1MYbbyySHCtEiwlTSY899tjEsiKY/hnP4sEHyvBUg4zT0wFdjrlTypGjY0AvA8aUfaSVs84E1B94uC0V6KGJX7DFi7iHH344t/RyaKwQjunXv/41P5H4wPRvdNn5QAbzZWkZsbsCHFK+zFCOHJ0D3vUzLZRKBbTM4uGAQsD4VPz6CT5Tc/LJJwuXo9935aV14WHGztixY4OZO8gsWLnYoCMz50pFsbTxpPfuu+8KlyNHjs4Ca9Whh6SU6q6YTZoevTIos6VOIUfXH775hHg+rrnmGnXAAQcIt+KiXzsmXNp2222nHnroIZFoxEsOoesOU0z9br1yHFNXOjE4UDNwmyNHjq4Byihe/4h7SdLQEccEYEZg3HVYCHj5Fq05HzjH559/vqwZf/0R/bor76KLLko4JTikeCaNebEWGa67QhowMIqPk+VOKUeOrgXKHJwGxnPisthVAfVKOe8kYaWZ2B6frsm79PpxiwnLgKyzzjrBE0laFx4GIiGLUekWUxwHzgjvX8QrEufIkaPrgF4RzNTrzOoQhfTQ4eGy1C492Kct9oqFXvfff3/hVjz02xbT6aefnmgmwwn5TgmZtLe8RIsnpdwp5chRWcBhoOWEB8G0cpglLzUAGCooFXhAhX38oPrFL35xhZ781C8d0+OPP87deD7QbI77l9FSQoZIy2DdGZAB4+VKcuTIURngAbAzM/WKIW24oBDwgBzP6sPECCw0vaKi3zkmzHL50pe+lBinwYwcH2YZorSM150Bywzln6/IkaN7gQfBBQsWJMpjKYjjpAW0gvzemWJAfRR/mPTyyy9XV111lXArFvqdY/rDH/6gnnrqKeE0MBXc/9HRv4xZL2kZqjsDntzwZJQjR47uB1b8jl+6TyunHQlwSuVMhADSuvROOumkxJDEioB+NfkBfcdYsddvgaRNeABfrKkdZ5BCKMfWAC26cgZJc+TI0fVAvYB1Mc2rIqVUh8VsfD266eOJDYWAlly8WDMWev3b3/4m3IqBftViOu200xLdYujC850SxplK6f9F5qpkQIbNnVKOHD0LPCCiRdLZSQ9ZIR5CKAaMNWE83Mff//73xMo1/R39psX08MMPq2233ZYzgwHGkDDrziB+OspCR1pA5QB92/m4Uo4cvQdwCCNGjAjqjywUs4n1KOtxl2EhoIUVd/FvscUW7Jz8h+z+jH5zld/5zneCDAHnEj+tIPNV4kXacrB8+XJ2TDly5Og9QBcaVm5IK9+dDRhrKudhF+PhGBf3kTbTuD+jX7SYbrnlFrXPPvsIpwEn5K/iC4eE1lIpGaTcFlOp9uguwDhY3oWXI0fvA1oj+MZSoZdvgWJVZpoeK4eX80oI6gp092NvgBVqsPZnOe9J9VX0+RYTfji0lnwgg8XvBRgnhUzTUwGrUeROKUeO3gnUJZipl1Z2Oxswtl3M4flAHRZ/HgPde9///veF69/o847p0ksvVU8//bRwGnBKfl8smsaY8JCWYborYMXwcvqZc+TI0f3A+A5aNmlluNSQhVIWkPUB+3giBL52+8wzzwjXf9Gnu/KwOu+666yjZr75pkh0l51Z0cEAEyDiH7gQurorzwxm9uFbnSPHCgV0l8UvvJaKQuUcLbJyek3SJkJgktcDDzxQdj3Vl9CnW0x4evCdEoDWkv+DYWYeZuEhs/RUMN0DOXLk6BvAu0RZZdYv2+WGcltNcI5xnAcffLDfrwjRZ1tMaG6vueaawUKHcEAYIPQdE1Z4gLycp4tyn0QK2eM80Y2XI0eOvgV8ZTZt9YZiVWYxPWblltNqSpsIsdZaa6kXXnih6KsvfRV9tsV07rnnBk4JiKdlmtYSgMzS3cH0V+fIkaPvAa92VOL7TeUs8ApgvDx2kK+++qq65JJLhOt/6JMtJjSzJ02cqOZ77wOhyYvWkg/0ExvHVG4rqBykpY3bOm/evHwWXo4cfRgYs8b7kH4ZL1ZllqLHA2s5dQPi4EHc/xQ7vrqN6eN4AO9v6JMtJizU6jslIJ5aiR8LmQo/aLmhXKSlgZf1cqeUI0ffBhwB3kEy5RrdaX4572hAN2E5gGOMW01vv/22+utf/ypc/0KfazGheb0GPSl86HXjYcYdXozzgaccv/+1nBZTua2r2B4OKZ/wkCNH/wGcAuqTUsp0MRuj78jDK1pNfhzMQH7jjTcS7232dfS5FhOeEHynBMQ/Crr1Otpa6oqAyQ7Y58iRo3+gEssVdaQLLm41wVH9/ve/F67/oE+1mDCZYOqaa6q333lHJOljS+bpxkd3tZjQossnPOTIkYQZHylnBYTeBHS/lfI+ZDlVKl66L7fVhPeaUBcaYCx95syZvAhtf0GfajH9+9//DpwSELeWkOnj1hLg85UKpj86R44cDigb+LTERx99xJUqXozvi8AMvVLGmIrBt+3IS7xxqwnDBr/+9a+F6x/oMy0mZIj11l1XvfzqqyLR7y2hj9UHXkaLf+zOjhkVg7FHS6mvFrocOSoFdIPFH+8cN25c2eWsNwB1TrHp3sWq1FiPVpP/jlIpgKP36xq0mmbNmtVvxpr6TIvpuuuuC5wSEP8IyPBmgLK7A5rWuVPKkSOJuNIFjy7vvgh0u6Gsp9UBHQ3xsEMpSGs19acZen2mxbTl5pupx5+cIVz6mngYTEzrAy7nyawjT3GIU+57CTlyrChA93b8DTKM12BVlr4IPAAXajUVq1LT9HDU5VbF8VjTxIkT1euvv96h7sHehj7RYsKXG32nBOBDWr4TAZ31g+AHr2RA33PulHLkSIe/0r+BGa/pi8B5o3ckrS7oaOjIhJC4xwhdeZdffrlwfRt9wjH94XfnC6WBjB5/4dE0h9N+9HKQFr9YQCHLkSNHOtJ6IVBu+mp3HoAHUTiouC7oaIBjSrtPhYBWW9wN+Mtf/pLT6+vo9Y4JzdWrrrpaOA38IPGPiNZS/GN3JJSLvvzklyNHdyCrwu3L3ydDXQHnFNcfnQlpLctiiB/Qn332WXXbbbcJ13fR6x3TX/7yF7U8mlRQTmupkgEOye/jzZEjRxJZjqmvP9R1daup3BYTgFnIsUPDAtd9Hb168gPeC5o8caKa9f77ItETHPDhPx+QFXraKOcHL8c2H1vKkaM4UEbiLwEYYOmw+EGzLwH1TtydVqxKLaRHnVdulYyVZuJP6zz22GNqiy22EK7voVe3mG688cbAKQFxJjZ9s/gxuzMgA+VOKUeO4ij0sNeXx5kAtJjKbTUVQke78+J7/Lvf/U6ovole7Zj+8JvfCKUBJxSvyosfMu3Hr3TIu/By5CgNhRxTfxijNa0cE4rBt41DR4A6MP7K7ZVXXsmf3emr6LWO6aWXXlJ33XefcBpxawkZvqdaSwg5cuQojmKtgL7eajL1goFfV3QkdARx3Yh7evHFFwvX99BrHdNf/vQn5f9EcEDxU0EprSUgTd6ZkHfh5chRHgq1mvq6YwJMd15XTIboCDDOFS8ugIljHU2vp9ErHRO6yf596aXCaaALL37y6onWkulT7kn0h4LcV4GHkry1XD4KOSZ056Fs9WXE9URnQkcRt5pefvlldV/U69RX0Csd06233qpmR/2jad14pSDth+9M6OlKCW+c55/V6DngoSlfQb58FCqvKFdwTn0dpbaWKoW0h3e0mvoieqVj+uff/y6UBiY9xM3UUltL5SItDT/0ZGsJx8cqzdjn6BnAMZmPxuUoHf19nKk3AHViPNxx9dVXZ07V783odY4JM0luuuUW4TTim21gnEVXhkLo6daSWSi22HnmqBzgmPBw0pdXLegJxC2mmshR5Y6paxDXlehh+cc//iFc30Gvc0z/+c9/VGO00kO8km+praVKhJ4CHJLpwuvJ81jRYSa+5N155SF2TBtNnSiUBpx9/tmYzgOTIOJPtl944YVC9R30Osd0cXQT0YWX9mZ1d4eenvDgd+GZfY7uBfKAaTWj5ZRXpKUj7sqbOnG8GjtymHAaeaupaxC3ml599VX1+OOPC9c30KscE27go08+KZxGVjdeqfCdS2dDTwFP534l2JPnsiIDzshH3moqHXGLaXljk/rU9A2F08i7R7sGaZMgLrvsMqH6BnqVY/rnP/8plAYyc7zSQ6UROyMTego4drwOVk+ez4qM2DHhCT+fOl4aYse0eFmj2jNyTLiX8T3OUT7S6k18p6kv5dVe5ZguK+HdpRUNWUu25M6p+xG/WI3fIK9IS0NcjhcvW66232RdNWRgWIHm3Xldg3hc/oMPPlD33HOPcL0fvabWf+qpp9TMt98WTqPQ54tXFGQV1NwxdT/SnFDeYioNcYtpCbWY6utq1c6bTxOJRu6YugaYABF/Fbcvdef1Gsd0zTXXCKWBjBzPLlkRkfXiYe6Yuhe433GLCcgdU2lIOibtgPbcemPeG8D55/e0axA/2KOO7SuOv9c4pquvvFIoDXTjxZl5RQMKaFYhzR1T9yLr/bGenq3ZV5DWYiKh2m3LDVRdNOs2bzV1DWLHhJm9t0TviPZW9ArHhDWdXnrlFeE08m687NYSkDum7kVaawnIHVNpSI4xNSq4qmFDBqptNpyqhYLcMXUN6urqEq/a9JXuvF7hmPJuvHQUek8md0zdi6xJDrljKg1xi2lZY5NqbWtn57Tn1htpoQD5Pr+vXYP4Af/222/vE+sS9grHdFXUjQentKJ34wF5i6n3IHdMnUNcnpF/l5JzIo3ac5tNAj10faHy7AuIp43j1ZO+MDuvxx3Tm2++qZ56+mnhNPJuvMLjS0DumLoXeVde55D22sfipcvhl9T40SPUhtESRfnLtl0DdOfFs/NuvPFGoXovetwxXXvttUJp5N14GsWWu8kdU/cB9zrrISF3TKUhrQeEJ0BwZ55Se20Tzs5DiynP412DuNUEx9Tb722PO6Z4lgjWxlvRX6oFir242ZmMlfX0nyMdxe5X7pyKI9sxAVWJaePI33l3XtcgdkzvvPOOejrqpept6FEPgLXG/ve//wmnEd/EFRWVbDEtXLgwfxotA7lj6jxSHdPy5STX9Dqrr6rWWGWsZgT57LyuQdrD/g033CBU70SPOqa777478VSUOyaNSrWYzJNo/jRaOnLH1HnAMcXOafFS3ZUHMUK8qGueR7sGuO/x8EhvH2fqUcd02223CaWBOffxQN2KCFSEseOJP6zWUceEwo64+dNo6cgdU9cgdkxm9Qc4J4Tdt8oXda0U4gf+GTNmqPfff1+43ode5ZjySQ8acTdeQ32dmjpxZeE0OuqYjEPKHVPpyB1T1yDRYuLVH4QhTN9gqho6KJyRm7eaugZx3Yr648477xSu96HHHBO+vTRz5kzhNPJuPI34KXH9yRPU8CHhd6k665hQmRYbx8qhUcwxFZrWn8Mh0WJarrvySME8libacbN1mTbIH6C6BhhjwliTj978PlOPOaa4tYRMG9+4FRWxY9pordXV4OjzAB1xTPEb9XmhLw44nfherzR8qFAaeYupNCSWJcJ7TAZwThR23XIDEWjEeTZHxxHXr3fddZdQvQ+9xjHhpsVPVCsqYse0MTmm+Ls1HXFMcbdI/hJjcaS1lqZvuLZQGnnFWRrSxpiq/L48wm5bbpiwy7vzugZxdx6mjaPnqjeiRxwTKt77779fOI28G08jbeID3oofPDDZR1wu4hZSPrhcHLFjGjNymJoycbxwGnlXXmlIOiY9xgS5cVBjRw1XG02dxLRB3rLvGqQ9/GNmdG9EjzimJ598kt9h8pFPfNCIHQU+pjZltfGddkxZTigv9IURO6YpE1ehynOEcBp5i6k0xF15blYeAQ5KnNNu0ey8vMXUNYBTirvzcsfkIW4tIcPGy7OvqIidx9qTVlG1NdWJMaZyK8MsB5Q7psKIW0Nr0kPCGHqq95E7ptIQP60v4jEmTwbnRDbozvOB+5tP1OkaxI4JEyB6Y/7tFY4pvlkrMmLHtN7k1bjAdrbFlPXUiePlXVHZiFtMU6nFNGZk0jF1pGt1RUPsmExXnt443cbrrM5dpj7yB6iuQdwz9fHHH6vnn39euN6DbndMqATjZYjybjyHuCJcf80JVGSr1OBoDK7cirDQE2de6NOBe5zsyqMWU+SYgLzVVByJWXmmK8/6JO2gqsmB7RrNzsu787oGaeNMjzzyiFC9B93umJ555hm1YMEC4TTyFpMGKre49cItJsKQQR13TMWm3OaOKR1pLcnJE9CVF44xAbljKo5ki8mblad9kiDZnZe37LsOcX2bOyZC2vgSvhmSI9mNB0ybPIH3nenKK/a0CX1esSYRV4TV1VVq9VXGqpVGDGXaR37/iiN2TOY9Ju2cRCfkTpuvr+pqw+XJ8lZT1yCubx999FGheg963DHlrSWH2DGtMmaUGjF0MEq0Gjo4XKql3BaTjy3Wm5KoJPJWUxJxN954+j0GDKhXNTXVaszIsNWUP80XR8IxoSsv8Ed6CwwbMlBttu6aTBvkjqlrENe5L7/8cqIXq6fR7Y7poYceEkojd0wOyYkP1FqSwjx8cLgkEVDKUzocWOyYDvvUtmqTtdcQTiN3TEnEjmmNVVfmyhN/q608WqQauWMqjniMaekyLChMBPK4zua80w5KqZ23WJ/3Brlj6hrELSbUI48//rhwvQPd6phmzZqlPvroI+E0csfkEFeE02R8CYhbTEAprSY4pdhux83XV3ttt6lwGij05bTCVgTEzmbyBLeQ7oRxuWMqF3GLqY3y21JeLw8Q5yQmcE47bx5OgEAFWmgST47SgC84xF9x6G3ded3qmB577DGhHPLxJYfYMa2z+iq8R1mNF3EFSmkxxU+ZE8eP4Q+y7R05Jjil/Ik0RPx7sGPip/sqNSFvMZWN2DEBwXp5xjOJ2UZrTeLxPB95Hu0axA2CFdoxxc1FOKW0zLoiApVg3GJZmxwTd2vQPUpzTKW0cOKCvONm6/F+7UkTghYAkHfnhSjYYhqbO6ZyEXflAUuWUwsoUQdo54QJJjtuOk1kGrlj6hrEDQKsxtOb0OOOKYdG/HSODwNOnTDePj3im0xYnshHsRYT9PG4lXZMuuDvuc3GWijIC70DHE3s+DFVnEeY8hZTh5D2ELpk2TKdxdOcE4Wdt8hXG68E4roXHw3Ey7a9Bd3mmJCZYq+cOyaH2DGtvsoY1dDg358qNSyaAFGsxZTWH781VsaWOmDPbcPuPFSueR++Rvx7AGtMGGfvXTzGhN8irzALI90x6Ych1kAf2exCjimOlz9AdR5pde9zzz0nVM+j2xzTSy+9pBYuXCicRj7xwSFu2ay9+qpCAbpgxt15xSrC2MmsudrKatxKZppzldpqg7UT3xbKC71G7Jhw34YMwv3Hb4EW0xiW+0hzZjkc4GBiJ6NXf9AyfWexcTZYbXydNfyykOfRrgC6VeMJECukY3riiSeE0kAGzRdudYgrNSzeqkGFVErssGhmXrmOafoGawmlCz4Wh901Wsk5H2fSiLvm1uCJD0RIGD1ymBrYED5Y5d15xZFwTJj8wCIn1yxtRbRr1J2XO6auQVz/rpCO6dlnnxVKA03JOJOuyIgd01rsmFzhBFHO59Whi1thaCEhHS7zkm7cnYc4eQWb/D0wvqR/DB2qqqrV6quOg8oiv2/FkeqYAL6t5v56W5LF40y4z3nrtPOIu/NWSMcUX3TeWnJAIYudzDqTVjWlk4Ah9+S7TIVaTHAwcZoYX3L1AogqtcsWGyYmVeStppQWE79ca+6aDtpZOeSVZXEku/LQ+vFkTGoeWwR8MXjQgHBJrrzV1HnEdfALL7zQa8ZJe8wx5RMfHOIKDTPypkw0U5O1UwKGldFiiltLo4YNocp1rHAmRXJ2QwaqbTdeVziN3DElHdP4saPottF988Lk1XLHVC7iKeOYlafh8qQmHd9AD07TNzTd0Bq5Y+o84jp48eLF6u233xauZ9EtjmnOnDnqww8/FE4jbzE5xBXahHEr8fRwFE5bPIkoZ/JD7Jg2mDqJ6lL83MkKIO7Ow9hUIafX34Frj+9t2qcuYseUd+UVR9xiwqw8J0rmTYNtN1pHKI189mjnkVYHv/7660L1LLrFMaX1XeYtJofYMU3GtGQqlGF5rVJDB5W+kGvsmDZee7JQBKTHtYE+wh7bbMJ7A6S7Ij+Rpjn80eyYzD3TIe7Kg2NakR16KcgaY4JYq8z9NaTm41Y9fqO8hdo54LeIZ+bNnDlTqJ5Fjzgm3Iy0t8BXVMRP2mtO0OMZDCY0V2qLCZVjXGg3XGt1TXjpAaAmjh+r1sKYlocVuTsvreXD32DCzfLCmhNDxwTkrabCSHdM5qZCzzuCZ0fkRmutoQYPDL9JlnfndR6xY3rjjTeE6ll0i3eIP92bd+OFiJ3Imma2F5dNV0BHDBsslEaWY0p7ct9w6qQgPWw1q/ldt9qI9wadLfQ4Ps4D14bWG9JDWLZsGYelS5dyWLJkCfdt+2HRokX8zltng58mjmOOac4BAQ7YnBu6h3Cuad1E6MpDG9b/mzBuTGLiSP4UXxjxA6n9ii1D8qbeESyh6upq1FbrTxVOI+/O6zziuniFckz43oePvBvPwVTgPtBi0mXSFUyQ8ThHlmOKK8daeiqauAomPuj07NZ7et0tep8J52S6A00LzDgWVPJwHviGy7x583gpk9mzZ/PK8RhLxPImH3zwAfOQY4xx7ty5HD755BMO8+fP54A0YoeCtH2n0tHgp4njmGOac0DA+Ztzw3XgXGHvA+8rDcGMSNwuL+C7TJNWCaeM49z968J5GKeIe+c7QNxj/IbxQ0R/RmqLKRBpJs05bbNxOM6Ee5mjc1ihu/Jee+01oTTim7EiI+0Je/JqeozJgskqNa7ET3rHjm7VsaPYOQE6Kdp6yYPZZuNpamA0JReVNpwLnAwcjHEsqHRRAaPCRYsDFS2uw1S0/Q16fCkd8QQIOBy/Jeg7Rdw73wEaR477C2cOOnbm+A0QD/GRlnHaSN+0+Pz739udXNIxYVZeMj/y1so0kY8zdT1W2BYTChMKm4+8K88hLljoGgrWYeMyiY4jRY4pWUGmOYI4zUncWjJJ2dIuIJ7+sS7fdpuEBR8VXezkVkSM4fuO+5YMa0aOqTPAb4n7jd/PdH/C8cABwdnBIcExGWdnWnx+ixVODgFODjLozAOFcW5IJ27B4Zg4fqUdW3K6uGn10P3ELbXQjO+cNl57jfx9pi5G3EhA/kJ+6WlUUUasaE7Ewq2bb765cBrjxo3LW00C81RtgBUfHvz72cIRqGSastlGv9Qqu39etXjOYvTo0Yk1B1EJodIxOGLvHdXvT/+iX8oFxIsIu79cdbv69m/+oQUVAN7PGioL0Q4eNEDV1dZwS25INNsQkzw6OzkGH6FbuHgJ08jh8xdpGpi/aLFQSi0gebEi8KltN1PXnP8D4UL8+T83q2/84s/C9Q+gVYP7b/alhlIAhwgHabDKmFHq+at/p4JfIPg9NG1Eh3zr5+qex92Y9cCBA9XIkSOFy1Eu8CAUNxwwWW399cOvB3c3Ku6YLr/8cnX44YcLpzP9+PFd95TZ14EnX3TLGGCs57KfnaYZzymx66D/9Q8+RX348SciU2rUqFFqwIAB9ikbAU7Jb+kcf8Du6tzTjhPOQKcnFG/fePdDtflnT2UuC/hw2+gRw9So4cM0PXIYj32tRPyIYUPIyQzgFSqwEjqczxCqOLAfMXSIPZ47ooAJy4XwnGlo4XGpUTPSA0iVlhYcWRu8P+glS1WrtEbhPFdLWbQVePPdD9S1dz7IXVL4Gis+F/7JwsVqGWgKiygdpAV+ybLl7Aj7K9KcVRyQP/FUboCHkDdv/Rt7nrAiIs4KNIGa6leXXK9+duFVzAN4wMWDbo6OAdU/Wtg+7rjjDrX77rsL1zOouGM666yz1Pe//33h9MSHMWPSC/mKCHTF+FOzj913Z3Xu1z9Hv0zSKQG7fPH76tlX39IMAd2i6IJJ69IzwIy7K3/5beEkIbtzRwG58+fPpNZGm5o0fixPI5+0yhge4J80foxanfYDsHCp5yw0JJVAHKaroYmQ9ewsSOaJHZkqFCQEGiROjd+DgIOCo1pEzgzOEDRmpy1cjLEp7eBgg1aecWhwcHB+Ju4nC5cQvYwdXVNz3x1nQSt6zn2XaqYE53TXY8+pQ7/1C6YNVl55ZXZ6OToGdPv69cfFF1+sjjnmGOF6BhV3TLjASy65RDjFT/d4ys+hgUFuPEUafOf4g9SpR+0XVqGeI/js6b9Sdz7yjHClAS2cV2/8E1FBLU2kMFbmKYHAOQrSnFIg8hhLaiJkPTsLkok41KYKCQkBi5w0RZ8Ga1aifdnwK9hi0Ia8TY0TCYmFI0P35AIOS9ihLSCHN59abkybYGS0ZztybpBVuAooivf++3c38aaIc5pH5z91368Ir7HSSiuphoZw7ClH6YjroHPOOUd9+9vmQbZnUHHHtNNOO6n77rtPOKWGDBmihg0bJlyO+GnlgjO/pA7dfRvhAL+mrVKn/OJv6l+3uPtZDBjHWXeN1dQNv/tesNZeQafEh/R4Bgs9iEUks/CUVurJQpBMxE7r2QVRAkaDRFqaoouRcKw9Cb/SzYI24G3CNhJY1otjkFrMSUb/aKnBWcFpsfPynNnc+QvV3AUL1cefLFSfLFikPqaA/dz5i4Kxzs7glRv+pMaM9OqEIs5pk8O+rmZ96L62ivoE9UqOjgGTHfxJJKeeeqo677zzhOsZVNwxTZ48Wb355pvCKTV8+HA1eHD4ouiKCtz6uH/3pt+eyaspa9gal6CJn/7tSnXepTcwHaO6ukqtOWG82nTdyWqTdddUm66zJq+R14DJEV59XLZTSmsl6Z3A00cyx3o2FiQTsdMmBIJIQKyWJAwdWFVAHyE1vdKje5WnQ1zFFoZfAadBK5MlNhJYVux5KyjgoIQSOJmGp2ESk0uWqjmfLFDzyFFxIGeF/VwKH89fwM5L6xZTWMh7M27n48nLf+MtMCygg4SHd9xnTj1b/e+pF4XTY1toMaE3Bvu8W688YDIKJqUYHHbYYTw3oCdRUceElgBmzfhvaJvB+hx62R+MMfnAxwDrajFlfCWeirwZOZlPbb2x/uwCVZJ/ufoOdcb5umt0tXGjyQGREyIHBGe08Vpr6E9jBE6AaI/tEqcUiML4hrdST+ZAvIicJiEQhAJ37IShRuJ8kwiusbh510JKW2kOi2wyzSSFhN4TWFITIevZGUhV4DRCWYEXh0jNhTKf16ynJ4l1VHBaC+HAFqq9t99cjcTkGD8tIHBORAnzpbMuUFfd+ZBmUoBZqnBQGH81k4LMdHgD6DBxAraoj1bkWcLmFQIDTHzABIieREUdE1oDq6xivsSqgYkPK/LKD7jd5gVMFJZSse4aE9QJB+6uNps2hWflbbL2ZDV6FLo/XM3KVE84JSvThGMDYw1PlqACc48hUnOBgUPacTwkr7sYSjYsgDKKFZsWcVWZxVTLk2pPYEmx5S2BCc+OQbyI9C5gBE4W2ABMOl6znp5BvBV5162NmbSguE5CFP1/7w//UhdccavIugZwUOgOXBEfmjFL0p8pudVWW6lHHnlEuJ5BRdu877zzjlAOK/KTCZwR3hnAFPFynBLw0pvvqm/86u/qgK//TL026wM1bCjGi1wFylRQQYeVa+ecErT0F8QVxpNZKRNWISBeZKz2KScgeAxUCL7MgEViEEFb43x1EEEKjCIKKaKyQ6rQhAgslvOVvwT4OiQE4MgpKi0PSU2IVFjLCYgXmdtCxoxAGIiZ9JQgvTQ16+kZxFtRdD6OE/h3gyj633/n6erAXbdWI4d13bgSenXQe4GXkle0l3bjrk//vcqeQkVbTFdddZU65JBDhKODUQZdEd9hghPCS6/+zJfOYvKEldUvTztO7bj5+rrgFij8tmhbE8+WzTxeCzyI1so8padwak9vIDKnESow9RgiNRcYaKSlT7D26WpCWlqyz0TSwJdkF5wiRSqhLmBPqsy2VGrR1bJQ5TGWFDveEpjw7ABJxEmFsgJPw6TjGdH5hVWN0FZUoOWUdh70j/GqJ154Q5178TXq/idfSB2/6igwBDFixAius/o74peeV111VfXuu+8K1zOoaIsJM858rGitJTyFwSHhKawrnRIw890P1UHfOEed9ssL1bLGeJVlKkxSnnrWKRGf5pTAWIHHQIXgywxYEckIsNWtIgQRWkAgwSNtYHAKGX8ZUQRpeh2Sf07rkVaUEDgQ61pSEVKvGwzZ6p3AYyypCZF6Mg+SNqRaI3rZeYQ+nscztNAirOSFtqIC5xKlwzr6x3jVeZder+55/LkudUoAXlKPp1H3V/TGFlNFHRN+WB/9fbYMBleRoeGM4JSxTpm/NFAxYLXq8aNHJr67lAU8gV58w91q75N+rD6YYyZR6EIrVARPwma+BQs8iNbKhMDOU1gyo/IQSrZOpuEYRNdHDAxEEcq0Ff3pSBG0loNHanCs6M+Dbx8E2pQUUuIKnMg/shg4pYgCRoNZioXgyxnEm+NbaDuIndxjPJmVMmEVAuJFpHcBQ7CERHU8I04v4IW2osjWB8XztQ8/+6ra9nOnq/8+8rRIuh7o6UAZ7u9de+EDg+KJEP5EkZ5ARbvyvvKVr6g//Qkvdmr0x5drkXkxu86s8lwuMLNuz202Vp/bd1e1zmTzsb4q9dHc+VT4Xla3/O9JddP9TxR9u39lcmj/+tk3eZYeoLOaZDjeeZmPyLCYE6IKI4wihMeHKstpSFpOKpQVePZEas6TAVFhAfioSTHBEyb0iSvVCISpFhWAV9RSSp0WZdmkR0jt5kst0mSZlR6TmrdST2aR0aWm4UmZdDzDOzifc6AWxu58PjAktl39+9b7uaegWJkYNWyIOuRT26pPTd9YTVx5JfXo86+pOx99Vt33xPPqk0XlLQ2Fumvo0KH9cuIW6i04YB/o3kN3Zk+hoo7p4IMPVldffbVwSg0aNIj7bfs60Lw3qz6XO4kBwBPKXttuqn5x6tFq5ZWwACVVjFFF6epl7aR+f/nN6m/X/rdgYcTKy//6+TfVTpthAUZJgHde4kQmqupKO6XAxNMwGSiFDWVaFNkxRJZQpTgjK0hLpwRwtLS4VHw6XIIkYkp8LfIUgU0UgdjSHJRYBWJhrMxLKWlMrOadlCjLeFImHa9JTw/aU1tG7KxKeIPfXHq9+vGf/yNcOrCG4/997kB1xF7bq4ED6hNptFBr4MkXXld3PvasuuPhp9ULbyQnaWUBwxFwUgiYyRe3Nvoi0hwTZun15EvLFXVMO+ywg3rggQeE69urPsAZwREhdOZTEBPGrqT+8v0T1ZbrTREJIXIMvI0rQiLfeOdD9fVzL1QPPv2SCJNoqK9Tl579DbUbPSW66C6dREGKjs1cHM/jQ5XlCEQLq3cBI3CywMYgpZDzERNiEQTyTjqj1GN3DMkCRZKSSpkYebaaTAgEAcNs0kGxMAJZBTJhrEwTvHUbh0o6J8snndMv/nGNOsdbwDUG8vZx++2ivvvFQ3kRYS8xm4YjnW7WB3PULQ/OUP+48R4uY6UCQxNwUGhZ9OUlkVC3xcMuGI7oyUZERR3TtGnT1EsvuUq0r636gNaQcUYdaRnF2H6TddXffnCSGjV8qFfpEWUZTbg6Ugjeabq9rV2df9mN6uy/XZW5JExDXZ267vzvqOkb4oufNjFO2OOY9xE6ASE8PlRZjkC0sHoXMARLyCEdz0iRddghWSYR2cG77gJWXY6goBUsdqKLTAKnY8mEUWhnkDhehnMCmNS8Iz09IJH9rTNxttrM8fF5hM5JCLtz/B8uv4nfX8oC1oP83elf5JfROWacJuAdm6ngXIim/wefflkd96M/8Arx5QBOCg4KIf4MTW9HmmNCCwprEPYUKjobIZ7d0ReavRj0w/tG+GEwmw5N2mJOCZ/e3mnz9XmfhT232URdfs43CjglDXeL0u8Vlh069ajPqCvO/b/MSRKNlNF+9rcrifLSSBwqTt83SOpCla8nWli9CxiCJTKcEnjPBgGywExsZKeBc4rOi5nAyIHTJHsEsBJC+BoKEqfsEKTjEGiCOND6YIuELrhiMfEIDSL1NXoyAGkFIIsgqqdnUvOO9PSApOdvnYmzDfRAdB7heQptd5pobGlWP//7NUynYZ01Jqg7/vwjcUoa7jAp6aeCdPS/7cbrqLv+9EM1edXyPqXh1xt4VxF1X1+e0dcVD+KdQUUdk/82MdCbZ+WZqd3mBdhiExngFA7ebWv19x+epJ6+/Je8Zlhy2rYGCsxFP/wqPUkV+nJvRqFhsdZpUtM7bbGBuv1PP+IPraXh3Y+8r1BSlEQF4LPQBryAZZ4i5kELq3cBQ7CEpO94RlollTgR4a0YVt7VgOA4JniAnILvjByMRNvoEIo7jCAd2pgQJewktLU2MYxOk1oSMEJ6MoBI7y5pmHQsxMLKPKWncKSnB+R8/a0zcbwVGcTXGbChDhxWQdefYE9iu02mqdsu+CF/lsUhcUQNFmudJtPtVhu3krruvG+riSt7X5IuA+jqx8w2tEIQ4LB6epZbIfBDUoQKdqSVhIp5ClyYv/4SkHYDehLmKcd8ghpddoV+kBHkjI7ca3t1+c++rl648jx1weknqH2221T9+9b/ZQ6gbrbumupv3z+RV/lGcXB3gKjodrjb4ysiIw9rTZqgbvrDD9TEoFBqbLvxNKGQQnwg2TNIG/Fup2lHis5AWM/KM3G2On3HMxnlBT7HQMRGdgfAxpqw3FP6gJxCUisS1js2hK/obIhgVbSJzt2pRMd6H2IhYs2JDJCdRzCZbD2xUGhA9Fbk6ZjUvCM9PSCsZ+XBV2boCOHxBZavUmNHDVdTJoZLmwE7b7mhuuIX39LrQ6ak4S4zTjwLLg1MSrr8nNPUqOHZEwD222FTtcrowuMwaDXhQRcPvObbaz1d6cdIOx+MnfUkKjbGBKeE6ZU+0j4D3hNAZoFDKuaIgPq6WrX7VhtS62i62o0KAvi4IB33wwvUzf97UjgHvJN0919+xP3f2t6vIvw0NJEoSLwTHW+sgYbw7330sTrmO+epp16eyTzGlv51zje52xAR/aPGaaRWSh7vSEtpCO9v/XhmF+gBJh2vWU/PEN6K/fOQvSMcKJ2kVCQp5hopMTJty0N61srIbywOdZZLTYhknjgYV3IRZU9gc48HonRTx3sAJjXvSE8PWv8LfMaTMun4xPEDXmjZPf3qTHX0Gb9W71JeBw7efVseU2qg8hikkpJG8rh2I6Sng0RY3A+8L3XQN3+hWlqTLZ7vfv4z6th9tlNPvvyWuul/T6tbHnpGzV1QfGzKjEdhvB2LyfY00mblwYH25ISOijkmvGAaLz/U0wu44geAw8RNLwQ8ZW69wVR18K7T1ae330yP5Xi1VVyZ//ivV6rf/ydcVBItpOvPO0NtYWbfBZWmHx8gnZeeRXBMbPxIRAuLlPEzvvzWu/xF0LVWn2AUrHNwcTRSjuvxjgwiWd7f+vEMtJnjNenpQXtqy3iy4PyZDCJo0IGSUpKkmMbC+NI0UoVlIlmskiUtpeixKJRbLpGA8MEulHkEk511TqHK04PW/wKfEcKKrIJIR4fHBny+XTW1tKoX35jF7yet5nezURp+Kn4c3ka83omON9ZAQ3izveDK29UP/5Scov7XMz+vdtnc9Uxg9YmHnn1d3fi/p9RtDz+rliwr/mIuHtTxGg0cVU/1KOEFYnyTyQCOszMzj7sCFXNMs2bNUpMmTRJOY+zYsT3yhACHhPGuYm9wwwHtt8Pm6gsH7KLWnmRediVEGSbMQFVqzvyFaq+v/sR+vKya9L887Vh19D47Ms8gmYtFlGU04ZIUgnei4401IBAtrGchO6GB4JiEKI2ATUnDkaJjEK3/BT7jSZl0vCY9PWhPbRkr8849SWjIBYRS4iIzDScMrxtIjZCO2LSs0hMahyUvSojZyJ43kR2DZCLWu4AhWILJDjknj3ekpTSE97d+PN7yzgqFdHyhY9sj884aERldUXBemk4e19Fa5ekgERYpo4o85dyL1OW3P6iFhJ02XVf95czj+EEwDY3NLequx19Q1977pLpvxstFl0wyU8/Riuruh3c8qPuf38E5xMMw3Y2KOaY33nhDTZnivatDGDduXLeul4cbDodUbHbMdGodHbPPDurT222mu+q48vFqIK8mS61Q6X/hkmXqunse4y997r71RmrDqauLnkDxwyg+5zsITx4cE5swjjG1KVu148OjssAivA4heKdpR4qOQbT+F/iMJ2XS8Zr09KA9tWWszDtzJgJjKwulxEVmviC4fUlDh1LtCsIrUpmlyynCEhhFYNazlX0UiUC8JworcSBQOr1BVDEzZ0VCeLwjLaUhvN06Q9kbE8f7aXDKnooZy/vnFRgR618RUZbRhDuEELwTHW+sAYFoYY0FXtO445Fn1LOvvaVWGzNc7bn1BplOKcb7H89X197zhLrm3ifUWx+EXWZpQCsKzgGOqjtaURjSwMQvAzQgMCbWk6iYY3r55ZfVuuuuK5xGdzkmtJAwXbPQzDq8iPrZ3bdWx++/i1prIrocJQPQTlOOtzShUIUeii1HpF+JEhUaepWmELwTHW+sAYFoYT0L2QkNBMckRGmkHxPwr8OPQxDe3/rxeMs7KxTS8Zy6p7aMlfnHtxsHOkAoES4QOia8hDAmw4pSdBHSLEovPEFNF8EJExWoAbOeHW8iG6O3O0+vIzDJIDLQA1HlHCYvDO807UjRMYjW/wKfEYJFzkKTjmedZYWwO5+3RkT6KRLlqcCk3lcROpUfiWhh/WO2tjSppUs71ppAVTvjlbfVf+58VN3y4NNqWWPhB2a0ouCg0NVXyXoTrSP/1Z71119fPffcc8L1DCrmmF544QW+QB8rr7xyRaeMo18UNxhPAFkYOmiAOnbfndQXyCGNHTk8UTElK1ZHa5Wng0RYW11qIyYZYm8lcXxseefJO3RMwPFB9R3EF50VCcE7TTtSdICk4W+d2vGx2yh6LcHO02ljJi0obighLjIxgvCSIyNmExEZCWmYUGFwSXLFKbtgkSZVqYVhifQYJh1vqUQRJl5EfnWtyZAP9FrgIatC1xunCiJZ3m4DtUh55ym8NLTK0wVpyHHdxoHiOAlRltFE8ph2I6Sng0RYmyrtmpqWq8bl7jPkHQX3sNw3Q13+30fUK29/INJ0oNVkuvkqMXkMdabfdbfrrruqO++8U7ieQcUc0yuvvKLWWQcrDzhUqsWES0CXHWbaZV3OmJHD2Bl97tM7quFmeilg6x1N6HrIq4y8iim7QhedJsxGg+I7jihPBcYlLwTvNK1JayAgXv9r2u6EBoJjEoI0so4JePGiOPIv8BkhrMgqiPRoQjw2F+78eHbjQHFDCXGBQDPhIcMYmg1loXlk3xXg7KjzZDJniiShEHsrjwyYFRveEhL5nngR+RWrhmfLZh6vBR5Ia3khPN6RfiSi9b/AZ4RgkbPQpONZZ1kh7M7nrRGRfopEeSow6dehaU1aAwLRwloL+l9OTqmZnFNX4ilqRV1GDqqUVhTGn+CgunKyBLrx/If5I444Qv3rX9mrbHQHKuaY3nzzTTV5sl7p2qASkx8woQEfucqaRYIJDad8dk/1eWolNcjKDPrnpK39XYWwIqsg0tFcNVpWCN75FbrdaAQVKlGhoSTvLDQpOt54OkiEtalateODKjzKvKVdg6U0hPe3nrHe8s4KjcAi+7iAf2y70RDeSYjy1Bpa4A4ZGTAbypxpZJuKUmxKLEZS3JLWJAmEjklUqACTng1vPD2DeBGFlTng2VI8j2PeQXRxPE/oSNEBwXWK3KpFyjsrNAIGH9VTMSN8eC2eUZHr4G1KHAOt8nSQCGtSXrpkkWptqcyKDroV9aS65NYH1cz3wiWCYqDnCa/jwEl1FpiR508M+/rXv65+/etfC9czqFi/WqXfV8LLsXBIuKlpTqmOHOAXD9hFPXLRj9VXDtqdx5RKg1cJxZVWXD+l8mXET0VJRhFKjUN21lSIolG1QWCWmoZnERiDJUEkc3xnnBIY0kPMcs1bMOtkhuInTRcpgrVyNp4oO9DGpumHCGKT1EIuJMNZcJIMz4BJx2vW0zOIF5G9i9bEs43jBbx//2P4acjeIODTU0hKnST1qCKyGiY8O7mvFgGThZKMLNraKjeNetjggeqYvbdTd5z/f+riH3xR7bbFejzDNw2o/7pqyaN4+aF40lpPoGItJnStxSuJd9ULtphth7ep0xwSKp39tt9UnXHsZ6JlSghBxiXKMprQecBZ+AWUY3oqZoS3qfLOM8o8HkA6ywvBO01r0hoQiBbWWli1JSiKo0MbkD4vBO80rUlroCG83Vq1s9MmjvfT0CpPZ+y0wsUSPgDFcxKiArVmXNKeksnAWEShzEHkKeqUVFKgi1BmQbKKFAspfqGGuEAgNlbmKZl0vGY9PSTC6p3PCA0QGbY3WGARtmCE4J2mHSk6ILg2kUc22sTx/rlnH1N0mjAbDYrvOKI8FRiXvBC807QmrQGBaGG1rk0tWuhmr3UH3vlonvrX7Q+pK+98TM1fHI5tocUUL2JQLuDg4i+N33333WrnnXcWrmdQMccEoB/Uf5kVHwnszFIX8OwYqMt6QRaz6351ypFqc/lYXqJC1P+a9nZWyjsrNAJGdqUuOk2YjQbFdxxRltFE8nh2I6Sng0TY8HiA4/0jxvEd6+w1vFgpx3QSn9FEoWsAOGXLCmF3Pm+NNChhJyEqUGsmcT0Ak44Xy8BEQwSR3Np3GrpYBYXLMilFLqhQAeJSIicqVoBJ0fOWUKiCDRihgfgcojQCNkrDqlKO6yQ+owlt7iz8+Frl6aL4Wm83GmLvzDydSLOOabeeyvAQtbU2qyWLe+az48ubmtVOXz5bzZnv1h/FZykwY68zSFv14YMPPuCJaj2JLu/KQ9faCSecoDbaaKPEC62daXrCIWFBxDSnhFUWMI50x+9OV5tZp6R3Fpm8EB2ui/yIHU5EUDg+XtJ7490P1ePPv6oemPGCeu61t9T8Rf5TVEeO78WJowc8MZaPDX04XeiUBKWkETglQgpTslOCoWeiGZGJXJP6LxJmBNqYdNMCQzMmVYbVW8JBrtlJiQrOXRMQaVhCSNHzNgZJRZHU+5JIG7DEJCNbOJVvpOkC0ZIW7gK1NI4s/MfzF6pnXn1T3ffk8+rJF99Qb38wh/wLuQ8vPiOOnwpt5G9jQFrsJdlKAqtIxMsddcVEsviVmrHk7MZSy7CnUZEW0w3XXKOOPOootThl2na5Xh6nh1kjWa2k9SZPUOedepRaf8pqIpGKwG00JMParVUJwSIrFLHjs7rIbBzeeTZk73HMO5DOskLwTtOa1PSiJcvUDfc+pq6+6yFySK9RBg3vA85rymrj1e5bb6IO33tHtYF9sZfi6yQYfDaWF4J33nlG5yj/Ap/RhDZ3Fpp0fOKeBTuf9+wojscRiLMCTbhkPUsmRc9bQnB8gHhPFFkHZMSUiahIeWzQJrFkbB9YEYiLbF2p9SyZFD1vPB0gvL/14zCIDM/Ro6GxrBAe78gwjvxr2ttZKe+s0AgYnKqwDz/zkrri9gfUXY8+o96RVVZ8jBg6WG2z0TrqoN22UXttt5mMK7v4hki/BtHxxhoQiBZ2+fIlqqkxvR6qNK6/f4Y67Tf/Fk6jM6/fYBgEM/Ewk9kfEjlss03UP445XFWPXVnVbLyZqll7XSoKnSkLHUOXO6bWV19WLQ/cTU8zr6kD//J39d78BaJxKLVvFKeGFljai7L49tHJh+2hTjxod71yN987fQMd6d1Qubl2a1Ui4Z0VGgFDqzydF7+0CpYoTwXGJScE7zSNLZY0+eMVt6rfXXZTWR8tg4P63pc+qzZc258RmXU8QM7TbTQkgr91apHyzgqNgMGpeipmhLd3hneBEbFWSyAqUKdcB8Ck5p3a0zOIF1Fk6ZGeLEYBlam40uEpAzKWR4lQ3g8lxFmBJgpVsIBmHc8SYW3qVu348MgssPAdhSV458WKq5TgWohyhnrLO2fhxwf1vxkvqB//6TLuKSgV48eMVN845gB1zL47q5ogL9C52OSF4J2mNWkNCEQLu2TJAtXaQ98p+sZvL+MZewaYNo61R8sFHvCXLl2a+aB/4VGfVUdssalwSlWPG69qd/mUqh4zViTdg65zTM1Nqun2m1XbzNdFoNQHCxaqg/76D/XUO++KxAGtpmKf7sWsO9xEH1gG5LDdp6tvHbWPGjdqOEkk0/FO05r0MyMhs8LThDZ3Fn78sJIVwu583hoRWe7x7EY99dIb6sSz/6xeffs95stFLTXxv37M/ur/Pn+IdtqUrrscIbzjOVJ0gESwW6sSgkVWKGLHZ7eWvFjCW2TeM0Azhe6blcbH9tjkOQO+vYCjpciLwFbBiVLlCSzpV+Z240BFM5DEFSa2ViQE70THG2sgIF7/a9ruhAZY7/MeDY1lheCdph0pOkAi2K1VCcEiKxRxO/cOfOf8f6qLb7iLkvD0ZWCL9aaqC77zJTV5VTNmotPRyfnHFLnZeirDL1o4r8Pn0RlgfGmrz/9ILV7qnEk5Ex9wzqhH0Toq9AFAlNm3zvqeGjs0+tQH1bm1W22rareYLoLKo0vGmNrpgpuuvjxwSsD44cPUf0/+stp3o/VE4oAbhZl1WYA+dkqDBtSrC7/7BfXLrx0hTimJ9Kqk/AqmNHRlujqt6+55RO3ztbMCp4RJI1/60pfUtddey4vjogWJzIb79+ijj/I7B1tttZVYK/7k+rl/v1od/PWfqgWLlxQ8S6fzrTRdWjwDP6WUmCKyGiY8u5QoDloZ+BsgTgMoxSlhx6QlNJglKwRfXgZ0TPrDeQRJcOKOZHhHYcJyGnweHrIZBy8dTabbJaXpdoUhcfSBmGTESWXyQvDOMyLyw48/UXuf+AP1j+vvtM4A3Va77LKLuuCCC9TTTz/NM3+hw9P/zJkz1eWXX66OOuqo4N2ex194Te18wnfVfx95WiSFoc/COxdBe3urPY/uxt1PvBg4JaCUSWSYcYexefPx00JOaQhWxNlnO9Uwaahqjy+f0ml5+AHVfNdtTHcHOt1iam9crpr+c6lqn5+cRtlST83fETWqsaFd/eySm9Wfrr1HNA5pnh+nhJuJG2uAJ/8rzz5ZbTFtMmUbunP25gnBO7+gW4pAtP7XtLezUt5ZoREwyj8egXgnIcoZ6i3vRCj0X666XZ35u0tsAUCL8swzz1QnnXRSSeNyjzzyiDrjjDPUvffeKxKlpq05Ud18wY/0t5kY4TGFI9JSBKL1v6a9nZXyzgqNgJF9v0SnCbPRyLxfAOksH8YxYMrjWeKbGsbKAiVvPIkHkqYrksgoStwaCFTCWJnXXmDCMxbeSYiyjCbcYYXgneh4Yw00hPe3fhwgrBaI9tjweoTgnX8dliIQrf8FPqMJba7pt9+frfb6yvfV+7PdpxgOPPBAddZZZ6lp09xnJrKAMelzzz1XnXfeebbLCvXHhT/8mtpn+82Y94/H8HhNejqSNDc1qmUdXCOvs/jyz/+h/vvo88IpXqQAixVkAb8dlhhCC8mvQ2Og92mbDaeoA3baXH1qqw3UwAb9rmcd+a+VPmpT1SlRa9aepur22Ee4yqFzjomiNl1/lWqb9ZYINOBxl4ysUsuG6AaZLvdV6uJb/qe+99dr+cb5iKeR44bGrakfffEgdcJ+OzHNVYitLITQB/HEliIQrf81bXeOztQREt1SlpXjuY0G2Xsc8w6ks6wQtLvs1gfU1875i703u+++u7rooovUhAnybaUSgfh/+ctf+O1ts8zIptOmqJv/8CM1aKDcY+/4TLqNhpyg3VqVECyyQhE7vuj9AgIbAvFOEsbhbcTrneh4Yw0ExIvIpmxNPFs283iDRHplQNdsTBpoUShjqRUVck6+YyIE6Whai8I4Blrl6SAR1qasjZhksInPezQ0lhWCd5p2pOgAiWC3ViUS3rVzS2mPL32XnROw0korqb/+9a/qgAMOYL4cvPTSS9yCmjFjBvP4csBl53xD7bT5+iWcvzUgtKvGZUtVY2P2GpyVwoLFy9T043+kmppda6dQNx7qTjilrJVwgPGjR6ij9tyGHNJmmT1PteSUhi5oVwMX+/dBo3bbHVXtZlsKVxl0qiuv5YlHE06pjVKcP6baOiUfn9t7O/W9Y/cTzgFPOP6NjL8Fsv7kCer4fc23jdIqEdkblMszUoUFUVqM4lYzXnpDfeOXF1FZ0Jngq1/9qrr11lvLdkoAnAK6/dBqwtqEwIwXX1cn/fQCph388yrv2pPWTlIoJauLjQKnRIj0CafEiBPxQTpRl+2UcLCEUwKvQ/zndB5YFMq1KLIDrChFZ0DxAm2mqa8okF4mOhLHR8fjIya6oI/73nnWKa211lrcC9ARpwTg6wYPPPAAt7YAVO7H//D36k1Jvxy0tPbMpIfbHnk2cEoA3g+NgW46vI+UtfAAsNHUier8bxyl7vvjmerLB+6S6ZSAVqq+F1PjAiFGy0P3q7YPCy8821l02DFhXAmOyUc7pbZgbJVqKfBF3i98Zkf1+U/vIJwGKmRMdAAwfhLf2FMP3zMs1JbseEEoDJdupY5gsHDJUnXc989XjfKO19e+9jX1u9/9LvMdhZbmJjX7nTfVe2+8rBZ9kv1tly233JJXCMYTJ3DNnQ+qC6+5nWmD9GvT0o5ftx+zI6mUEN8TMxlU+EQL60s1PAmb+RYQxDHE/YiK1VFwOk9owKzHAwEvtN35vG8Xw9cVsstCSvw4mZL5EuOXgJ/8+XL18NMvMb3mmmuqe+65p+DyOPPnfMjl4OP3Z1Gdke440AV+xRVXqMMOO4z5+YuWsHOCEywVeF7sqdl4N9z/lFAaWDknXm8UrSS845k2exmYvv4UdcXZX1XX/Pxktc+2G1PdUrzaxyMywrIhSi2KnRPdEMy8riQ63JXXfPcdqvX5Z4TTWDi6WjUaZy4F0G69a2tpa1dH/uCP6qHnwskSGFPBS7i40QZjRw5TT/7zJ96aUbqi0BDC45l0G43McxGCRVZIjKOZ8ngxFsoSZqNB9o4jyjKa8M//6+deqP55kx57O+SQQ9R//vMf0rvYAJzRA9ddqu679p/qtace4f5ug9GrTFRb7L6/2vPok9T4NdYSqcNDDz3Ey4sg0w4a2KAe+ddv1KRV0T/tnWPK9WmJyK1apLyzQiNgcKqWFYJ3/vHsRoPiO46o0DDleHYjpKeDRFibqlU73j+iCDyINpJlIyxCukRFxcorZtxFFqh9XjrQ3MaB0nASoiyjicRxg2Ni4+m8+DZVbcQkEFYNRHtseA1C8M47x5T4WiJyq27nVv1uJ5zJL7GiHnj88cdTndLM559Ut196gZpxz81qwcfuY3YNgwaraVvsoHY+5PNqqz0OVFXR+z3I/ygHKA/A9754qDrliH2J8s/FOzvv3Fux4sOi7IlalcLsTxaqbU84S7V55zJ8+HA7uQPjR+htyvoy97Q1VlXfOnpvtcPGa4ukPOAO1sg9GTKvXQ101TKjbu/9VM2UjqVdDB1rMZHzaH1FP9kYwCFZpxQjKtO15LHPO/VI/jaSj7TlhvaYvmHmQoZdhcKpV+rYVfzG+iU364kK6L677LLLqI4Nj/f8w3err39qmvrj6cerFx+9L3BKAJ4Wb734fHXaHuupv//4FO4L97HNNtuoX/7yl0wvXdaovvu7i5kuHx28D3E05j1hqt4h8dN78f1tjKTUl0TagI2dEgjPwLCBOGCSjpTh6UFnqoXgXWxUCvw4HYnvEMbuXFqFAAf49V/8hZ3SpEmTeMZd7JQWzZ+nfnfaUeqM/bdQ91x5UeCUgMalS9RT992qfv3VQ9Tpn9lcvfViOAsPLY0rr7zSvvtz7sXXqfe8yRWF0FOtpdsefjZwSoDpxjNdd2lOaeSwwepXpxyubvjlqR12SgDmPpijLxlexcM0PlqfCxsmXYkOOabW11/h95Z8LKUTtyiYh7VyldEj1Pc//xmmDfAEEHfj7bxZ+BXcbFSu4FQKZ/31P1wof/Ob36R230H36G1Xq49mvSGSbKArAw7qe4duq+Z9FL7/BKe32267MX3DPY8UflExvo2d5YsibLuUjSAyMcXOJzaJPB9zViQEdhws4YIhGZZIOiePTKKgsgR0Nn4WstPt3BHD2Nfc+ZB6+uWZavr06fyBUTinGLPfmake++91XCaK4c0Xn1LfOWi6evDGy0Siscoqq6jzzz+f6eWNTeScrmWaUeCCWir0mYtiuPnBsOJvaGjgKfNwRnBKadO/95i+gbrtN99U+++4GeXBrssXcEpLovkWbe/OUu3RfICuQoccU/y+EqaFt5T6VQkPh+22FU9sKIQN1zRLDfUvPPTMy+qBGS+qz372s+qUU04RaQhkLIw/rTFtE5EUB54Uzzpmd7VkgZu+j3Tg+Ezf9LkXXcV7RofybvmRSovRdQUpTKvUdMnOmgoR8dj6wVKaIVjCowx8XVJrkK3xUZpV+eh8uukppEvhaH5x0ZXcPXXNNddkfl9ozQ02V0effq5wxYGehfOphfXYHZ7zIaC8mYc0zISdlbK0EcM73bYemPjw0byFasbL4cQytJYw03bevHmJaeDoffrN149UF/zf59ToEekz9joC/zFgOf00wWMB/XZtb4a+oKvQMcc0O2xGLx/ofkWcOG5ZG1F+j3ga0EV3xjGfFi6JUdQkxdTG/og/XXkb70877TTeZ6GaWlF7H5fuuLLw3usvqXO/cgCPTRnga8LHHXcc03c8NEO91sFVJboPna8g05GdbiENdKxngjbyNKq3goAhMO8JY30Odc9jz6qX33yXx1fHjx8v0nTscujxatDQ7JlkMdqp8j6fKmuMy/o455xz+GENXYcXXlv4E+Jtra0F3wWqFO5/6uVENx6AMaW41bjauJXUVT/7mtp3+9IfYEtFu5dpMbmtOZrY1jY7/GRGV6Fsx9S+bKlqXxQu/d4qJ4vbhWeLViIQWig0F3FQO26yjtp0bbPwaIiJdMN7F7qmZsG7Grc9OIMLxyabFM9Mk9fXLwWWA4xHXfvHnwmngZd10V2IjP2P6/4r0hzloRRHU2I+KTs7dU3+60246Fo9U3TrrbfmfSHU1tWriWtvIFxpaFq+TP3260fw3mCzzTZTe+yxB9P/uuW+xHRsHz3VjXf/U68IpYEuvLSVcjZbZ3V1zc+/pqaspl8N6WpUBXV3FfeO+Wj7KGykdBXKd0yL3PdADJqlGy/tuQLOHbPwsl2TUp/fN5w+blBonn3PoNBVlI7r7nmUn9bgmEpZur6jT2zX//nnas67rjtg9dVXV5/+tG6hXnXHAz26jH9xdM29TiI73UJHtDp+WpUQR3BGwc6iGF8UZUfo1Vi0ZKn6L7XeAbToSwFaQeUCr1fc+Dc9Acjg5JNP5j2mj99FrbYs+L0O3QWUywefDceBUQfELaVPbbW+uvRHX1ajhkVr23Uh/BYTuOb4O69RI6WrUH5XXsqy72jiFQJuJ5xTVrn69LYb8bTwGGNSZP0B19/7GO+xvh2cUzG8/rR7Xwy3cQGVlY/pZ2gs8ioGnhIv/cW3hdM49thjeY9W26PPvsx0/0dGxisIicM7TdtUQFCQnd3GSOrS7WJ0pVVPIP3MktKb73+cFygF8NBUDMjPb7/snMhSaujMoXKwiJIodjeu+9M5au6HbjFptJhWXXVVpvGgmAb4AUwV72489/q7vOJDIeyy+TR1/jeO5tUsKovwzsZ1fXs0S7irUH6LKXqJC7M1jCMvlDnQZmpli6QVVsPeZ5uNhHNoqPhN737ghVpMEwcOPfRQ3hcCnthu/vtv+K69PF+pm2YpdQeVr3veV+qGt5V64ENKs0DZeeTWq3hKucFee+3F70IAdz/6TPLnKMYzUoUFUVqM8tPNRolpBWaUS9OisQwb3S1tKCOzJEMIy6dDx+8q9Na0CuMuWVh17bXXVhMnTmS6EG6/5A9q+dLFai45I+T/mylb30v7295R6haiZxZ4eMdrFHdd/lfhdNfYwQcfzPR9T76QaI3gNuCLtQl5N+DZ1115TcMGa67GTkl/OaCyiB+bEwu84v5UoFVZtmOqirqeqspoWWMwL+t33m2L5Ark5X0Eq+MZqHDMrs2Y/3vqJduFts8+hRdDhFP618+/rXY9/Etqv+/8WdWvsVmilfThUirg7+l9GtD1gRdzDTDldNddd2X63sezuzCSkPsQ345O81EVHekT+cXjmQwMiBbWSn01wCa+MNVAAEIYQ3Kgjc9bCCPqQBlfSMD6TGRXNjob30d2Wp07CuqBdnX/k88xV6wcAE/ffxu/BnHsOf9U6+z/FfVJc1gPofX05MdKPTY7+9zw/hMmMxjsvffevP/4k4XqxZnJT/P01PjSs9RiysKYEUPVX848zi642t2oSru5NV3fgCjbMamG8KVYONDUk00BzFpNoY6w9QZT1JCB4ZQPvIjb3/DEi3p65WqrraamTp3KNDDj7pvUo7dfw/3hH7z5KjuTHx25i9r/y6erfY49WR39+S+qBx98kNf/itFCfu5hKpDo4ksDCqQPfDoAePrlNwoO/Ha2+slGZ9PtSHwvThw9chpwXKEIjAkxIh3tNCU84JFA5Io1RGQ1THh2KVGKo3ikQhahrkMnkIlZH8zh7mTA5EcA3XU3X3Qed9nN/eAd9cIj96g/fvvz6sO3X1ef++55au9DjlZ/+MMF6uyzz5YYId5erNTz84SJgK685x50s/C22247flADnnghOe25J8aXgOfeoCZgCjCL+VenHpE67FEpxA2kREOkrh4tCGG6DuW3mFK+A1KNKXiE4qMl1GqiDI4QgFj0le6wSTgAimXZC6NrC4uDS7drj9CuXpBmOl4m9AFH9KsTD1Jf3WmyOmW3tdUfvvk5NXLseDV8tJttg0J00EEHCRcCzglPjGmAs/Nf0jXfboJTSn6MsCuv2E+rI+l2JD7Zial1AClRE84hbtHAgmQsDlRGECpgxyGSxwmw3lOHTKCI4J9xnAaxcVSPZzIwILqAPaMg39n45Dxec5Ny/G+JvfrUw+rin56mvrXPRuor203kh7N7rvq72vbTh4uFxpFHHilUEq/MV2p+hk959iHnmLCO3gYb6Fl+z78Rdp/pl/0LPbRVBkuXN6mZ76YvMnvMPtupbTd0D7PdgbhOjz+FUTWgwMKonUD5jmnY8ISHrG0uxSU5pM3PB+LuPLvYYLmFoJtQ2mFDq5ff0o5gww035L3BqzMeFsohXnYF+PDD7PcG0Pf+UcaYqZ8+CqN52fYlLpDJKyl0bYWvu7S7ko2Uc4lFHs9kRn7SEJ02ZJJBpF/VM5BOJNJW9Ec6VqcG2nBEBA8sd+DjBSJhwp0QnqFHJuErCxpmoCNxfHTs+C/P1K0CrKA/evRopoG0cgDMid6dLFQOcBYvJj8Px4jfadpoIz22/dKbYfdZS0vPtJbmLlicWj/ifc5vHLGncN2DtBGs2qh3s2rEKKG6FmU7JvIWqmpkeDLmZEtNDDeex5uEN8BME39dvPQWUwmZPzYpifeEsb5sJK8NwNiS6b7Akv4Gn3z0fjBjyODhBx9QF154oXBK3XXXXeqSSy4RLh1vJmfzM1592hVItLzMsi/vfDiH9+XDv0JHMxVfvPBWHBvFeSFgfPiKyChOQPhYHEhglsiHLAzMHCBMCxE4figv7pR8PjAk+OdIVKSODiVIFRaBH6cj8X0k4/uSdz7SzXu/HABoMaXhG6eebN/jwcoH+N5YIXywNH3W6hvPPZF48RzwP0oINPdQN96ipelPlv939D5qUIVaJ1lIa27URreleiX3UNGVKN8xEeKTqWvUWS58Gasw2trjzkqlRg8fqjZZ262T5caYOltIslBiurFZKu8JM+w/mjvfTnzAGJPBO6+9IFQITGg44YQTeEFLtLDw8cCslYQNECc+PIDVIHyYbz29P2de5vlaWF6IYvaZKNXQt9N0ovJlXnTe1oF4EQWuh8nIlhIPbBjEGwfDQcRpgM639cApJ+ILY3dhnAAUN1ubofHETAbnRLSwVuqrBaGoEBciXZeUGkfglwMAn7GI0UxF5vrb7uKZe+j2w9RyfGepEPBaxeyUOr65cXnwbp+ZMv4BPTC2IRIBd7xNPkPT3Vi4JHnS666+ivr0dhsL130wjslkH8wlSLSYRutFcbsaHXNMq4aZqY68qBkUKzVB5IE057T7lusLRWlljDHJfeogOhc7RHlpzVvoFjxceeWVhcLKyemrHM8TH/TGG2+o5557TldwRYBCvDilTMXHMMefNz9tjq1/nI7cr+z4manFFXC2oewJMZm4P8SLSKduGdkIDxCpW0+eLAAbpIeUOJwS60VgIQK78wyY9HmPZhAfiZyJr4jjZSHDLhYHPDGWF6KgfQyt/ETKgvmYpcHilLIwl8oBYuHrA4899phalPKSfxoQLw1+WTDLIDW3tKrFy/Q7mi1NTXS8ghdRMaS9v3TiwbtW/AsLMdJq3nq6PfFEt9gXdBU65pgmrSGUBk62brk+43ISxEu34USIdrX7Fs4x1VSX/2OkZ6d0acfQ8bSworGBv1jl4vnp04iWdXDsNS3e4k/CAm+Ov8yeU/K6Cl2p1nkWXiXKVBzZ8kKkGvnwdZouVgkzVaAy17uAIYCwDJPsoBDkrxToVOQP55CIpi3MDgjSZjLmfQlRnjpkPDomg/tBtLC+VCOyKxsF4sQq4pcu117DLweYyr10cfJBqSvLAeCXN0yAMED5xKm2NBfulagkFi/VztFg3KhhvMJDdwK1btr4Un10W6pGjFRVwyuzlmmHHBMmQMTjTAOXaieCbXnOKWw1rT1pvF0jDy/edhzJglKg6BTUFdOWikZ5yx0w01SBpRkfIWtKNihLQlq8xQvD0WDzXRfrmOJLzOSFKOuWhMZxUhbsDDykMEE9CzDvhJpNMRIRdvYomhEEjIaIrKMqEGhj7R2MINZRHMOwPFAKaS0IRHlqw3A0H8yLjreFIBYpaQSi4CD+OSXhdGEct3VokrIwwJvli3KQtuQQegE6gqzy46+873+mHGUBv2VzxpdguwMLI8d0+Ke27mQ9WD7SmgNofAyI3pWMGyhdiQ45JqBmaji1Gy2mcrvzAGSEeM22XWV2XimfAA4RZ//OwKVVKNXSjqit/HXx/O9O1UfvhhnUlN9gZKTFaxjgngwBfCkYyH573L+y9KtMSp2Eq7DYwPK+ImnkJEQF6ox4TDpes74tQDxEIsZR7JGMnNmA6QCi+EFSwVFFbjkNPm/PBlRgohl3eb4yMPSNCEQLG1kRIrtCsOqMxAryjjFl2/+mUMPAMI8adLQc1GbEq/eOY8oBAAfQwkvsxBfRffDHmHA+h+7mptJ3F1yt6+5DPZ1W/A5TzVqlrW/YEXTcMa0bTu1mj7pEXwjyQzkJt7SHCxSacaZgVl6cVywvRKZeUBLvCTsd369cCMQMbHArIOK7KgZDMqZcNnTwQSkt3tCR4UrtS5fqx5+BAxq88wzOmBFfg4YQvPMsAmPAF4RKyzHh6UIzAgkCGd1Xy8fxHK9Z2nommhGZyLWjCASe3mdKDLGId+4oDNZ5BgaSZ5yUqMBEM9nXr8GkM0qB6LQhkwwig1hRGiHnw7u2AlYMUQ+QsuCXgzp6QKsfkPwMdn0Hy0FWPL+8+ccfOKCeHFXYYuluLPIc055bb8Bded0JjJ6k+fOBS8PfFd141eP1xJFKoMOOCX2L1RPCga9Bi7SDAspNuKXVueNtNpiihg4a6M3KA/wbUyTzF0Wl0iqMIQNdy2juXDfmM2R4umMaHq/kWwKQqYalrFYSHwPfdQH8c0pcSsCnX2dS6iRMxWlYPlAQPF4qaAc/nkZm5cwKLdMUbROVtNjIDtCk/ouE5QWGSUn/iUhCYKgBGYVQCpmQDM24S/GUTIqeN56OQbyIgvOJEJ9BCJeGJQqZM7RBmtnQwbrVgqnfPtLKwogOlAMgK97QEe4hzRwfiykPIsfUWnAllMrD78o7eq9theoe4Ktjab4cU8Qx8cFHzbTyPj9SLjrsmICaDcNvCVW30tO612oq50EHkyBMlx6asDtssraqLjD5oVCZSNcVilEK/PgdS2v8mJFCKfXuu+69pVErpz95jE7v4SuIEQ10/1J+1fgY77yjX3BcRcbz3BUlrzO4WssIwTvPIjAGGwkAG9USSRSsqEGQHiKWad7CyjQ0S9u0ChuBdcLKDkeP/5yRC+l/At/UEQ4s0vZOI5wTEDTjTt9TMil6b+tAvIhiTSBJRPMF3jUl4KcRWQUsMZZvV+NH67LglwMgrSwMpQetjvQepJUfOKCR41YRzpWDUcOHqKo2LDMdXUM3w7SYpq62stp83cqN4aSBu0zjn5D4wfEkyNpackyVnZDROce05lqJSRBBq4kutNAnpGNgIkS7TCHH7Lzyx5hiJDNZoWxXyLq8eAKpdDTa1aCGBjV8iH5SfOst9y4FPn6W1r8+nkT1Zd6CSRmfZpmykeurRrfp22+/zbSuILwriC8m4NOvVEv9NCK7tDTszucDQ2LjaoK4QKAZdzhPySQ2YmMoGMfnxxAL1juWgyAWeyqNQBkwFDzIOeg/H5DrnYZj3ClbQkjR85bgqZkRPrDindAAkeGZ+LTAioTwTFKsCVqarsNDmq43/HIATPXyqY+JZX5yCM5sZMr7qOMmrhm0mEw5WHmlkfw59p7GwiW6aXLsPtvxvrtQzTV18tfCe0sNy0I5WktVg9I/gd9V6FzNT08ftZuHGammpV0NWOwupNyBy2ZpNe26xTRVL8vmFId/47KKAiFWpfKesCR7D3H8FEyeoN8fwntJBjW1dWryBpsL54B7t0YZXcxwYpMyPve/1qbuC6EojOYt+qkT3ROqO3P/GjQdXJVlhAiUBk7IlV5gE0awHBOhTlfgPogLBJoJK25hLOlkTkRbExIwVhJ820IhiJcCsUtaaHko1IxNOo5lZd5WGwrAW8puzc5HfIdDlrQpcTS8mLFRlIZnyNspE3Wr5eWXX1ZN3iy4qZuEa0garEnloJy3R6ZmfGPULwfAM888w/spE8b1yLeXYmDlh2GDB6r9dthUJJUHbmvy3urfaUg8Ybi6WtVuuoUwlUNnmySqZu1pPBDmY9ACmaFH14brrS3j5TAzS2/k0MFq83WipqzN3AAxAU8oxgfwlQUNM9Cx+Ouvqb8789RTT/HeYO1NtxEqxLojlBpYYjfGevQQmtbCwqDyGtNct6t/7Gk4Hz597xriy5FKx9/G0CaeLjLjKiyQ+bxfwdmNAyUeSogLBJrBOcipEjwDkMxawlJaTNswctfASxf5GqmHRzB6YRnOCioNz4DVng1vaKtZQQrv7QKlO4hGwKfcd7vzNKERQQsSYg/rralXeIFTeuEFt/LJ2pulj6ugBTSlxIc0jC1NznpA28Q5JvwmTz8t34RaXb9o29NYtHS5OnDnzXm8q7tQQ/VzWg3dsAxjS+GvWLPu+nq91Aqj044JHrRuu52E0aimaxky31yQ/jhvOS2nVvT1UvQJY0dRbP/GhDcp5EKk67S0vHhOEhdTH5kauhA/hQ2m6gL55JNP8pvsBtvtd4RQIeroF9qWGllZU18NVhuSXXC3/NQBwWyne++9l/errTxGrTQijOSfa4CAJcbycQzPMKr0+E4EIp/37hMTgSGxWu+kRCF9K3BaFjPpZAzDstLJrRgBxzEJJEJszBFSg++IEBxEwnZaoiFybEXtyxhWpqFZT88g3hPZu2plgdLniAk4jTieZ+LIKF7AEmN5p1h38mr266smPwJjVp0UOA8fG9CD19jkpL0AGIvaehx35iRQW1evttrTrc7/0ksvqY8+0ovDrjMxXIGipwDHdOQe6Q+plUAt1c5pVQuGYwbbOlxQX69qt+6eLsbOOyZC9eQpqnpi+GlkTB33Z3KgD7NU54Tb0ULOqePwb2h0c4uBzb04cfRMXgjexUYO222sv6eE9zf8AolxpjVTuvMA9JXvuAq1RDN6NteiB5itCixZtcuhxwulceedeun/HTbDAGbGeScuQQsCsWWEoF2gB6LKzlaUFn4kT8tEZMtpxSkQFwi0DVNQMWlkWs5gljaSZqAj+FIX0v7S7HyIxBxLWAcnsKcTGzHrZJbSxh6IF5G28RiGJZi0eoZPA6RNi8fwYsbnILy/jQGTAQ11avP19AKuJj8axPnVAN1NeEjLGm/CLNadqZwMyfiG3ua77aeGrzRWOL0oMoDZv5t5a3T2FPAws9GUiWryqpVZfy4Gjyv5dbL3cw1e0K5qogmKtZtPr/jYkkGXOCaAW03R2nZDP2kLvt9RQzcCN6MUYB291M9jxCLLC5GpFwQ8MZaPDUtB+XHWmjRerSwzkq666ireG+z62S8IlcQock57rqbUFpRn1xhKrUnKH+jmg2yjldKfEAEM9q4/fWfh9FPiiy++yPQOm6fNrCmz0nHG3s4KNaJ0uEUSgHgrwvGF4R02Vimsd44M4pBmIGRDTYlaw8ktjMgaxqEURHFMWkYUwAjpOmAiwckFlnUyzdJWR/AAmaXs1uw8gsnwDrLAgz6vBFjmKRI2WhCILSOEp9xpCz3l+L///W8wbXzrfQ5VA4ekN//Rc7AV+ZbdVlVqbXogW5XKwWQyRStp9wm6yy8Lux4Wlq8rrriC9xtNnaSGDOrAFNguBlaeOHyP9DG2rgbqi7Ch4H6Y2sZ2NTCaiYfXg2o32Uy4yqPLHBNWma3dLJwIUU0ed/An7oJB4WaU6pzQpYdIXl4m+FxcQYVI12lpefGcJPWIIrIaJjw7KuV+rL231QOb119/vX3RFdj54OPUqmtmv02Ne7c6OaXNyTmhIK4/qnBBBI741s9UlffAcOmll/IeKz58amszwBpfgE/6Z04I2EgnvKtkPUQ1XaZzErG9Y1YmvAHuaXRf2QbpBkIwWsAqCU5uggcjwrt1TNOmaPDiIQRIKk00DSdnWNbJnUjzDqIRsd4FDMESTIZ3jQUecF+FZAjDO007dWAYscRYPo6ht5/ecUveY/WFa665hmlg4OCh6sCTviNcOtCLsCE9kG1D5WCz0fpBrVCtsv7Wu6iNtv+UcHoC0EMPPcT07luFiwX0FLAyzM6bJb9Q3eWgG1VblV4LowtvqFdnG9TtugedYNd/Qj0LXeaYgNott1ZVK4XNUHTpNSx1zSbcDLxnU8oMG/5mE5eS5I0qDj9OkfixmnlPmKpPQ6YiwAG7aAeOMSb/+0qYnff5H/xOuM5jnc23U9P3Olg4xZ/MMN932nWrjdXI4f4IsZw777zriHnQ+l8QMBa6cosUUaXKv20gEsbuvCqUCWysRAN5BDvNCYhLTdsEUXtBy8PQ/l7GJ4EzkUxDB9rSLvt4Ass6uRPRVkf0AJneaS5gZCM8QKR3Rwks8BBqrdITWjI+F+H9bQx33RrTJk9U66yhX9I///zzeW+wz3GnqlUmry1c51BNFf6x3/uNcBp//OMf+Su1eK9p7230xwJ7Gg11tSV8tbvzqEPTIP6JhB8yvy3xaQu8r1o9QU/a6i507V2gDFC3+16UapjskHntqqbZvxNV4rGLe6fWRGFMgTURIo5SkPeZ2DAL2XEsFydF12FEW62/lp02/pvf/CZYN2+DbXdTOxxwtHAdB546v/jTP3PBM/jXv/5lB3uP/DS69+ic4vO08CqphI0WODFRKcZxRcSIDshHCUTCWBksPBmTVqmBNOX+hhotTyqMwCkkCRcWL1fqI6yOAX2pgba0Swu0jYIHFoU6S7kEPIhWxJoLGLNxoDSsDYPowES0ViaExzvSUhrCB1Ivnr8L0a6O3EdPnMLrE3fffTfTACYqfOEnf+KHtc5i/y+fzmO4Bvhsxt/+9jem8anyVb0X3/s76lDvcpXg5wZNNSzFqz5MWmAGXt22OwjXfehy91w9dpyqnR5O+cQ407C59HRi7oTsa6nZVLRbjwum0AZBwQiLWwynC+O4bToSFt4xmYojW95XxEYaWNHihAN2YxrvccRfpf3yz/6m1vPGhcoFnhBPPu9fasKUaSLR03J/8pOfMI3ZeHttbyZa0DnG5+7xjrSURqIyIsoZy96YOZ4RpcVHCURgRCZy2FgTlntKA8goGFunFY71wgYwQi+89aFSzS0myZKDBog4eLBi2nAkp7dcmKBAtLIDgiuVnUcwmd7lKSSD9OCtTAiPj1UOWuDERKUYx1bm2o7Zbxc1aKB+E/aMM87gczVYb6ud1BfJOXUGW+99iDrs1B8Lp/HLX/7SLgl27Ke35/2KAJ4WnlHdYqLDkLgLDzOu99iHvFn3TV03qEi7EWNN8Sw9rLc0mJqJfgbFPYJz8p/qExBVXLRKQ4E4scryQhQ9nG8QGmdG9SqII/bcXq0kXWnf+973gqnjeFo87fdXqNXWKn/ZDzilL539V7XZrvuKRAOF8c0332T6pMM/zcs+GaSevSe0pFdpMIR3UqKcseyNmeMZUVp8Z+L0TRwrhpWXE0BwHCvRMHIKSa1IRJ9iwA5JzZ6v1HLKtDb9ckKEQO0zGk5FWxMCiIXsAE0GjE9oEOndLQ1OX2gGWUS8v2O9UJrwjYnW/4KAsdDpewqPHD5ksDpm312ZxkcAL7vsMqYNdj7k8+qQU34oXHnAuNJXf/nPYIx11qxZ6te//jXTUyeurHbctHIrZPcmwCkhpAHSYfPCiWoAGhiVXKi1ECrimOCW4WmrvI+AAQMXYbwpmXPryD5tzAkOq7Yq4+3SIBliLC9EfJiYF4G/jZGUOglTsYHlhUg10sAsoFOP1M4D64V9+9vfZtpg6MjR6idXPhi8d1EMmAr77b/eyJMofLzyyivqrLPOYhqtpeP2p9ZaUBsVqpw0bdWhoeWdlChnLIG2LHY8g+M6njlt6EFsZKeBlDwj1gUGDpwers8dPbQSidhx+OATvcdnlhubWR1FCmH0QaCNCYFCw0loa+1iiJXsAE0m5R6hVZSetvOQOAZZBCJhrMxLgQnfmGifDRmC8LzL0BFwhG8ee6AaOli/oHTqqaeqOXPmMG1wyMk/UCed+w/uni4FqDf2OOpEdebfb+WXyw1wT77yla+oxYt1f9U3j9yL6p0CD8X9BLjGwClx3jBoV4PJKdVGqzFhTCmezNadqIxjIlQNHKTqdt+bnZQPTCHHskXenWHUkAPCmBPMcSMxBlWHp3oTPRGlEBfC6QpZEaxaCN55cQpGD5WZpl6mOH7/XdWU1fQb53/605/s9FUDTJn9xh+uUt/683XByg0xBgwawoPFv779BbXJjnuJVAPL+h9++OFq+XL9UtmPTzpKNdRJv31wkoUqKU07dWBIbIo+MBHGij0lyPDAJIIhgggYbGh3AOz0n4B1xsBKHThNHbIdFeFDb8XrRUtoI1Ze/CAEKZngkNAG8UkQgC2cTvSajAQMTwYQ6d0RAYShDDahSBgr81JhwjcmWli9CxiC463IwDsoU7RBz8FpR+/PMjgl5Fd/3BXY8cDPqV/e+pza6aBjVV19yiJ4gmlb7ah+8K971PE/+gP3PPg499xz1S233ML0NhtOVbvJd9/6M+CQUJdmoX4p1TPxuNKgwapuz08n6u7uRBUVkkTe6Uq0PHS/anniUeE0Wuqq1IJx1ao9mEhPtLB2UoRVO97qgODGaafm4OIEsaI48i/wGSFY5Cw06XjWWVYIu/N5a0SkS/HxF15X+3ztJzwDcciQITwAvMUW6WtRvf3ys+rFx+5Ts2fNVE2Ny7mFtMb6m6oNt9lNNaS8+IaXeA899FB17bXXMr/71puoK351ujsvIJH5SGtFvp3deKSnBySikxIVmHgaJgOlsKEsvL8GniDQBVemYQUJTTqWNamqR18WhjBpnGqfrCeqAH4qxQsOWZRUujyjBJmuixhmkw6JkCjeYmXFnt6ThWrPBrSwehcwBMcHeiA6Fz6KiFpaW9TuX/ieevqVmcyffPLJ6re//S3TMfAF2mf+d4ea9cpzauHcOWrA4CE8gw9ddytPmiJWIW644QZ10EEHcZnAy723/PobatL40aLtnzAP+OFvoDfY1bYoNfzD1rALj+LUf+bgxFBMd6Pijkm1tammqy9TbR+8LwKNxkFVatEYv5uOiryUer3zGaEJifGogE+pVHmnaUeKDpAI/tapRco7KzQChlZ5Okgs61WU2pBJBsUx3Fl/vVL99t83MT1q1Ch+4XDTTTu3iCPeDTnuuON4Jh4wbqWR6r6//4z3/rEZwfkDKfcRYFLzTu3pGcTrf4FQVuA0zs6TAYk0YWGNI4gwoYuuEQgEqYmpqvfnKvXqe8IRhg5U7ZtNFaYrIcUupfRpkacIbKIIxJbmkACyzEqLSc1baYpTM8rA0po5PtADBZySRrt6eea7arcvflctWaZb96effro6++yzKTuk/1al4tZbb1UHHnig7TX46YmHqM/2wJdhuxfkYPB1Br7H4e8ADmuZjiSnlLa6Q+02PT8hpGJdeRaY2bH3/qqKWgM+MNY0cIHvql1G9W5jAqmFMBV+Yl6cOHrAx0qNpNRJmIoNLJ+MaSEZBDjz+IPUzrIKA96A33HHHdV1113HfEeAGUd77723dUrourv4J6dqpwTEFU6BCsgjhNS8U3t6BvH6P7SUna/BTke3Sg0Io3Rxt3QXmAgsIBC5CQyOIX8C34bTjwPhk6hfY9EyPc7UKXjHMNdmRLILz9bTI4SMBpG4H9reByuENpCUA7Ew2DGpeWuSkoZRBpbWzPGBHvBIgM85kGl+nTUmqN+d8SXriM455xx1zDHHBC+hl4sLLrhA7bffftYpHb7ndv3eKeHuYVKZRnTzBZglHTul6tUmJWZU9xQq75gImARRt9dnFN5z8oFZevXRtz4cfLlHx+YBT0ys9+BUvpGmg2iWEYJ3nkVgDPgCP46nYcK3c8BLdRefdbKavoFeOwyDswcccIA64YQT1Mcfl/eSJxzaBhtsYNcfQ9p//N6JaqsNw5cVExVaVBGFlYenY1LzTu3pGcSLyFk6mYZjEF2fT2CgFZEMdgUdFIJHanAs70/g23GgzcJkJcitqKRx4cDnaIKn8kh3NgmFIGA0iC3okAIxGLLUO4HHeDIrZcIqBMTrf20jW7Pz+UAPMOl4PpKnjhi1/y7T1Tmnfk44vVLJJptsou6//36RlAbMvvvMZz6jTjrpJO6+A/bcZhN11hf0WFZ/Bl5H4Ukd4a0lXv/OWJw1rnf5faU99+WGRG9At51F9fhVVN2Oelqoj6EfU3PSvnxLeyHtbQvvHyMslKFBirnA08RGAZ+eQkLqFV6mMtMIzzaAZBRg0IAGdelPv66mew4EqzRMnjyZZ+xhjbss4Iny3//+t5o+fTo7tA8++IDlAxrq1YU/OlkdsMvWyZMkMnFmUYUEvROBEIZ3mndqT88gWiI7KWR6p+ExUCH4MoBZUXrQ56aDb67BkXTwSA4Mjh39kRTfAktrHcEx2eWJSgwCJwqOJMEjhU0RWLZ0hwSQpagchMGOSU1YEyvzIGk7qTBWIISIPYWQjucjeWrL2J0mvnDgHupnpxxjV0F49dVXuRdhzz335LEi//tNMZ544gmeebfWWmuxrcG+O26h/nTmCWm9xP0KtXTPagpMdsAXxgct9HuqCHV1qv7TB6iqgUWWbu9GVH6MKULz3Xeo1uf1x7kM2mqVmr9yrWrjBhXlHMk8dpTAZibHhyMILLAIxyOE4J2mHSk6QHKsv3VqkfLOCo3AIuwLF9rufN63I1A8I2lqblXf/u0/1SU3u5XHDSZNmsQTI1ZeeWU1YMAA7vbDC7ozZsywXRUGE8aNVn8/6xS12bQpknbG8YkM7yUhui62CETCWJmXAhOBMYF4ETlNQkDwtJYMDDQS56ehpbRNVwsipcdWLVmuqp54XbgQ7ZPGqvbV3crUHUJqSStQ/EiVdEQGrEyBxAh0HmPJKOVENUC8iJzGyTScgaY8JZOOL9UpOZt2dftDT6kTf/pH9cnCsHsVk4Q233xzNWXKFB6TRQ8DXrl4/PHH7UOZAZzb14/aV/3fsQeoJYs+UW3RbL/+gypV578TyvfR3kwi8bWHdjV0jrfQgQAtpZq1etf7XN3umHgyxLX/UW3vhd/6b5WZem08U4+C/te03QkNsN7nPRoay4ZxglhxBSe83TpDu7M6Ay8NTtlTMWN5/7h2o0FpeByhSt3+8FPq9N9eot75qLyuPBTEI/beUZ311SPVMLxHJgkHR0gcP9ID8b2BRSASxso04djAWENkTiNUYBrGc8mEcgaLUuQELaVtujqCGC1Yqqqf0bPCEqBC377ZFNU+KGOqckmlqIiRqLOdESGzuJbukNyWwIRnxyBeRHoXMARLMBnYANE5luyUACYd/9HHn6hvnfcPddP9j4ukdKyz+qrq1988Tm2x3lTV3LhcLVsaLZndT8Cz76rxuo13J6P7WEtOaficVv0BVw+1W0xXtVv3vtUvut8xEdqXLlFNV12m2udjLTKHlgZyTmNrVDsG7qSusBWmrWAcH1amLLBgneWF4J2mHSk6BtH6X9PezueD4zLp+PC4gM97MZnwDClzeRzzTc0t6l+33Kf+ccPd6oU33hFFOvDC7md22kqdfMS+auok/dlqDUpVEi503iCjMyBBxMMiEIXxDW+lnsyBeBE5TUJACBhmtSSSGyTONYS9tkJmC5aQY3pLmBQMqFdtm06m0hyvstzBIiTRCjoioIAz4m1C7QksKba8JTDh2RlIYk4jlBV4GiYdz4hOpjNOyT+XGS+9oX5/+c3qtgdnqMam7MkoaDFsMW2KOv6AXdUBO09XVahL2tvU4oXUWkJXbS9CTU0tOxR8RaG1tcW/8pLAL85iPElGZOy95J1LrbaJnNJHSadUM2UtVbfXfkXLTk+gRxwT0L5wgWq68l+qfQleYHRoHlClFsI54Wbpf4LcON4JDbDe5z0aGp81drzzYsU/ivB26wxlb0wcH6fRFV16rPPUr779gXr0uVfU82/MUvMWLOZvt4wcNkRNXHm02nTdKWrbjddVA6ni1MlG6XpphffLbjTYzOMZLPQgFlbmKSOZYz0bC5KJ2GkTAkLAMJuwj8HiDJ2HxL1YSC2mp9/UfBaGDVRt601Sqi5jRZI0BCWsqBvSKFgsJY2EiSewpCYC09S0SSZip3UyDU/DZKA0QouuckoaRNH/gsVL1UNPv6SeJEf1/px5zGN8dszIYWrDqZPU9A3Wtu8nmbiNy5aoxuUdn9lXCVRXV6uG+no6SZ0HcS/a8Q26VgqgyYni/M19Rp0CS2zhkDDBwUJszPUaHsDMu+EftqjqqAcTM/Dq9zsI3lEkvQs95piA9rkf8ztO7dH4SDO1nBaNNWNOXgVifwvHB5WLFnggreWF8Hgm3UZAtP4X+IwQVmQVRDqaqaAyFtrufN6zE553/LMQBcampfeaFRnsDC92mhW9BfSG8nTamEkLihtKiItMIAgP4TFMat5KPVkAL5EElTCPBMRqScIwROJeZKC5VdU88oow2UB3XvvaE6iZmvZxuaC6LQMUq2BErUwvrZ7Qkk4WijxbBvEicpqEgOBkmgqUxIY834VAJIzdeUomk7yVUIXNjP0dtcYdUggsIQVa7Jij1siiBWaV+N6CKjWgoYG24fVgpynvXL37mnpPhbd3i3eaxqSy4bNb+bt4PqrHrazqDziMP5XeW9GjcwOrVhqt6vY9kNqa4dL2dY3tatjsFlVlvbx/0z0QH2TwhAHBioTwTJh0G4GmfYljhAiUBk7IVGATRrCcb4gMyAXL0yPfgoEce9jgH01yz94aCsvPGoluC0/PhGVkIzxA8RP3FWkGIItA5Mc3G+9ITFjOATJJyGmFMgItJAQMkzq6Od9Ib2COYUKaDYBWUEPxzyxULW1U1U+9odQbH6j25mY+tvsrBd652CCqABBSmqQ3Zg5ap4NPasKwTmQ5B++4TiMyK3CMNg+UovZ4AtsEImHszlMyGfGUwa3YO0emka8h4jJgZBAwAysGUyRbvtQsKdV7UF9fR77TOCUHfZbeufI1eQhYn4nsCPgK7YgP2xJOqWrkKFW338G92ikBPdpiMmh7+03VdNO1SkUzZlpr0XKqUS31eLaQH9L+nu6HTfzIAe8/2Qvh8Y704xCEt1tnKHtj4vg4DU7dioTweCZx+7lZLgoqZNxsD34W0kFtRaTHIwV4c0zat/N0G1Jwv7pThedFtInibc3OI5j07pBGkBYgFoHYYyypCccGETyQXFShRaqQkBCwyElT9AVQ/fYcVfVOGRNOcN9HDlFtU1aOnBr9APb3KhU6Am9T40bCgPXiGjATxWGQTMROmxAQPC2TgdIILbRJZBOlm+mUEC+2kbTc53JgQ05Lur9sBN5DRnv8Hky1c7fY4kXzWMZA/Mx81z2oo4fwWoxRmlM3BO2CewN495J1gdrx7n7pDaaED5nb6u6boGroMFV/8BG0L20x3J5Er3BMADunm69XqiUc2MRY0+KVqlXjEO/DgrzzMhiRQQUaZT7WWZEQvNO0I0XHIFr/C3xGCCuyCiI9mhA6TaGxo9teZd43MLRp5dAvAsfE5409fqH4V0K6SMc4NZhCBp7SahfHxYc3XsyeC2wsZbdm5xFMBveWwcIIZBXIPMaSmgjNAs4DyT2VI1OFgoRAQ8SpacRoalE1T1JrCO8tlYL6WtW25njVvlK4sklxuB+Uqfj3tYgUARulYZBZpEkuqkTMIIrHEKm5wIDYkE+tOL0dEFagABFIB3mAW/9kAZbTpsCtIsr/3CICQ3asAg9Ci7DB+AxeDmWfRTrsly5ZpFraXZPB+TOKm5nvKoea6hpqqGBcSQRC4PpqF7eqVnoAb21wdYIBUx7PEsvau8qTGwbNb1UD4/eUCFUjRqr6Aw5l59QX0GscE9D2/ruq6cZrlGqM1mAnNA2uVktGYTo5/XA2T3mZizJakNWCjJdRafLOixdnVuH9rWdsd4mK20uHKT9d3G3wENGtr0ZpkZ8AGYsLIVpNXFCprAnPwI7TYkLTmF5Pe57JiILJe7LgldmJhi3JTSuKNyyngJ3AXoOVeUqA4kQSloUQm0DsMZbURNIskAhI5olDi0yFIFXoQOqkBV3DxwtV9Svv063iG5aKduTDVUaq9gmjNZ2KML7lspMlpCgDkWOS4pS4DJKLylkkBASPIVJzgYGwoay4U3KVpyY8Y5BwKrjXTNMvgAc0lAF5qdnwHGCDDe9BgqAgeZ+PRHRza6Na1riMeTyw+TN9e8JB4QG1oX6APpw5dyKqW9vV0HeWq2p8cYGwfHitWjaqjs7RGvE1+HHCnSYwHXzIvFaegRejesxYVfeZg3nV8L6CXuWYgPZP5rFziqeSA2gFLBtWo5YPo0xoVyaXPe3CqrNK1S9pVQMWoHuwnX7setUyyFQgLo6GFzPOqML7Wz8eb3lnhUI6XqdOtxmGfLup9SetI24ZtZEF8VWUSTn4hZL2nBI7J0mTkyNeCiOmxHKhpAqSK0nsayngeKBhg0PDQSGuOQ+0pMALvLvgyUNZYMNgYQSxCuQeY0lNJM0CiQeSe6rQKoqTlUS2IsTi5arm7dmqasEy+c0IdN/ahw1U7aOHqvaxw9MdkpiWhgLGgcoxSXGhNNLiCRVEC9PQ0UIZw0sPCCtMAxFYuak6CUzQhtOh3wE/hWmZIp+z86F9i6Y57xPNeR80orETw55jEYjA74K0pBy0keGyxiXc4GpjGVkhwE72HBM7nIvwlQKSb6gjp0TnEpw3Ycj7y1XdUrkHgpYB1WopOaeWAXS+sLNxAJ8nx9ZMrSSq4xoWh2kYVE+eoup76Cu0nUGvc0xA+/Jlqvn2m7l7Lw3IWE2DKZCjaaGmb1utzlj4GWuaqlTdMvxQrUS7S0OGXDRhIDeXNWTPOxM/2AiI1v8Cn/GkTDpek8LTLTbddixBoaNT44InzggtIy6QtlCSAfZwYLBFPL4cbIjDAelfF0hKmxy1dk412ikh1FEAz3I4MC3XQEQkLDxYuwsYgiU06NiRhGVJlOeggFDk2SZAukgdsgWVGUga8QNCk+4OascYEiqXssE/XDYS6lAQcMwUSo90ntqRQiWiehaWjIxSqojUCtPbAZ5LEjltOC26hygTFNo5jyPvt+rygPzfrGnO/3BMpkxwfCQje96QFD+JKQ/0+zS3Nqvm9hYu83BMeGkfM3yNk2pDOeA4SIHSSM27XQd036EbT58zoImGhS1q0Ozs5ZWaB1ZzT1EzOaq2Olw97gEV9cZ2VdvYRg4Na96lOyRcU+3mW6na6dtV/PoqgV7pmAxann5StTx4Pz0tRVNLUoAMF79AFgNPIotWHUCGIjAE7zTtSNExiNb/Ap/xpEw6ngW4vbynOg13GiwKIBW06mbai3OqpsKHwAUSzgp2ZOMKIfH8UyF9KGmPZM1eWkPseMgZtVnn5DkqDLqSmltRHI+CSQuRsdOU3ZqdR2gQm+KeSJgig2VC7AkCnWaSokASgXQp6qSoJKPKQX7HJEJFwowFmZEJpPPUoaVwgTC0AKslSXksSzokQARW7rmkJEGeQed/dkqc51EWWrRDAi/lgMsCaOR7lAX6sRytoR0LEZKfMZ+vuaWJHVQbnBCcktmbAJ4CP7BR4HSwM2W1C1FbW6fqzAvZ9rR12R82q1HKdAmg04JbKsW+ashQVfepfVT1hNVE0vdA11nqnekZoEuv+b67MltP5QL9t8spaEgmtHnRq2rjDCq8v/XjmV2gl4zOHEhuGWFPTgiFkAL6lnUhJDkKoRRatvd/Gf6ZJF2GKOGQ2BhPjqTnrjsScXeeOCg4J2o9tdXVWifF3X/25Todn9P3DuHdDU/uyQCOEsm0MAVkmZBHAss6eWDBTBQnAdKnmGTHKpZeV8D/MR1SpSxMtw8QFV3HefLAJEqTWC2J5EBKtZB0SsJEMssy4SkpTX54bKPMjnKA/M7OiMpBIzkm65RIBjs4Jjgv44jMOQVlgWhkKpLBuWAFBXx0E2rbYkKo1U6pFS0nyv/snCCDHZLi8oPkJL0uQA2Vr/o6LGFFaeKUGZoY+u5yVbscF+mwtLlZDTJfl+4IqC6o3XgzVbvlNr1+Ongx1PyQIHSvRNWAgapmnWmqevyqqn3xYl4xojOoo8zQPBAVtcl8srd5sSucE22kELGUcjw7Hypg1SiETeSYmmhPT00cyDlxV57YcDzeYePS4uMjQQ6gDaPBFJniqYrj817TnC4RODc9UxAUZCYd0EiAN9EulGl4DJN81RFIkhQSxDbQRYYZuqQ4ipcJsitgWmoqHQF+ikxYZUErAdlEZiErXCKpyMqyCUNfaZF0SIAIrNxzSAAzngT5EHkQAT0C7JRadDngsiDlQZwTOyTJvya+/ZU4zwoLGjrat1P5aWun+KICOL+TGr0VOD7rUtMyeZK2kl5ngJUd6jGuhIPjcAxNDJjXrBoWha/G3DvzLXX4v68iX9yu1h03RtXbh8biaGxpUZc+9oSaNWVdtcEBvXc1h3JAv5H55fsG2j+eo1pfe0W1znxdtc/7WGeiCAuWLVd3vfKquuPV11VNfYP6w/77iEajlVoPi1YboFsWDMmEOmdGpOgYRAurdwFDMAQVgCpqleDc8GSIAsHdFbrgcSFES4mfDingEqTQ2ExsrouF9gAWSQkBhVP2bIBWEWTSSuKWUz21oupdy8l263ktLw1JQxC4HUt6MoCjRDIGK1JgKgNmPESCgHVMerSEtAg8+3KjlgrzmzqiRIi9Fy2ZQtJGI8XSipK6tHJUmkMCCrSSBMjn3HWH/M75n/bLm7lM8PgSeNJzKwnR6Xx0bqYfJTq3ZOowaVOt1OJgmCj4PZH/wUsw3Xl4R7IVND2g8p6yP7eYxL4zSJ+BB7Sr2mWtauj7jYF8wfLlas8LL1GzF+vl2UYMHKAOXH+a2mXNNdQWq63Kn7KIsZyc0WNvzVLXPf2suuaZ59RHCxeprbbaSj3yyCNi0bfR5xxTAPpx2ubNVX/7w+/VNVddpZY1Nas3585V781foOqoKbvSSiux2U/33FV9dqMNmDZoGlKjlqzsrxQtuZF3mnak6BhE639BwOgMRzkSIjP9G4VOOyT3RMh72EKPAolczL8EbXgvyXLuToEv939CUxrMu0vGOcEBwTFhD+fUgFYjOSju8iNbxLNxTdqyD3ZGR7CkJwOILddB8baAziJgQ10iuhUkNL0UdO+9n9IgFHlcim1CSKyWpBqTOCkv6JAASxZvJdn0pRywU0L3nbSSquCYMMGHnBOicpnwzymRtwkp59zc3ETHoHQE/LAF2J+ezpVkgXOihkUr5X3rnEhnZvt21DkhGjslKncMe6q6nA+b5aaGG3z1upvVra+8JlyIOnJKE0YMVxOGD6NbqOO9t2CheofCgoUL1UIKPp5++mm10UYbCdd30bcdEwHfYcFHwZYtWyYS3YweM2YM9/ECg+vr1I3HHaUm0Q/sY+mYetU43KwU7eVEJr2qVXgHovW/wGeIoDuK1pLunqPzYaeEQigtJTw1wmnh1vPdp2NhGiwXJgTzk9hESwTZm4crpO1PB4eDovtiWk489kTOyYw7oeXEtn4cCxJ4Mk0mBARPBhCb7qAI6V6IIDFS1ZEwYRMKUpMArCLTosKQ39f8zB6SokiSEifNxklSIrAoKU93SIAIPV3gkpiMIkreRvUCZ6NbRZT/ySHBKZlWE1Z74Qcz+BTEYSAC/TZgrSwbrS3N1NAKu8bsb8vlQJPYc5JcFsQZsXMiWsagTMvJOqbMfJoETOtrG1Q1yhJgT10TQz5oVHVLwvO8nFo737ntLuHKQyvdu48++kg4jTPOOEOdffbZwvVdyB3su/jxj38cOCVg2LBh1ikBS6gldeI1N3Lz18fAj5tUjR2AjAuAV/RiFQT6XyAMFyIURP10xO9eoODBKaFfHb4HcpQQzvz6CY6dBlouXGBILgVH0z6fEqgw8fs0HJCuBDT/SQ+wQ2IKx8c5UcDTKyoInB+6T+i89NnT1nvy1CAZrk0SsXa+gOHJACJRMXl30oHTQxDeQttzPOgCvRGI0GdZFAr0Xyz1GdpkhSBGB0JamjaISTJWxFGIWI0UIe1c8kaO4MEYRHK+T+a8Aoit7AB9Ty0jcuEN+BjalssCP4jRHg9l3HWn86A+H8q/KAzIqzZQ3uU8TEHytisfYWil2C3ttCXTMNDRESg687A3ZYNPjh4c6Rzw8IiXXBH4HOmUYMHjsMa2RNTV1pNTknrH3hJNNMxvSTil1z6eq35y133ClQ/UcfhgqI8bb7xRqL6NPt1imjNnjpo4cWLw9VasQzV2bPqXRo/edCP1w913Fk4DHyjE+03t1o9JZrR50m85RRlVeN7iNso7QbowUrmSFhK3mLgw6szvMi1BaE4jSD46lo+kMSOUEGcE2OM4VDgB48x41l49uvT02JMu/HINNq4hDIT3xEGrKDCP4jKb2YYiVaaGUKglBWQoyrUXFNYWhv/zZiPFqmDEdHsnzYjM4nQdO5hUlQgDnXVHGsykRKa8z1UK/Zac1/EghHJgHFJjC5UFKhzQwWHZdOSOW17DUTFIQ/9NTVT2y6zCdDcfHBfKgW4l6TEnOi3wIsM1wKmVAr0GHmbU6fPS0ETtsjZ+kVZfqwYekg/85+XqlTnlfQg0xtKlS9X8+fOF05g5c6ZaY401hOub0LVQH8Wf//znxCfF0VrKwiUznlG3vRJ+OhtLww/6yF8CSXKPl4lcPvOEgPC8lczOT1xoGUkXBT8ZmqdDWMAOpghwFGjlsKOgIE+BOpCtoUVvbPVTpcT3grHTwYuPAoY9/kCbSsC0nlBJUKWh3y+hSoPUOFs+40ShF401wE7/CWPlESMsWSL4cgMci4PwAXQcjitmoZ0RRIpYbEOq0Ab3l6bNCiXGMNcYB4sMpZD6+uNjeWARGwnjoCX0Z87BwtiK3Or0cTyWQmCgIcfjdE0GQn6SBzIeY2JH5MVDSx55FXuTV5FvvXwc53Gd7xGqVFNrE6/ywFO/ywi6FUVp4ST5vFFe0XqiPc6TZL4T0debDTwMJ52SBlpiQz7E+0oiEKCl1FmnBDQ0JL+ofM899wjVd0E/Ud8ECsBFF10knAYySNy0jXH6rXeoWfPDKef1S1vVgLn+4rGSi3inaZuv4kzKGVsXXC50GCviyl5nciiQKaHnpy8KujBSAJ0IouNAPBcivdcFK0VvAtul6YXnFhFOmoDzoh2fo3Tn4Zx1IuaE9XXpSgyUD9bYHaArsEjOOks4EGsq10hDYKUEEQWAUOIiDTENbY0gDh7S1IlAm5JDWvyUYJGmRBAQGSav/1gRg8VimKLnmC4hD569R4IwR2OwLjDQkDRDDfISHnRIgooegfIXyoX+zSkvcl4nOpFfPV7yfRi0rqWtRbWmduGVGExacsZojxuHxGWXSwftYcBOLB21NbXchUep8b+DTmvwB03aMXu45vmX1GVPPydc54DuPF6t3MOjjz4qVN8F/Tx9EzNmzFBvvvmmcBqDBg0SKhuLGpvUidfepJY1R+NNnzTzCr8Okpl4p2mbvbiAehAeOy6E0hLhQomCiHwNh4MCAacUOB8K3hMidymSLAz0M6GbEHvY+4Hj4MlTgqdz8f00kQadB5E4X1QUXBjBoDIBjwqFrxZBgykdgXkHsZMdoMmEwCNEDjBL1gj8F4Mk5rgcRBwAQonPaTnzpL0RFgudRVqacfBArH/e5n6wwoYILKYNQore3Q/YiNBC4sjO6PVR8SdgnWdgIMcNNUJRNgIoi1G+QjnQ+YoreATOj7Sh/Op4BJd3Ofj5Gvlc5BhXamptDm3LCcj7CHRM8OKDWMhOiS9KyoHRpYCdAq9B5+6AhuYHzmlStcvDcaUXP5qtvnd7xyY7ZIFXLPfQH6aMIzv0SVx99dVCOQwcOFCownhp9hx1xm3/Fc5hyOxGVd0opYohGY53mnZZ0FFcuLgyJ6kRm4IrGVsXhCo9JVUKhCsoHk1BdzcQ7Tkrv2AGAXHT0qSAldgRwoKt7dhJ6cdBfr9EF0R50pVz51LJewS9ZcrqfYhWdoAmEwJBwGiwiGIg8F8aSGqOnzgHA8h14D+TphcNwZqlwjfoSIjgqcLzkHPzDTikgFW0MSHFjlOSNJNqE0d0Vq+Pjz8L1gdGGiJPaojjfCQ04iIvQSb5i2NxXnX5UOdvnUc5r7IuDmQrZQRlo7G5Ucs6G0y5wV6ugUja6Yc1FnKgDYIH/oRFHb5CK3Kr1sSA+S28Fp4PvK904nU3JyZhdRZ10WoRL774omo273T1UdDP0jdx5513CqXBCyV6M/GK4cYXX1EXPj5DOA08LQ39sFGp6D0DBou03JG0kQzLGdQUTOON4LAIKHy2xcKORAqbH0ilaVcAWWbsmfaCxPPTNU+dTkY8hWRcUwFQBMShkw7KniEsbzZaYKkgkoFoZQdoUiomBKNDCBkHFuG8TMxIb2DOwQaRpwJKF+wfjmEDabo0SLreH0m9kAFW08YPKfZaSn84BttpuYOJJzoTGPp8PFZCYKQh8sCeQZx/XMpfpvWNxpKRIw9zXoQj4vyfzNOcX/38i7zJcs0jv8MptVFBxQNeV4Tg2Ai8k249MHT+3K2HcxDwqg71stQQYK5dCMy+w4xfH3gH6bSbblfvRMMIXYHYMbWQ43v77beF65vgaqmvYfHixeqpp54STiNtELAYfn7v/9R9M98STqO6uV0N+4CcE5wMw+Y6ITXvSNqgIOrsSxlal0ZbEFHATEFEoaxFMK2YKMBhRE+QmCHEPOLYgBl0OgStIhvfpWED4lBQCKQ3TowLJRwU9nIpXMExpPUEYMekJTwRbW0cA9GyTljZ6aotEAgbMA4iiiv5dLBhShB1UcCwK0MRWFPa+CEjrtbQH9loR4SgdQ7aioNHauh7p/8EVh8YasgxAnuGlgdCzkP6C7NQsYOCCHIKpizoSTyU5yRPJvIqB0qD87MOyONNbc2qlfJkaNfJIA4P52geAvVJ6x1DREBNFZwSxrHFwNppAl80CCdTaaCuufeNN4XrWqQ9kL/2WvoLu30FfdIxYXAPTwU+OuKYWump7rSbblNvfRJOt6xpbFODsRx9lOkYTGpeb01GFhvfFJkcmZ4DCoAJHs+F1AskM07DBF1wTFzhDY0CTEE7MJGxnGyMjOWIQ67G6FHoaQ+nxHsukHTy7FiJJsfMz4wQBxclwRGeiLbmPgQQC9kBmjTVXSAU1mdY4CCi2FFFVhE4QoGgTboUJs3U40kocmB7bWSb7YgAk47oTWDYVOhPYG0sQcGDHCup0fJQKFb4l+zD2YYEbGbyl5eHzeKqnC/9fMr5lgJ0xJvp2/gSLT5nYfJx1wacBwU6Rf3+E50zlwdch7vQanJKdVTPWJlVaQLvaeElWszu83H1cy+qvz32pHBdDzim8EvZSs2aNUuovgn6Wfoe0IfqAz9K3JwtFfOXLVcnXHU99//6qF9MzfG5JTonbLiAEzh/UObmjE6FyhZGkoL2+YQNnIQJxNvCikDJkswF8Dge0QgcH0HiUyHSfBzI50hh53Q5DX0JpjBqjgIqJr1zMgPLOrmhXAWq5Q5iwTphZYcqDH+R0IWkwMGKcb4SvL/SIInwuXVRMGmWAG0pfxTXBFGkwCgk+CxD0uI/gbWxBIUIfEwdJ9RqeSh0Vhin5GSRhdg70Y7zJpM670me47zH+V/kfkC+5byr8y/yNWbfLW9azuWkYkGOr8sTnRefNG3lEnX3Xb25HDEANIGJEkPhlJpDr/TEu++r73bxZIc04Px8fPJJ8kOrfQnh1fQRvPLKK0JppD0xlIM3532ivnLNTaoZg7UeeABzfnMiEzKY1LxTS4HmcyFaCl7wdIiAjM+0sSFnAZk8rdnAaSGgwKIAGTspxJlpUkyiuRQhgCZbG0Su45sKQKfBCt4DfAaaoh1XPJ6MYVhWOrnlXMQIYsF6YWWHu4i/FIUnSghCeCq/oueQ+Ks89Kl4f9E50cYYpcAovBCLGJyy/AmsjSUoRJDj63vjWwhnzs1C5NiK2pehcmcK5YD+XT5FXoOcgsmLkvdYxnLYIdC50B5jM8vxiXQrr2Cg45vyZs+R/qt5osMAFjHkMi1B1cbgD5u4p8XHuwsWqhOvu0k1tYYz8yqB3DH1Arz+eviSbDyPvyN49J131XdvCydUAIPmNqu6xS1S+ABLCEkbyrEgrQY8CiOeDEGLIzFPZRyscxFbCuzATFeGPF1aG8NTYBuJEwTvaVM7Q01reZo9pQNnyDQxtCcJ//NFQMZwV5esiLScwWwoM5yrfJ3OQaxYL6zsdNB/VgE4pYhjgQkpSJhR6qWErL802yjQJjxmJnwjCSkiDUo7+BNYO0tQiGDPSccLLYxOkw5OYKL7MoadAIRKmtI2eQ3jOfzgJbwfbAtJ51stJ5pslzUtpT3iUWqVDnxcofkPRQCfr2igvVyjvVTHD5rTpOqWhs4HPTDHX3mdmrtkqUgqi/jBPF7cta+hTzqm2bNnC6VRzmy8QrjquRfV+Q8m3wHAeFPd0tg5uYzJhVAKHTslU/igxx3mj8FQYCfkBdhxAC08JdBGwfIm4DDWDi0nHE8KrE2TeE7X8W1GFsgRKE0TjBzHIB4UxaSDUOCLMGALTdEu9X4AzBoDJzecq6idzkGsrI2IZIcz8/8iZTKkCk0oE2lJIJSFtAS8kCLS0Ez4J/Bt+Z6aEMHoKSSthDP3PIDWSVQORmZhSK7AKRgng7yFP85jXp4z+VHynn55nOxEDre2rHGpasVbS5B1Q+AeCTlnPJShXmlowBev6XrksjSEoN1AenBtWBSOd2M6+BeuvkG9PneeSCqP2DG1Rb0/fQ30c/Q9zJ07VyiNuBnbGfz2f4+of0dvZSNfDvlIvyynC6UBMSygzAyPRMUJT3m22HNBMwVRZ3hD2y4MQ1NLSMG/8l5sPJ6DtaOIdmYRbA0tvJGJXI8pid7KYWdkROOMKWldiRABYA+ny7WRFmnI9WELldU5uQWLjNzprMQk4BKJIJZs41gDzYZ/KQbpIVVY4ZAiCgJDM+FfQi0hYChE8O5vIh2G0WvSwQgoDtRWZ+QCw3KW0XIzDRvghyqTxzi/IW8i6LznZp4aOy1vbF7GEx50y797AjsonC+de3VdnarF12fZ0Qq4XAhPuwGfNKsB6Or3gAlVp95wq3ry3fdF0jPozNBGb0CfdEzz5oVPIl3pmIAf/vcedVv0fRR+x+mDxqRzMr8/F3wCMjcXMMrgcFic4b1A9sj8uiAgEM/yiKegB2XBO5kpOJbnQDzOA5mR+MDpQcZyl46T6/PlPZ0z75G+XAtfD+wYxHENJSzDWLnKC8GXW1hRUudUtLWBVRHYSgffzgSBZpN/CeNY1B3BQgvS/zxTw9gQC1Jg741LK7R0+mQSEGihMdFwcoZlnZzzDfIL9pBx/qIN5yviOa8RQzKTb9PyaWPTcr2yA/HdGuhUcN41tbU8maoKD5bWw7rrxA5jzwPnJV9i/dGd96r/vvaGcN0HLjsecsfUA6h0M9VMI8e4kw/tnPQgZ5APuCtPZwTOvsRr52ElpKedDTqydlLCmycznwdNYI3hTeA0Qxl37UHDtPAc2NrKeOFLYxPYo4BKegDdB9ZrTkAcLj4UEpwlq63eyK3AEyV1TkJbkxAHVqcACgm+rR8EobjwX2xdTijtT1tbhElQoA1CQpECe92ULgJEEjSEs3Za6iB6CtaEbZzcgtlQ7igCdCgLkpc4UDmwFT/xQTc0ZCzXMnZKzcttnu7WQA6ytr6eA+5i+LoEAm1pV7+whceeY/zq/ofUv556VrjuReyYhg4dKlTfRJ90TN3xNNDY0qq+dPWN6pkPPhSJBqaF4gXcmiZxTgg4H885caHkP3TuaZO4wmC9yKwNy2iPYHjRYUwZbsKXaVuP50B/JgEL0cpOQ6cUmOH0OeB6SGP2fIzIFpw5TqAwArKHWoKG01lYUVLnS/j4foIu0RToGDYE8ZJqGzykqUsNCaQZcaCNCQllBlhNGwnx7+8gErYTNoARFvqdBIZlAye3XBhZaApSHEwULQ0YgSaamppUI2bg9dCfXiW8xpUBAOUaQJmm02xY2KwGzwlXdQD+/MgT6oKHHxOu+xE/rI8cOVKovok+6Zi6uusuC4saG9Xn/nONeu6D8CuRWC142HvknBqxnCQBG87IRJhCahXI8gJTYH2IrdOIXna+BjtOwik1zDE9cFGTtB3AiMzKdaG0lT7PqqJgKhUD2JPcrwg1hOP4WuIgOmyNibUxOivwRLRhQxMcfGnCUXGcYoBNRkhLLwjp0dJtvZAeiUIRROnoe+/uP4KDSKy9iAIYIdKirQQNp7NgNim3XJiAgHjkHX6S0npY2LOWnYZj8Gn0xuVLmO4JYOadnd1ryoDfE0Is1r4bPCfZUrqUWkm/uO9/wvUMYsc0atQoofom+qRjGj48/ER6Jbv2sBr5cVdel/h2im05oVsPhUuXL10oOQiBPf2bfmytxM7oEFjANNuANzKRa1LTPHYlKiPjAEQytgM8mbZhoQ4i464V0ACuhysdc2EeuNC6CtJBy3UQEQOMCaKWoGF0VqBhxbRhYz9oxFKuvI19HDoNpJEWOgFOgjZeMNfAKi+EEKmNJ6IARqiDNQXLcDoLKwrlTkzbMBGBWMhO5z0vn0Z5TQfNt7S0kFNaavnuDJgO3tAwUNWgpZQ4R9rgkigMWJDeUsInLH703579/hHqP/5dPIwbN06ovok+6ZhWWmkloTQqPeb0ybJl6nNXXKtmzgtfWsNXaoe+v1zVLpdOtiBvCGNlmnBsYEwgXmROI5QVgHAybe7JAGY9nqBFtA3FBNbYnQZfic9SMAZWqsFp4rq1fajVuqTCCHSQJGwwchc8BCracAQ/OMQaDmRvgo1fMFCkcgB7DiZ+drDnwn8k8kIIT+PFTzc2Qqf0o2gYnRV4oqTOcmEiHkQOlaiDq/LkEcNkc3OjWr58sS/tNmCJISxlVo3JF2nnSDtQmHk36ONkSwlO6fRb/0sNLBu5RwDHHmPy5MlC9U1UUeHo2bvaAey2227qrrvcMh/43EV39KmOGTJYXXLYgWrq6NAxYnB30fgG1TIAfh5PYVqu4TGW1Au+MpgIIhCIF5HTxAKnAfQxQxkjPBmGXi1ZmAAiDHTeuQKWSU2AxE6etBBJRtTUGKm2SWHzwsXqtQv+rRbPfEckKw5q6uvUqgfsplbedesU35FRvK04qXeqjLjGwlNrMiEQBAyzcFwtLei+W5p9mAqiprpa1dVj3TuCPb47EX1O7TzzbuAnyYr/ymdfUGfedmePOyVgGT04+ys9YAx+0aJFavDgwSLpe+iTjumEE05QF154oXB62fcxY8YIV1mMGjRQ/fOwg9S6Y0eLRANdFkvG1aumwbpLgDN8UH8KY2WacGxgrJGo5IUPTD2GyMDOR0r6nXJQgBWkJkJiJ0+3EGlG9DRF2m0Cnv/RH9RHd/f9D6R1FFX01L/FX3+qhqw5QSQpSKmADZyqUHUgOs9EkwmBIGCY1S0pPabUBKfEXPeihr86WxflLncmxilh5h2WJYtxxbPPq+/cdlevcEoAVnnAFxcMVlllFfXee+8J1zfRJ7vy1llnHaE00pqylcK8pcvUUZdfpZ7/MJoQQXl0yIdNqmEhliaRzowg3wqDHZOatyZsbDkNyESkd2IjOw2PgQrBlxmwIpTpc+QIESAQuQm0cX8CTydECHNMCsYitBKJOYdQSTBCF7wkbQCWvN23C2JngUVUl8yK7gHuDQdzo0zQsJL4ZgYQK9YLKzv3q8qOSUOIHCASxzA5p7mpUbeUmOtOYLHnelWPd5REEpwrnyf27WrI7KZUp4Tp4Gf2IqcExB8F3GSTTYTqu+gXjgmZvrUbFko0wIrkR11+jZrx3gciccAAqXsbXFekrgR6mZlJrbQmTDDlgXjI9L+2M5QTEDwGKgRfZsCKUMZVhhwjNPcEgY5j+KwES1CIYI5LwcQNrURi7USUgFG4APORm6xH9IqL6rpaNXKDteWW0AbB3iMNX9IZZ2R/PaNDcIQDsb5DApoal/OU8G4HNbUb8I5SdY13mu689KW261XC6QGzflGyPvnTI4+rH/z3Hr6m3gRMs/ex5ZZbCtV30Se78vCtkUmTJgmngTGmUj+t3lUYSJXB7/f/tNpp8uoicWgcVqOWjq7Xs5Lo+Ux2HjzGU1qpJwuQ2j1GVGAaxnNRQjkjpW9MS2ibYh4IA30HuvoMUq8phqdJMVr23kfqkaP/j1sOBoPoyXhiNIOzP2ApPSHPWhB+CXXcblur9b7zZeEcvKrXZ1IgyshGs6lCQaQDSOQ7I412tWzZEtXajb0bBni9pJ5aSmEOlfPjc9VENZ0avmAdrxKOKvIX9z2o/vLoEyLpPUBrac6cOcJp3HbbbWqPPfYQrm+iTzomYOLEieqdd9xANwb64mnk3YFayvQ/2WNXdciGySf25kE1asm4Ol5+SIOKRlCpplW2mghZz45BvIicJiEgBEzZDgrgwpyq8oQJfSecFFCSozJwFs+c+Ws19+GnhcOsqyq155QpajA5qP6EJz/4QM2MPmuw+R9/qIaus4ZwgK1xC0AMIjvNpgoFkQ5gUdIdAW1trapx2VLVSvvuRm1NLYU6L0u5M9Q1n+bxwjxWdaluCa8Aq8CglXRZtH5mbwEmOSAY4F0sOKoRI0aIpG+iT3blAdttt51QGo2Nyc8ZdwdaKOOecdud6u9PhJ96B7AU/pD3/MxOBRekzfseY0lNiFRYywmIh0z/i61QTkAIGB0FIZIzjDKSw5afXXRED8ZW5CYwOJb8CawNbexxEFJgj0fxESDyQginmXT4PiwxwDjAi9HTZF/HkqYm9db88IvLIzedpoauTa12776l3CiCvk8cjA2C7NwvFgiFDRgHYvVvpGMGIHlra7NatnRxtzslOCKMJfEkB3ZK3rnzOQtBQDkdGpRTjWXUGjnyH5eqS590Dzu9DXG9N3369D7vlIA+65h23HFHoTQwAaI7J0H4QMH8yV33qZ/d80BiULSWnsSGvYvFX033gBTiwMxjLKkLumMDTkA85PpftEI5ASFgtBohlgMsSsq1BOdNVKgiGHvRmcDgWPLnwdpZQkIK+JguZDmrERuspUZtFrZc36ZKHO+h9Rc889FHiTy2+jGfESoNcof43jkW0KT5ZQKhZSNGg0Xmd4h0AB+rXTW3NJFTwnTwFJsKgt9PqhugaqrNd9rc8fnU9AUwP2BBi24peV3AwMeLl6g9f/9ndf0zz3fr+HU5wPub8fjSXnvtJVTfRp91TPvuuy89CYUdPcujz6N3N/Bd/5Ouu5metEIHWd3aroa+3ygz9gxQsHVB0XCFxZGaCFnLeSBelzhtYmShgGAYEdAuLqgWLBKDCLDnSkmOGYIj6uCRGhzT+xP4dnw8P2TAnJsEcz5rHHdA0BWIFFCZ9wfMXrJEved12wBwxCM2XFs4XK0Ee29EJDtz5/EXKYT1GRZoCMv3mf9isJIDbJYvX6oal+OBIGlZSaArC5McdN2AY8vx5fQMj1m0+M5a2ouzb86dp3b57QXqsbdmMd9TD7zFgPeXYuy9995C9W30WceEufpbbLGFcBppP1R3445XX1dHXHal+jj6ciUXhDlSEHTZIIBAQRaS4TGW1ETIWs4D8br0OVtDOYHAE0DNwchEbqCVIDTvgSspo0+oTRzR+YHBsb0/QWBLG3tsE7IxbNoUNXbHMF/Moaf2N6Pur74GtJKe+jBaULi6Wk35ymHuHkW3yLHm7iYUIgoYBxE5ZxTptVKClmA8admyxVSZJyv8SgKOqL62QdXVYDzROCUNfXrgtYwnOeBBMWXmXfUqE9TR19yoXpvtuoDj6di9BUspX/uYNm2a2njjjYXr2+izjgk46KCDhNJABuoNmejZDz5SB11yuXplTvhBQ0B3HTTyQrAOUux9kVeQzM4QVsOE5Ry8ysJphTICLSQEjBc1lDNYJAaRTktwDTpEaoKJIyFiNTgF7y9QeYE29hz8oLHmlz+rqhvqhdN4hip1jBn0VTw/e7ZaGI0nrPLpHdXgNVYTztyF+O7JfYnYFIGGiLKdEcHc/0jV1LScx5MqvURYDKzi0FA/QNXgm2J8UnJicpr+iaJLffi7ehmxGDXrbajqDzhUTV1/A5Fo9EbHlFbXHX300UL1ffRpx3TMMcfwqg8+4qeInsK7CxaqQy69XN32yusicahb1qZGzGrkQdcQVA3YwmQgDHZMWsJoROTkDsRLBeK0hgqEhIDRag5G7ukAFrGBMCG4SiOddVIJEyOUELEamgn/Emov0IbCgDEj1epHfpoEDs1UWT7+/vsubh8CWnyvRh/HrBsxTK1+7AF0PSl3xpB+SAocWEQpIMhfAnJvOURob29VS6mV1NTUmBazgqhSdbW1vDI4ljamM9FiOU19HSIj4IVZtJTCh0ICtbZqt91B1e26B5aF4AkEPuAAdDnoPfBXegDwGfgjjzxSuL6PPu2YVl55ZfXpT4cVEBxTbxmsXNLUrL56/c3q3HuTkyLMi3z4PLNXdghgqEjpncBjLKkJTyOiQCIgXpdUbaKFBOECoWGsQEdFSNExWASDFB0B8fjPJZQCE1dCxHJgaCb555kQJn52HzV0rfD9so+WLFEvfxyuEt/b0djSoh5991197zysdcpRqm74EHdv/JAudBAROyIE/kuB/b3StDoWlhZaunSJauvmMlddXaMG1DfwdHCciwGfLvNOhg98YlUWLDGELnUfVQMGqPr9D1G1m20lEqW23nproTRwj3pq1m8aUL/F4+n77befWm0113ru6+jTjgk48cQThdJAJlpCFVBvAc7nF/+9Rx36t4vVwnhyBhWSQfNaqNDQU1xL3LWgCz7XCbYweYwlNeFpRBRIBMRDrv9tsFQoJEQC2nF0hFhnwCIYpOgIWorr0kESS4G2DEKKiANDM+ZP1VSptb95nKqqMzOzNF6YPVt9ED1t9lbgYeZhckrLosF3jKGN2X5zuXZzE/wQQcTmntt7lAAbuZCAxCRdGz1YLV++TH/YL9W2MsDoEaaAN2BZIW/ukz5lnEd4LrXLWtXwd5ar+iUp40ljxqr6w45W1auFL+tvvvnmic9G9PTEKh94bym+56eddppQ/QN93jFhpfG46Q3H1JumeGJSxs3Pv6i2+Pl56om3k6tf1y9tUyPeadKFJ1HITWXApMBjLKkJwzqR5TwQD7kcy1kYioITCiIBTEywOgQPLIKBhFhP0FJcnwsiTIFRRCFFhDBk8mpqypcOJcYBqkeosp/fiyqaLDzx/vvcjeejYdxKauqpGEswFxrBiL37af5SwffbBJEFkNicFrMyDXyRau3mCQ5YwaGBW0lYKFnDnHri5InF0mBpL80CNeusp+oPOUJVDU++84Pj7LnnnsJpwDFx3uxhYIZgPFyBSWDxe519HX3eMQHf/e53hdJABsKKu70BeM/AOMlZ8z5Ru//uj+qFqvApHkDXHrobBn/cTDS1nhKFwFQQwjLAiMCSThaKnDwA5By01gRLiU6EBMNYAZMuGaNDiMBiGElIsyHIlZKJDtqeFRkwymRYdf/dqHWxGdEOeCn6f7NmqUXROyC9Cc9+9JF6O1p2CK2/9X9wkqobKp8zsJfp7pX7ywJp7D1Ns4JM0uA0RUTAjLvly5bwendpMSsFzLjTrSQzDZxAJ6BP3ztBgMjq5jY17P1GNWhuS6LrTmFl8V32UHWf2puaU9krgnzmM+G7YZjQ0Ru689LqtR//+MdC9R/02SWJfOAStt9+e/Xggw+KRAMfFMSHwHoS+E6KP40dT2Pv0hP72AWfqOZ7/kuPn8nKsaW+Wi0ZW6da61EIKXhdFg7x8kaAJwh0mglFicgeSOepHZkq9JAiJFFq/DSwuoiNB20p9gWitS5rVE99/Ry1+HX9XorBwLo6tdOkSWpIfTiDr6fx3OzZybEw+r3W/fYJauyubiykOKhol1S6tRFvU+xRvvDtJExu6G5gUB8THOwiV/aSUk+UF18dDIcUvTALVI0cper32ldVjR4rkmzggRJjNrPptzBAXRJ/pLQ7EX93Cdhll12Cb9P1F/SLFhOeos4//3yu9H3Mnz+fC1VPIW2QEm9mjx8/XtWsM001fPZoVT02+QlkXi3ivUa97D7On4MoLZJPtJoQxpDMasKygEnXSTyITlTOylAUPNIhRUikOZQ7AxMisJg2fkizE2it/JGtHziuRK8Z0KA2+MkpasCYURzPANPH73rzTTW3l8zkxOnO+OCD1Akaqx+zX3GnZK/bBJEnAAXfNTJD0ObO3jDaIXErqZudEnfb1TWoev5uUpV3SebcPJACY7RDP2pWQ+agxyHSE2rW31A1HH5MSU4JqKeHFcz69YEWU09NHUeLLW4t4R79/Oc/F65/oV84JmDTTTflDwj6gGOAc+oppA1Sfu1rXxNKnuAOPUrVbrUNPxH7QBcEJkYMe69J1TRJYdQlM4KpYJgUBIzHasKwTkSbMAGByOW40JoQcB7JgZEipJ1NDkH+WMEhBayCsRcK2Qu0hfurX2m42uCcr6v6kcO0gaCJ8sj9s2apd3u46xfn8SCdxxvREzGw6v67qknB9He5D4n7kgXo5E6QnTUPohiBFuoXZZdSZbxctbV333tJcEJwRui2wyfP3aW5c7MQZf3iVjXi3UZVlzLBQdU3qLo9P83dd4W67tLwpS99iVtsPvwFU7sTqMficXNM/MJEjf6IftGVZ7BgwQK10UYbqbffflskGlh1vLs/M4wnq3g5+vXWW08999xz3MKL0fbuLNV8x82qPWXGGD6dsWxErWqkAFqDiGQyBOn0SOg8QaDTTFIUSCKQLlKHrMelJpMq1CBVZlqlwJqnx1v61vvq6W+eq5oXJCuYqaNGqQ3HjeNVybsT85Yt4wkZS1KexlfZdyc19atH0OWUek66OPO2YMlOUZII1UFzM7UMunliA4Cp3+i2A5wzSoFUWVjqC2OydUvSHWf1hNVU3e57q6qh4cNIOUCr6ZJLLhFOYxTlkwEDBghXeeCdpbi1hG7GF154QQ0dOlQk/Qv9yjEB9913H/e7xm+flzLehFuBpxLMfPHjw5FgDS6ENKcSA+l8/PHHiWb/9ddfz+8bZKF9+XLVct+dqvWVl0QSAmNPS0fXqpYBUUM39ZxKcFCAZZ08sGAmihOAdJE6ZAsqPWQqWFUwzTKx7P056rnv/EYte8+NHxgMozyy+SqrqJW64dterZRP0G2HEL/nBkygltKaWHIo9fd19kwVLcUpBpGIHVJzU/GkuhhYuQEvylfRU5c+dta5OvmAha1qwLyWxOKrDGoZ1W27g6rZcJOMe1c6Xn31VV7qx2+toBU1duzYkuqCzgJDAfOil6vRhXfrrbeqT33qUyLpf6j5IUHofoHVV9cvVd577728N8APjH5jOBcfcEKYXo4mOp5KQGOQEfZ+wBRNPLmAhtNC5oib+QZIC3Y+sBr6z372M+HSUUXnVjNlLe4Hb3/vHdQUotHAEyLW96pqaVctA+nYcbnILCgda0UBSXEgSQHpI5OQLaiMUFBp1QXTTwFmtY3ZYXO14LlXVdPcsKu3kSogfFYCrZeR9FRcl/EbdwaoSt+h1j3eUXof3b1abFFVU82tpElH7RNcTlQ3F0CGUUIMAVYBb1ZNjctUS9RVVGnocaQ6VcurgONCU86bRU5e04wX05t1OUgxrx6/qqrf/2BVvfpkSrJ4XigGPNDOnTtXPfrooyKhs5EH2Ep/mBQTMGKnBGAWcjxs0d/Q71pMAC7pkEMOUVdffbVINPCEg2Y4Wk5wHHBCnZkCCkc3ZMiQoFkPBxaPa0E/Y8YMte6664qkONqXU0Vx312Zrae2miq1dFStahqaUnF2xkEBAeuYpDiKlwDpU0ySokhSMNmCyhBimh6jSrU1NavX//gf9cHN94ksRA3dx0kjRnAXH1pSnQVaRfjy7KtU0S3IyHcNo0eodc74ohq+/hSRFEKRoptQh4Lm1hbVTJVfezeOIQH4LEVdbQ1lU+TdjGuIqiWs3jBwfotqWJAyBRygVlLt9G1V7Sabk3EZeaQE4IEVrab33ntPJBrlDhGgXsKDMJwagl/14iEXAQ/OcNiol+CU4uoZ723iC7VZD8X9Bf3SMQFwOrvuumvwpGOAH9VvmncW6IbAx7mQ6dJmAv7qV7/q8JvZbTNfV8333anaMwZdWwZUqSUr1anWhrR5LFRAU8uoFvI2oY8EAeuY9GgJaQTRR2bJWCnpFEuaUZJRAnPufVy9fsFlqnlB9ooQKw0apFYbNkyNpweRcqaX452pj+lhBZMr8MkKTHLIwuhtN1VTTzlS1Q33xw1KKJ6pJqHQ51rJIeFpvNsdElW4eDm2ugyHBKB1NBDddvEadwKs3FC3y6dSX5btKtxyyy38qZ14iADlfhDljSygTkAPjJnRV0p1m1U/bbjhhur+++/vkS91dzf6rWMC4CTwhPHkk0+KpHSgdWX6kOPMWA7wot4111zDhbLDaG5SLQ//T7U8MyO14AKNQ6vJQdWi9IskQoFWFG9T1ZEwYB2TiMqChDQDZJdimh47I81SD8VIN26ev4haT5ezkyqGAfRUizEoOKjBFOq5ssUMMnoipryynCqjxVTxo1X0CbXMixWx+lHD1ZonfVaN2W5TkWQgNZmkMMustY1aSJSXOpOfOwKMIdXUUEsgKw/yCSfPuqaxXQ2e25y6EjhQRb9B7XY7q5p1w49DVgrf+9731E9+8hPhHNJaTug5QYg/5NdRTJw4UT300ENq1VVXFUn/Rr92TACawzvttBPPhisEdO8hmHEo35FwhUOVDTIZugD102bx24Yp7HjC6aoZgW2zP1Itd9/O+zS00ykvG16rlo8goirLEVLlkFmRZ3X1AZEwYeME6aqENANil2GenUqB9Es9NGHRK2+pNy+8Rs1/5hWRVA41Axt41t3EI/ZWNUVneaXnt1SpFWoCebeltbnbHRIWWq2lgGnfqcgoQ3gnafDc1tT17Qxq1l2fnNKO5JyyWytdDdy//fffX914440iccB4ExwU6geMMXdljwwAh/SLX/xCHXHEESLp3+j3jglN8M9+9rOp7x+gRQSngVBOny0yHboKEbJuH/qk77777sRikJ0GHa/1+We4BYVxqDS0UcMJ08uXD9PXJO4micxWFFCGkwICUahPWLMgJY2CEPsC0YqnWPoxFzz7qnrvurvU3IefKekhpBw0jBmpVt1vZ7XyXtur2iGoWAunX1BrlbEVPUxRPtXdR93okChPcQsJDiktfxW6l23tatAnLfyl59RxJAJeSK/dcTdVPX4VkXQv4HjQC3LHHXeIpGMw9Q3qIOSvUh3ZAQccoP70pz/xrMD+jH7tmC6++GJ1/PHHp/7o6BfGOwCdGUREunh3Kp6BB6yxxho8MxBN8EqgvXG5annkQdX63NN4lBNpiNa6KrVkZK1qHowWFP4L1eqFKu0ynRQQiEOb7GQy0ioIL04J0cs9QuPseWrOA09SmMGtqYIVawHUDhusRm+9kRq9/WZq5Cbr8sy7klOyhqXEwCw7aiFR6G6HVEsOiWfYxTeZTzv93PHSbxUVT0z/HriAHFLa9G8Cd9ttvT1/zK9wXq080EWHh920llMa4HziHhkzTOADvxnGokzIqprResKxN9lkE5H0P/Rbx3TZZZfxFx1jp4QuOgxYduULcmg5YeZOfCvRanr44YfVsGEdf8GvGNrnfqya779btb0TvlTso7WhSi2lFlTTIOneozLRGSdlt6lmGXEDcdKmcFIZaZYML34nkmpZtEQteOENteilmWrpOx+q5e/PUY1z5/NafO1UqQC1gwao6oED1MBVxlIYowZPnqCGb7iWGrT6KsnKKMgunSuGyHv4nDk7pE6mVQ4www4TGvCZ9+Dq+BTSz0NLySGR30TraND8bIdET46qdoONVc2W2/C3k3oL0K13xhlncPdaFvDQi1m76OYrd4wZ6ZtembQuWKR7xRVX8BJn/RH90jHdfPPN3BeMQuoDs+cwXbwzraQsZE3vxEye6667ruyMWS7a3n5TNT94n2r/OFxtwkcLOahl1IJqGugclN4VqK075aSADEVCnLQrnmSmRfcDv3vBe9VVkPwlOywXhIcvtJKssMKAg+WuOsrTQXcdHz77HNhh0j9VOmrAojZeC7K6QA9WzdS1Ve02O1R0tl1H8f777/OnMdLGrnFf0BuDXpm0llE5gFPCQy9aaTHwcI2hip133lkk/Qf9zjG99NJL/AVKdLH5QDMaTqmzGaUQMCkCL+PFt/Scc85R3/72t4WrIOi4rS+/oFoe+V/m9HIAK0gsG1GtmgZ7DppvS0EXhRpJiCxovSSVgQJppKqSwgIpaAQGRa17GSTvFCmVrVRhYUJDqWMTnQb99nBCerq395DF55l9ssYZAdWUPxsWtBXssgPwkmztdjv12DhSMbz++utq9913V2+99ZZIHMwkiK5+EMWDL1YWj1tPcIAYMsBEq/6EfuWY4Izw0azXXntNJBrd4ZQMMN4Uv63dkRdsOwV6em559inV+uRjqn1Z9srZGINaPqyWp5q3+7dG6MJuinRFb6c24G1B2wLKTFV2nIKHSkMHjpGNAsWpjJJWyLSpubF7HJI4I7SO8LIxP5jwiRW+EN8ZAVWt7WoglhDCpIYCw148sWGrbVX1GmuKpPcBLSV8lO/NN98UiQbqFjikQu80dRboAcKDb/zbT548mV+JwRBFf0G/ckyY6HDRRRcJp4Huu9GjR3eLUzLADMB4FiBacfheVHeeB7//BAc143FyUOkz+IA2ajjBQS2Hg6qJzk/YIm0pAumLXpozYKqgfdHEOh9fULplx1FeIStgTarl+Jy5sF0Oyp/GGeGpn+9NkSpCa2kbmeHzLQMWtvHq31mz7ICq0WPYIdWsOVUkvRN4L3KHHXZIdN/hPuHBFxMbKg04JazDGTunAw88MLHSTV9Gv3FMN910E4/n+ECGGTNmTEXGlIoBmSd+ue7yyy9Xhx12mHDdCDioZ2aQg3oic4o50E4VUtNgakUNr+HuvlRwTVXcTbFhSTW+M5KkS0BJRhplmGqUHaEIyixeJZgvI8fUlcDDknNGdP0lnIOdYJFiW7+UHNKCVlWX8WKsQfWYsapm8+m8PiQcYm8GqkmMW99www0i0UDdgvX04jU4Kwm0nPDlgrjqvuqqq9RBBx0kXN9Gv3BMmLmy9tprJ9ay6skv2KZlnilTpqgXX3yRW3E9guZm1frCs6rlKWpBFRiDApoHVFMrqlo1D0I3X0alIeJS3BQbl1z3OENLlRwXKMu4MMpJqstLUnqCyxqxzl7nDoaHNrxvhL9SfII+Gm0zDovuugGLWlXD4jZeaLUQqleZoGo330ovtNpHcPbZZ6vvfOc7wmngHqI3pjudkkHa12zxKQzUL5ix19fRL1YXR6aJ3ykwL872FJBp4ZT8VhPGnvB+U4+9f4CB65VXUbUbbcozndrnU8bO6OKraWlXDUvoyZcqG6xR1lZbpdq54VmgFhNVaY4KILtSTS1cBEuVnUaMTidQIjrhTCQqdng/qdznSVwh8iRWYsA3j/DOEVpJWU5Jp07bgodpV3XL2tTgT/TnzOuXtavqQmNI5IjqdtuTu+2qRowUae/HE088oY466qhg4gFamXjw7amHTBwXD78IBpi9h8kQ22+/vUj6Lvp8i+ndd9/l1pI/nRLN6+76XkohICPPnj07yNAbb7yxeuqpp4TrYdBP3/bWTO7ma5uVnGEUo3lAlWocomfzYfkjjQL32KpKd1UcqcM/WzJiIOlwuhWGlMD0gpiUosjiUxVp33CyoLyPESI4H3TPoWVU6PoLdc2FaOcWUT09tJTSOsKq3zXrTFO1G2+mqkatJMK+A1T8W265ZaLMFlu8tTuQVr/AWWK24P+3dy5gdk1nH1+ZJFQlfBG5IBepRC4S6hLapEj0ibhE6qFES0IiNBpFXEJQVFXqIWlInrqFIhrUJYpWS0kUSUsppSGJIBe5kPgivvq+lky+/dt7bbPnPftcZuZc1jrz/nR39tozOXPmnH3Wf72X9b6+W03eC9M555xjZs6caUcR7dq1K3mvlEJJS4SgmSFBVJfAegrjUIvfCF1+ucC19/l2gUhtX2M+D4Sq/g2UZ/a3326IVEUEP9/Qf5KXoj9ggRThIxc8xBYsp2BSQlSivySygEjnzrUoi367fQ55n0r0AzXBl9aBEG37P8SO8v4j0+Kr25uWA/YxLfcOrHNHPouN4brrrjOXXHKJHUUwtzDHuEBad9tZs2aZiRMn2pGfeC1MpE527949jDHFkBmD39cVyJ5hVZN8mceOHZuRPegKlDrasvjNsB7f1v/ObFImIYvv318NrKivIlZpq/ICJv8vf6ThclVH8C8b/4/d5cvbpnEf0y8tIcj7EPV/IBIjiqnWhmKUK7MuBOus2+6mZf+9TcsePfEd2m/4CQlMxIWTeyJxh+KN4asLMK+sX7++ntW0//77h+5Hn/FamK6++mpz5ZVX2lFEJRMeskGQkmBlDKutdevWlSW9tCnUfrDabPnn62bLsqWBwtavopFGPZGi/TtCkSoWBSrIlz/WFMFKwz5acR+0MOp92or30WuYAMWIHwyGbHzd5jOOQIz+tza/GAWE1lG/AablXgOcrNLQWC644AIzffp0O4pwyRsTg8WE5ZSElPb+/fvbkX94K0ysEGijvmrVKnslCgiSHu4aaZtuSW8/+uij7chttgbPv3bJYrPl7cWmdv1aezU3tYEufRFYUJQ/4ogSJyypgtAAlaj3o8UWLTeJPqSJj2qDPrVZftheJk7UOhAikhda/ztYeRfy2C1bmpa77xH2Qgqz6zy3jiRk1FKAOVmg2dX5hTgYXpkk5LTJRbtPeHs3PfPMM/VECSqZhZcLLDjp86c9si9QPLPlPvuZbUadYrYdfbppNfCbpsUOubtokp2FC6jNhi/MTqv+Y3Zc+0VYiqZVPPHJI/UiRwr1fiSwFdKO1P/cou7PEP+l/D3B/yX/QRaSP5A4xJBq3lhFX/14i/mvDz4PDzLrwn1H/EwOKBPUeugws+3pPzStj/6Oqfma/y67NG677baMrgGlLMbcFEhXl9mBTz/9tD3zE28tppNPPtnMnTvXjoI/JJj4O3funDPoW0mwmJI3OmZ2vuaFrlO7ZrXZsmyJqV2+1GwVroRc1AZvEckTtIUnLrWldY6JLefbWcL3uqkPXbJPVY4HzvIt3HEt/xOldhMrKtgqstR07GxqevUON8JWk6suG/SwwhtD+aEYV62lGOnOQ6yIwbsqpvnwUpi4cUhwSGajkLrpcq0oEjSSQVQElKClyzd7wQS3UO26Nab2naVmS3Bs/bR+llA+cPP9Z9uasPo5Kem127SwtfvyqEPB4lFCASsqBXwUC/gR4kSt/73VtApEqBVfAyEqJFaUpKZTIEY9AzEKBCmfdVxt0J1gxIgRdhThYmwpCUVeEaIkLmb/FoqXwjR//nxz2GGH2VGEi0kPSRBT/NZJcOcNHz7cjqqH2o8+NLXvLze17wXH+nWhcDUERGlLIE6fB0LF1y84WgcXo/9ZGiA2DfjRitHgT6H9B4Hx0yqwhsIDEQq+5t1blEar1qamW/cwbkQR1RaOusXLwZgxY8ycOXPsCE9lTdiJ2lVvDDCNr11bP/7LNpqzzz7bjvzCS2G66KKLzA033GBHwR/huBsvhhsn+XKT8TNp0iQ7qk6obs4mXvpF1a5ambPaeS5isUKgqIq+ZRsTnNeEbeST1L8DfFAkSd39kfxg8pcgODWhCAU68kUgQI0VIUuLdjtF6d3de5iaLt3w/9jvNF+wPEgH98kbE4MHJlncdcKECebmm2+2I7/wUpjI06eNRAxtJaju6zpYTFhOMVRDnz17th01D0JratWK6FizOu9m3nwQr8L1tyWYU7e0amFqEa3ga3jegHm21BJWyIcMd1sNgvNFIEJ8RYg4/7w2/NpQd5yEtO6art1Dy4ivLdq0td9RYuhtJBvvue6NiZFxbIpay6KzvuCdMPHC0/ckWYOOsasZeUnkfqYhQ4aEbslmS22tqf1wnaldu8ZsDUQq/PpZ3WbpJoNoteQIRCo4tthzYlrh15pAMIIjOt+avVhtE6D/UHy03BK1E6f2IHEgurciRKH4BGOy5YoJJYDIoqNoKs33fKpPVylIs/7JT35iR8Fr6Ik3BmjLkSzNRimlv/71r3bkF94J06JFi8ygQYPsKIJECNc3q4LMnOnTp0/YcVepg9JItevWmq0I1ofrQwuLth3lIhSrYA5CpOrqAUbXUwk+PV9aMvY8KmQaiVC5aLF9G9OiY6coaaFjMJF22sXrUkCVgth1crGIpYTF5ANyfqGB4PLly+3IL7wTJnymP/zhD+0o+AM8WtHIulZk+siNt4oguD0pjYRIbd34kanduMFs/Xij2bq5fuv8ZkPLlqZFu8ASCibLFu13Dr52CAUJYVKaDrGkZPYs1bo5fEDW5WSD8IoVK+zIL7wTpgsvvNBMmzbNjqJ8fYKVPiB7qCCmxJwq0cjQewIrqjYQ9VCkPvnvwNLaFHy1R45miL7Qou0O4Z6hFsFE2WLHduHXmp12jvYRVeGGVhegn1uXLl3sKILYNTFsH5DCRH+mlStX2pFfeCdMtBCeN2+eHfmT+ADEx6SFhFj5cuP7wlYa6X36SbjpNzz+9WnwNTgo9vvZZ2FmIGWWyukijAnda1/ZzrTgoG1Cm7aRG64Nhz1n35AuVsoO1RIOP/xwO4pg0VuJRoCNQS2mCkI/o9dff92OojJEJD/4QJowcSNVQ8dJL9nyRSBSgUD9XyBUZAd+EYwRLArWcv7vugwn85/g+4kKzl/CpNXKigjtJoh1brOtacF1ysRQjqpV8DUQJMQoMJOjn1Wc44477jDjx4+3o4hdd93VnrkPLshkpwWner81EO+EabfddqtXKoSSG75M7GnChGvPhz0SilLtTJ061Vx66aV2hMe0Joxf+4LM+h02bJh56qmn7MgvvHNWJ2M04EpflEJIWwO4XOZEUZoTctHo09wCyc214EvsPQ2vXnn2LiVXBOBDNl6MFCZiSz5s3FOU5kByDxD4NLcA7S+S7LnnnvbMP7wSJnnjgE83T7LLJPgSG1OU5oBvFlIS5hY5v/Tt29ee+YdX74TvadXyxnGpBbyiNHd8s5CSJCvhxPTr18+e+YcKUxmRpjY7sxVFcQOZRCUXki4jhYktNGoxlQnZpRF8SiqUwrTHHnvYM0VRKg2tLZL4JExURU9CHU6fXZPeCZPsyOjLzYOAyqwZFSZFcQeZGs5n1of5hXkl2bUAZIV03/BOUuWqRk72rsKNI627fffd154pilJpevbsac/qkBO+i6RlKo8cOdKO/MR7YfLFYpI3OGVOVJgUxR1IFpBxbB+ESWYrDx48OCxH5DPeCZNMGJBxG1eRwcn+/fuHnTEVRXEDNrv36tXLjiLSst1cgtiSnANPOukke+Yv3gnTXnvtZc8ifFjR4MKTwclDDz3UnimK4gryc8nn1uUEq2T/JSAGP3r0aDvyF++FiZvGdauJVZd0OR511FH2TFEUV5DVxdMWla7AvCKf29ixYzMSxHzEuyKua9euzaj4SxFUl91isuov+yU2bNig5YgUxTFoT052XnLCx8VHU0/XYA5JuhrJWl6yZInp0aOHveIv3llMu+yyi+ndu7cdRbi6ogF0X2bNHHnkkSpKiuIgLHJHjBhhRxF0BXAtyYqEBxn/OvPMM6tClMA7YYI0P7CrpN3UY8aMsWeKoriG/HyyuJSxnErCfLJ582Y7isALc/nll9uR/3gpTNIPzBvlqjglXXhAuvsRRxxhR4qiuAbxX5n9y+fYFauJ1j/yuVx11VVe9Y7Kh5fChCtM1rWS7jIXQCyluU1w0pdWzYrSHOHzOXnyZDuKwGoiVlxp6HgtF+EHHnigOe+88+yoOvBSmEh0kH5ghMmVFU2MNP/pv3TOOefYkaIornLaaaeZ7t2721EEcwyu+WLDvMUClscmdhT/HpltzHWEKQmJGbSE973AtcRLYYI0P3Bav6ZKwY0lVzannnpqmLyhKIrbkJw0Y8YMO6qDrL1ilEFjbuCxPvzwQ7Nu3boww44OulzDVcc53yMLme9xnUPyy1/+MtysX214ly4ew9Pu06ePWbp0qb0SqGxNTRjDqXRfFZ7bRx99VG/Fw43+1ltvVU3WjKI0B4455hjzxBNP2FEEadnt27dvVPVuYlUcxdh7+YMf/MDccsstdlRdeGsxIT4/+tGP7CgCk9iF7BnMbXnjnXvuuSpKiuIZs2fPzvByUG0Gi6Yha3osJCwg4lTFECWajMr5r5rw1mICfK7Utvrggw/slUiwOnbsWDGfK75iTO8kHTp0MMuWLdNW6oriIQsWLDDDhg3LEBQsJxry5ZtrWKjK2FA2mL8KnZLxwkyZMsVcdtllVZdQ5bUwASuaM844w44ieMMwtcsNFhsuPOmDvv/++82oUaPsSFEU37jrrrvMuHHjMkQDdx6bcklskvCzWFYy1hyDCJG8wHyFyCFwcRiCuQTLjIMFeK6aoDQFfOCBB8IFebXgvTAhArSPeOONN+yVCKyT7bff3o4y4c9mBRRn8jHmxuBojO+Yf79x48aM9PATTjjB/OY3v7EjRVF8hWSI888/P0OcAGGiRl1suWSbD4D5he0uzE+xEOWDuYowBSKV9vu7dOlifv/735sBAwbYK37jvTDByy+/bAYNGlTP1OYNx8xmNQIIECuX+MiVWYM48e84uOEKuXlYGclU0q5du5pXX3019AcriuI/d999d1j6J01wgPmC7SwkOKRZSlhILJobs/gF5jjiVGmPzXz35JNPhvuafKcqhAkuvfRSM3XqVDuK4M3nJuBNzLbSyAePwY3GCiftZuIxSePk8ZNwAz7//PNm//33t1cURakGiDmdfPLJZs2aNfZKYeTz4jQEhI+yRHJOa9u2rXnmmWfMwIED7RU/qRphwgdLgPK5556zV4oLooSpnqxijhXGngO5esHCmjNnTnjzKopSffC5Z7P8vffea6/khurkLFaLCVYbz0N6f4g1LVq0KKOskk9UjTABiQcHHHCAWblypb1SfHDvcZNhUmMpJd2HgCjddNNN5uyzz7ZXFEWpVhYuXBgWT50/f769kkkp2/Iw/xDLkuK05557mpdeesnbTOCqEqY//elPYUUIdktnIxk/IlDJOCbOhMEC4sgWh8J6ipMmkiBK06ZNM5MmTbJXFEVpDiBQp5xyinnvvffslQhcd6UWB+YptqjI+crnxCtvN9gmQVuvvfZaM3z48KyihBlNCjmVIVjBMCZFE5GJD4SK63wfcxjLKG1/QJooIXS471SUFKX5waJUihJzRzm6ybK4TqtE8eCDD3pbGcJ7i4mkA3rcP/zww/ZKfWQaZ0Ph5YkDjdlgZzg3weDBg+0VRVGaE4ccckiY7JSEjfUsfssFXh7cekmw2P75z39mFKR1Ha+Fibz+kSNHpvp3WUVgQqdtfGsMvOlpfVB2220389prr2lKuKI0U1544QVz8MEH21EEnpdKtGNnAS3LstEmiD1OPuGtK483gCy8NFFCjFitFEuUAFcd5rLc00Q5JCo7KIrSPCHZKQlzRDlceGnwe6WVxt6mefPm2ZEfeGkxkSbJKuDZZ5+1V+ogj5+jVKSZy9wMVDknfqUoSvOBvUy4yZLZuZWylmJI4CJDOUnfvn3D6jjJZC+X8c5iwpVG5l2aKJG0UEpRAiwn+Tuw3iikqChK84LYstwyIrtrlxssJrmRl5Y7he65cgHvhInsOwoWSlihlGqvgARhkuYyRR6XL19uR4qiNAcQpiTMC+VMeMgGc5TM0rv66quzboFxDa+EiXjSVVddZUd1xOnf5UT6kHnDpa9ZUZTqZf369WGFhSTFjGs3BURJWk3vvvtuRtNDV/FGmGiyddJJJ2UoPiuDcllKSeJNuknuvPPOgvuuKIriN5Q/k1m65V4g5wKXokzW8mXx7I0wTZw4MRSnJKxOSh1TyoVckZCm+dhjj9mRoijVjKzLSWJBY/dLlgJESS7aic2//fbbduQuXgjTQw89FB5JuAlw4VUShFFmuUifs6Io1cmLL75ozyK22WYbe+YOcvEM9913nz1zF+fTxbFCKEgoSw2xodWFG4HeKFSGiEGs2Ijriq9ZUZTiQyYerjK2j8QUs61FMaGOXrJ/VK9evcLtLS7jvMV0/fXXZ4gSb74rqxPpU6ZZII0LFUWpXsjATYoSuOTGSyLnqGXLloXValzGaWFi8xrVupPgOqvUruo0SA2VAUZKlCiKUr2kxWlcSBNPIy0h46mnnrJnbuK0MP385z+v5yYDREkKQSXhucgb8pVXXrFniqJUI5QiS8I8IPcNuQLPS3qYaBHkMs4KE2V/SL9OggC4lI4ZI4UJU1lRlOpFZgi7KkoxcmsLXh3CDq7i7Kt54403ZlhLlUwNz4X0LSNMaT2bFEWpDthcm8T1GnRSmGgXRO08V3FSmChCeOutt9pRBFaJq5lu8qbkTZeFXhVFqR74jCdxKbyQRlr8y+WQg5PCRNkMaSpXujBiLtJWSx9//LE9UxSl2mDxnMR1YeL5Sc/Oq6++as/cw0lhkrEl/Lcu7wtKuynZy6QoSnUiK4r7gLSaFi9ebM/cwzlhoo/IH/7wBzuKIOHB5RVJWuDzs88+s2eKolQbru5ZyoV8zitWrLBn7uGcMP3ud7/LWI1UokhrQ0grnuF6lo6iKI1HJmL5kOwkQw7sE01WhHAJ52bPRx991J5F8GKmBe5cx3Wfs6IojUdu8vehEbi0mBBTxMlFnBIm8urlxi8fas6l3ZQyPVNRlOpBFpD2wWJK8+Js2rTJnrmFU8L0t7/9LWPvkg/ClHZTdujQwZ4pilJtdOvWzZ5F0CfOdaspzYtDkWwXcUqYFi5caM8ieCFdLCUvUWFSlObF7rvvbs/qcL1teZowbd682Z65hVPCJPubEFvyIVYjb0iSNVwqNKsoSnFJEybXU8jT5lJXxdQpYZKl2H2wlkDekPSPUhSletltt93MTjvtZEcRctOta6S5Gl2dY50RJmJLq1atsqMIX7LxpDD17t3bnimKUo1gfeyzzz52FOG6MKXh6n4sZ4RpyZIlGYruyyY2eUP26dPHnimKUq3st99+9izCdWFKi4W72HEXnBGmd999157V4YMwYS3JN/zAAw+0Z4qiVCvf+MY37FkE8RqX40xpwtSxY0d75hbOCBOliJJgKvuQ+CDbK7NX4Jvf/KYdKYpSrQwdOjRjb5DLPY7SEh06d+5sz9zCGWHyrfFWjBSmfv36mXbt2tmRoijVSvv27TPceXI+cAkpTGwSdrXcmzOzv6zG7YMwEROTN+Jhhx1mzxRFqXaGDx9uzyKYD9JcZi4gY2B9+/a1Z+7hzOwvfbM+uPEogCgTNo455hh7pihKtTNq1Ch7VodsIugKco7da6+97Jl7OCNMrm70yoW8AXfccUdz6KGH2pGiKNXOgAEDTP/+/e0owsWWNyygpcXEc3cVPwI5DsIbLYVpxIgRXlZCVxSl8Xz/+9+3ZxEIgGvtJNJiXwcffLA9cw9nhMm3MvKIknyOY8eOtWeKojQXTj/99IxuAq4VR5VCSeKD3CDsEs4Ik8xkczWAGCNvvB49eoTpo4qiNC/YC3TSSSfZUQRp4y5tuJXenSFDhjidYObMMyP1MonLwsRNJwOJrJp8SXFXFKW4nHvuuRkJW59++qk9qyxYSzKGf9xxx9kzN3FmJv3a175mzyJwk7m6i1paS5T1mDBhgh0pitLc2Hfffc2xxx5rRxEsYF3Y1ySTMXA7jhw50o7cxBlhSqvI7WKmHjeb9NeOHz8+w+JTFKV5cfXVV2d4TT755JOKxsvxPEk33tFHHx1mELuMM8LUpUsX06ZNGzuKcC2zhRtMNtaibPz5559vR4qiNFdIGx8zZowdReD1qWQiBF0bpDCeffbZ9sxdnBEm/LMHHXSQHUW4Jky8ydK9yJss2ywritI8ueGGGzK6VxNrqoRLD4+TFEU21ZL44DrOCBPIvHqEqZJmcBIESQYzcd9dfvnldqQoSnOHOeG6666zozo2bdpU9oQuvDty/jzhhBPsmds4JUwy3ZoX1ZVqvWm+4quuukoLtiqKUo/TTjstIxEC62Xjxo1lW2gzb8rYEjBnYTXNnDkznNNcpUXwQrlhkgTw5tGyeP369faKMV/5ylcyWhiXGywlaS3R2uKFF17QFHFFUTL4+OOPzde//vWMrtzMZyxmS1kLlHmUNkL5LDSyidnmcuGFF5quXbvaq27g1KzasmXLjPx6lL+S2Xn4hqUokW55++23qygpipIKi+kHHnggFKIkzGeIVqnsAR6Xxy/EbUjM/KabbjI9e/YMM4tXrlxpv1N5nJtZMYMlvICVgLiSbMcBP/vZz5yuzKsoSuXBqzJnzpyMBSyLXdx6xV5wI0o8rqw4wYKfvkvZFtLE8u+44w7Tu3dvM3ny5NQ5r9w4J0y48kgdT5KWDVdqYp+wXHmwMU3TwxVFKYTvfve7ZsaMGRmuO8QAd1uxsvWYrzZs2JCRyczvxXqjNl6nTp1CN6Ks6xeDNXf99debPfbYw9x4441lT9ZI4kyMae3ateaaa64xs2fPTk0TL2esKRYlKYZsAn7ppZec35ymKIpb3HLLLWbixImpkz3WDEWsGxsaIMmBRIa0x2bOlO5EwKoiRJErueyQQw4JQxZpxQ9KTcWFiZTGqVOnhr7OfH1MytEKGDFKM7NZbbz44ovhakJRFKWhzJ07N0w2SBMDLBuSEThwvRUC1hb7lLJZXVhH2223nR2lw3zHHJxNoHg+v/jFL8wZZ5xhr5SHigkTvxb/68UXX2zWrVtnr+aGN499AlRbKAW8wfhX5cqDihTz5883BxxwgL2iKIrScF599VVz/PHHm/fff99eyYT5DXcbXxGp2JJiXkJI8CghJNnCG8yTiFKapZQNHhOBSvNWAUlpv/rVrzLaE5WKigjTsmXLzLhx48J062zwovICy1x83iTEqdgN+dJSwoE34vHHHw/NWkVRlKZC1tykSZPChXmxp99WrVqF7ju+Nga8VghUmluwV69eZt68eWVJ/CqrMPHHzpo1y0yZMiWr2w5Batu2bSg8PDXcalLFESfceg1ZEWQDXyu7stN6pyCATz75pBk4cKC9oiiKUhyeffbZsF3Gm2++aa80ntgVyNzJeVNgnmZOTHPvsVB/5JFHzLe//W17pTSUTZjIQBk9erT54x//aK/UByEiqUC66eJsExnzgfiNaEzQkMfDQsomkKROPvroo6ZPnz72iqIoSnFh+sV6IguuMSBCxJGYBwuNTRUK2dBpZY2Yo++55x4zatQoe6X4lEWYFi5cGP4Rq1evtlfqQFR4URGZbGRLSAD+Pf+WpIh8bwx/KnEkxChXNgpl4X/9619r9p2iKCWHxfoRRxxhRxHMa2nuNOB7iAMeI47GLMwLBU8Srkc59/I7b7vttjCZoxSUXJhQVjI6sqWA45Ir5IXlhUlL4U6C1cUbhn+Vx+RP4+Df8gLzHHL9uSQ5UIDxrLPOarI5rCiKUgivvfZa2GgwSefOncO5CnGKBYo5jaPYllE++P2IU1pI5c477zSnnnqqvVI8SiZMPCwFA3/6059miAGTPtZIQ1O/eRx8n2nFCZvKd77znXAj3O67726vKIqilB6yknfZZRc7ith5550zwhqVhLmXjGXpaUIkKb1EpmExKYkw8ZDnnXdeuDdJ0tSsEeDFYUNZmmuvodADavr06WbQoEH2iqIoSvlgviSpINk7qZA9SJUAcZKGAc/zmWeeCUswFYuiCxNigeuOnHcJfwCuu2K4yXjaCBQBumy594WwZMmSiuxsVhRFicGVh0svhrg7h4ukiRPNEV9++WXTvXt3e6VpFD1qRtmNNFEiflPMcu9xNgomb8eOHUPXIGPiTHHMip/hHOuMeFZagkVTLDdFUZRiwB6hJLli6ZUmbfMuWdcnnnhik4yEJEUVph//+Mfm1ltvtaM6MFNLuWMYcUF0eMFQbgKHu+66a+i35Rzhwn2YFtNydVWiKErzgd5NSYo1wZcK5lpZ5IA6ovR2KgZFEyasJIqwSrBksJZcIM1rmStNXVEUpRzst99+9iyCkEi2dHEXwBvFYj/2TsVQQOHpp5+2o8ZTlBjTX/7yFzNkyJCMYoKIkksTPzEp0h5jyHrhWrHci4qiKI3hww8/DAtFJ8lWGdwlmPPZxpOkW7du5o033miSl6zJFhO+RVIFpShhJblmjcgsPtx8KkqKolQawg1Um0niujsPKDYrPWJ0wr3sssvsqHE0SZgwttj5u2bNGnslgiSEUsaUGos0jYlDKYqiuMChhx5qzyLkYt9ViNPLJDL6T2E1NZYmCROJDlTeTkJAjJRwF5GZLrJTrqIoSqUYOnSoPYugWk0x9mqWGrxOJEMkYa5lL2tjabQw0XH2kksusaOI+Am66h6TwqT7lxRFcYXDDz88w/KQlRZcBYNEZj1TPZ2Nt42h0cLEfiWqLyQh2cHlfUFy9SH3DiiKolQKkh0GDx5sRxG+CBMQvpFZeldccYU9axiNEiaq4dIwKglBsFK3PW8KaemXffv2tWeKoiiVh5qdSYgz+eDOA0RJJrzRWWLBggV2VDgNFiYmdxr9JcF1h7XkMjLDBdNz7733tiNFUZTKQ3sgWT28FEWrSwXCJK2mtJqp+WiwMM2dO9f8/e9/t6MI0gVdL+0jO9T2798/zB5UFEVxBTKFZXfYbM1MXQRRkp6zxx57zKxYscKOCqNBwkR6+NSpU+0oAnV3pbJDLmTq5YEHHmjPFEVR3EH2NyJpy5fUcZDuPFyRd911lx0VRoOEidTwxYsX21EEouT6JlXcj9JikqmZiqIoLkDBAlkFItkSw3UwVmTFijlz5qSWhMtGg4SJvkVJeAIuJzzEyNUGQnrYYYfZkaIoijuQSHbmmWfaUQRzmFxcu4zUheXLl5tFixbZUX4KFqalS5eaP//5z3YUgcnmurUEMuWSSr5UIVcURXGRs846K8Pq+PTTT+2Z+yCuMgmCWFOhFCxMs2fPrmeKIUg+WEs8ZylMxx57rD1TFEVxD1r2jB8/3o4imMd8qJ8H6IMUVlklKBcFVRfnR+hMuGrVKnslqocny1C4CKmWdFxMQg0nsvIURVFcZfXq1aZnz571QhF0RKA5qg8gpMluDvD+++8X1OW2IIuJthZJUQIfrCWQqZZ9+vRRUVIUxXmo5UmFnSRYTL7sa8KdJ0M9zz33nD3LTUHC9PDDD9uzCHyH/FLXIU1RJj7IVExFURRXoSu4tJAoBedyE8EYREl2uX3hhRfsWW4KEibZkdD15lUx//rXv+xZBFmEY8aMsSNFURS3oVPDlVdeaUcRiNLmzZvtyG1wPSahRFEh5BUmOivKvho+WEvExaQb75hjjtEeTIqieAUZerIgAHObDwVepTAtWbKkoOedV5jwCcr8CB+ECWtJmruTJk2yZ4qiKH6Ap+f222/PcItt2rTJ+QKvslQdVSzeeustO8pOXmF6+eWX7VkEL47MT3cNhFTulD7ggAPMIYccYkeKoij+QMFp4k1JWHiTcVxAYnXFQJhkAkRRhOmVV16xZxFStV0EUZLW0uWXX27PFEVR/OOyyy4zQ4YMsaMIsvRkXzzXkFbTe++9Z8+yk1eYXnvtNXsW4bowYdqmWUsjR460I0VRFP/AU0UxVBoKJiHe5HItPVyRSZosTBs3bszYIOW6MJGtIk3ba665JsOcVBRF8Q02p95///0Zkz3znqv7m+RzZeNwPnIK0zvvvGPP6nC57xJ7luSbM2LECDN8+HA7UhRF8Zthw4ZltB8CkiFczNSTOQkYPPnIKUyUj0iC1eFq4gNWEm9MElIVp02bZkeKoijVwUUXXWQmTJhgRxHMgSRDuCZORRemdevW2bMIaZK5BAFAmTp58cUXmz333NOOFEVRqodZs2ZlFKSOxcmlrrdSmKQBkUZOYVq/fr09i3DVWsJ9J9+Ivn37mksvvdSOFEVRqgsMhfvuu88ceeSR9kpE7D1ypU2GjO/LMnFp5FQamfjgojDRPEsqMAkad999tzelkxRFURoDc9yjjz4aVrWRIEwu7HOSwlRI646cSiMTCVzLbGOvEuIpX/hrr73WDBw40I4URVGqF2LpDz74oDnxxBPtlTqYwzds2BBWXHCFQqpV5BQmaXK5JEyIEaIk/8ijjjrKXHDBBXakKIpS/VAmjjTyyZMn2yt14FX66KOPMopalwtpOBTSMimnMMke864IUyxK0iQk0eHee+91zrJTFEUpNcx71113nbn11lsziqcyZ5IgRkZcua0nKUxt27a1Z9nJKUxyz5L8BZWA54DfVFpzlIenp7wPXXUVRVFKxZlnnmmeffbZsD27hHkT64lKEeWaz2V5uDZt2tiz7DRImCpNLEoyT58A4COPPGJ69+5tryiKojRfBg8ebF5//fXUpAjmUSpF0NKoHNUipAA2WZhke4tyKWwacaKDFCXE84EHHjBDhw61VxRFUZQOHTqY3/72t+bmm29OdZ8Rn2ehjwVVSoGSutFkV550i0mTrFzwApJZIt13iNI999yjBVoVRVFSIO5EhYjFixdnnSfJJUCgsKDSOjM0laK78mQV20oIU+wTlQE79iqRhfK9733PXlEURVHS6NKlS2g9EYfv06ePvVof5lhcfBRWYG+oNAQai8yc5rnkI6cwYQomKbcwsUGMLJI0xWVT2fHHH2+vKIqiKPkg5vSPf/wjLGeUlhwBuN6opMPcS1k6RIoQSmNDOdKoKKRMXE5h6tGjhz2LQPnKEWeKXXdpJTV4MRcsWBDuV1IURVEaBt6miRMnmnfffdfMnDnTdO3a1X4nE4wCRIr4PiLFvIxVhVBJSygb8ucKSVJrEQhNVqWhurgUJ6yoUvZkwseJIKU9rYMOOsg89NBDBZmCiqIoSn6IMc2bNy+0op5//nl7tTAoU4ceULePmD9fuRYfzOPErpK8/fbbecUppzChdNtvv309XyNxp1LUoItbBMtNvTEo/PTp0zM2jimKoijF4c033wyLFMydO9esWrXKXi0eiBcWWD7jJqcwQb9+/cxbb71lR8bssMMOBWVVFApChIWUrYfIzjvvbG655RaNJymKopQJXHgvvviiefzxx80TTzxRTwOaAvGlJUuW2FF28goTKYY8uRjqHFFloankEyTgd992222mU6dO9oqiKIpSbgjrPPfcc+GBYC1btqxR+QZ0FE/qSTbyChMFUXGhxWCCyWy9QuFXIUSYcrlSEQnGzZgxwxx33HH2iqIoiuIKGBVk93EsXbo0TKTg+OCDD8I9Udk4//zzC+oqnleY8DWefPLJdhRBZlxDCqViHcXN/HKlnGONnXfeeWbKlClFdRcqiqIo5YH5nuy9ZKUe8geY+3v16mW6d+8eXstFXmFCAWUWXPv27TPKFSXhIUlmwCriieWrZktCw7hx48wVV1yRNbdeURRFaR7kFSZA5d555x07imodJesdoYSoJGIUHwU8bJjxd8YZZ4TmXa5cekVRFKX5UJAwIR6zZ8+2oyjlj5RxLCEEqdCNVjFkZvCYY8eODa0vRVEURYkpSJjIax89erQdNQ4y+UhmOOWUU8yQIUO0mZ+iKIqSSkHCtHr16ka52ohNHXnkkWGK4PDhw3PGpRRFURQFChIm6Nmzp1m+fLkdpYN4fetb3zKDBg0KraL+/fvb7yiKoihKYRQsTOPHjzd33HFHGFvq1q1beJD2R2WIvffe2wwYMEA3wiqKoihNpmBhoicSSQ6dO3e2VxRFURSl+BQsTIqiKIpSDnL2Y1IURVGUcqPCpCiKojiFCpOiKIriFCpMiqIoilOoMCmKoigOYcz/A5Zlm1d1Ccf/AAAAAElFTkSuQmCC" vertex="1" parent="1">
          <mxGeometry x="1420" y="635.14" width="112" height="131.11" as="geometry" />
        </mxCell>
      </root>
    </mxGraphModel>
  </diagram>
</mxfile>
